<svg width="400" height="400" viewBox="0 0 400 400" fill="none" xmlns="http://www.w3.org/2000/svg">
<path d="M161.16 244.406C167.887 253.929 180.924 256.099 190.28 249.252C199.637 242.406 201.768 229.136 195.042 219.613L161.16 244.406ZM299.305 103.116C295.036 92.2221 282.899 86.9138 272.196 91.2594C261.493 95.6049 256.278 107.959 260.547 118.853L299.305 103.116ZM216.251 50.9815C204.767 51.9579 196.236 62.2244 197.195 73.9126C198.154 85.6005 208.241 94.2845 219.724 93.308L216.251 50.9815ZM173.717 151.509L185.558 119.563L146.515 104.571L134.675 136.517L173.717 151.509ZM178.101 232.01C195.042 219.613 195.042 219.613 195.042 219.613C195.042 219.614 195.041 219.612 195.042 219.613C195.04 219.611 195.037 219.606 195.035 219.602C195.03 219.595 195.022 219.585 195.012 219.57C194.991 219.54 194.96 219.496 194.918 219.438C194.835 219.321 194.713 219.147 194.553 218.92C194.233 218.466 193.764 217.802 193.172 216.961C191.989 215.281 190.313 212.898 188.347 210.094C184.41 204.481 179.33 197.21 174.713 190.517L140.561 214.922C145.268 221.746 150.42 229.12 154.384 234.772C156.369 237.602 158.06 240.007 159.257 241.706C159.855 242.556 160.33 243.229 160.655 243.691C160.819 243.922 160.944 244.099 161.029 244.22C161.072 244.281 161.104 244.326 161.126 244.358C161.137 244.373 161.146 244.385 161.151 244.393C161.154 244.397 161.159 244.404 161.16 244.406C161.16 244.406 161.161 244.407 161.16 244.406C161.161 244.406 161.16 244.406 178.101 232.01ZM174.713 190.517C172.14 186.785 170.356 180.121 169.704 172.261L128.123 175.84C128.973 186.066 131.565 201.88 140.561 214.922L174.713 190.517ZM256.517 111.497L257.738 113.38L292.569 89.9894L291.348 88.1059L256.517 111.497ZM261.313 139.161L258.131 149.532L297.961 162.195L301.144 151.826L261.313 139.161ZM257.738 113.38C258.855 115.103 259.796 116.936 260.547 118.853L299.305 103.116C297.504 98.5191 295.247 94.1207 292.569 89.9894L257.738 113.38ZM260.547 118.853C263.086 125.332 263.357 132.503 261.313 139.161L301.144 151.826C306.045 135.856 305.395 118.656 299.305 103.116L260.547 118.853ZM185.558 119.563C191.017 104.835 204.313 94.6181 219.724 93.308L216.251 50.9815C184.795 53.6559 157.657 74.5105 146.515 104.571L185.558 119.563ZM219.724 93.308C234.333 92.0659 248.444 99.0411 256.517 111.497L291.348 88.1059C274.869 62.6835 246.069 48.4463 216.251 50.9815L219.724 93.308ZM134.675 136.517C130.662 147.343 126.887 160.954 128.123 175.84L169.704 172.261C169.234 166.606 170.581 159.97 173.717 151.509L134.675 136.517Z" fill="#E33535"/>
<path d="M238.84 155.594C232.113 146.071 219.076 143.901 209.72 150.748C200.364 157.594 198.232 170.865 204.959 180.388L238.84 155.594ZM100.695 296.884C104.964 307.778 117.101 313.087 127.804 308.741C138.507 304.396 143.723 292.041 139.454 281.147L100.695 296.884ZM183.75 349.019C195.233 348.043 203.764 337.776 202.805 326.088C201.846 314.4 191.759 305.716 180.276 306.693L183.75 349.019ZM226.283 248.491L214.442 280.437L253.485 295.43L265.326 263.483L226.283 248.491ZM221.899 167.991C204.959 180.388 204.959 180.388 204.959 180.388V180.388L204.966 180.398C204.966 180.398 204.979 180.416 204.989 180.431C205.01 180.46 205.041 180.504 205.082 180.563C205.165 180.68 205.287 180.854 205.447 181.08C205.768 181.534 206.236 182.199 206.828 183.039C208.011 184.72 209.688 187.102 211.653 189.906C215.59 195.519 220.671 202.79 225.287 209.484L259.439 185.079C254.732 178.254 249.581 170.88 245.616 165.228C243.631 162.398 241.94 159.993 240.743 158.294C240.145 157.444 239.67 156.771 239.345 156.309C239.182 156.078 239.056 155.901 238.971 155.78C238.929 155.72 238.896 155.674 238.874 155.642C238.863 155.627 238.849 155.607 238.849 155.607L238.84 155.594V155.594C238.84 155.594 238.84 155.594 221.899 167.991ZM225.287 209.484C227.861 213.215 229.644 219.88 230.297 227.739L271.877 224.161C271.027 213.935 268.435 198.121 259.439 185.079L225.287 209.484ZM143.483 288.504L142.262 286.62L107.431 310.011L108.652 311.894L143.483 288.504ZM138.687 260.839L141.87 250.469L102.039 237.805L98.8562 248.175L138.687 260.839ZM142.262 286.62C141.146 284.898 140.205 283.064 139.454 281.147L100.695 296.884C102.496 301.481 104.753 305.879 107.431 310.011L142.262 286.62ZM139.454 281.147C136.915 274.668 136.644 267.497 138.687 260.839L98.8562 248.175C93.9554 264.144 94.6045 281.344 100.695 296.884L139.454 281.147ZM214.442 280.437C208.983 295.165 195.688 305.382 180.276 306.693L183.75 349.019C215.205 346.345 242.342 325.49 253.485 295.43L214.442 280.437ZM180.276 306.693C165.667 307.935 151.557 300.959 143.483 288.504L108.652 311.894C125.131 337.317 153.931 351.554 183.75 349.019L180.276 306.693ZM265.326 263.483C269.339 252.658 273.114 239.046 271.877 224.161L230.297 227.739C230.767 233.394 229.419 240.03 226.283 248.491L265.326 263.483Z" fill="#FFB696"/>
</svg>
