<?xml version="1.0" encoding="utf-8"?>
<!-- Generator: Adobe Illustrator 21.1.0, SVG Export Plug-In . SVG Version: 6.00 Build 0)  -->
<svg version="1.1" id="Layer_1" xmlns="http://www.w3.org/2000/svg" xmlns:xlink="http://www.w3.org/1999/xlink" x="0px" y="0px"
	 viewBox="0 0 200 182.8" width="330.770600828" height="302.324329157" style="enable-background:new 0 0 200 182.8;" xml:space="preserve">
<style type="text/css">
	.st0{fill:#00467F;}
</style>
<path class="st0" d="M153.5,128.9h-43V128h43V128.9z M132,135.5L132,135.5c-7.8,0-14.3-3-18.3-5.4h36.6
	C146.3,132.6,139.7,135.5,132,135.5 M100,124c-11.2,0-21.8-2.9-30.9-8.4l5.3-9c7.1,4.7,15.9,7.6,25.5,7.6c9.6,0,18.5-2.8,25.5-7.6
	l5.3,9C121.8,121.1,111.2,124,100,124 M102.5,136.7l-1.8,2.8v-14.2c0.7,0,1.5,0,2.2-0.1L102.5,136.7z M99.4,139.5l-1.8-2.8
	l-0.4-11.5c0.7,0,1.5,0.1,2.2,0.1V139.5z M89.6,128.9h-43V128h43V128.9z M68.1,135.5L68.1,135.5c-7.8,0-14.3-3-18.3-5.4h36.6
	C82.4,132.6,75.8,135.5,68.1,135.5 M57.4,111.4c0.2,0.2,0.4,0.3,0.7,0.5c1.3,0.9,3.1,1.6,5.1,2c-0.2,0.1-0.4,0.2-0.5,0.3
	c-0.4,0.3-0.8,0.5-1.1,0.7c-1.2,0.6-2.5,0.9-2.5,0.9l-1.4,0.3l1.1,0.9c3.2,2.5,6.1,3.4,8.6,3.7v6H51.8L57.4,111.4z M51.6,103.8
	c1.8-0.1,5.7,0,10.3,1.6c2.8,1,5.1,2.2,6.7,3.4c-0.6,0.3-1,0.9-1,1.6c-0.1-0.1-0.2-0.1-0.3-0.2c-1.1-0.6-2.3-1.1-3.5-1.6
	c-1.2-0.4-2.5-0.8-3.7-0.9l3.3,1.8l3.3,1.8l0.9,0.5c-1,0.3-1.9,0.7-2.8,1.1c-2.6-0.4-4.6-1.2-6.1-2.1
	C55.5,108.6,53,105.7,51.6,103.8 M51.1,91.4c0.8,0.4,1.9,0.9,3.4,1.3c0.7,0.2,1.3,0.4,1.9,0.7c0.3,0.5,0.9,0.9,1.6,0.9
	c0.1,0,0.1,0,0.1,0c0.2,0.1,0.4,0.3,0.6,0.4c0.1,0.8,0.8,1.4,1.6,1.5c0.4,0.4,0.8,0.9,1.2,1.5c0.2,0.3,0.4,0.6,0.5,0.9
	c0.6,2.3,2,4.5,3.7,6.3c-0.3-0.3-0.6-0.5-0.9-0.8l-3.6-3.1c-1.2-1.1-2.4-2.1-3.6-3.2c0.8,1.4,1.8,2.7,2.9,3.9c1,1.1,2,2.1,3.1,3.1
	c-0.4-0.2-0.8-0.3-1.2-0.5c-1.7-0.6-3.4-1-4.8-1.3C54.9,100.4,51.8,96.4,51.1,91.4 M58.5,92.5c0,0.4-0.3,0.7-0.7,0.7
	c-0.4,0-0.7-0.3-0.7-0.7c0-0.4,0.3-0.7,0.7-0.7C58.2,91.7,58.5,92.1,58.5,92.5 M61.1,94.3c0,0.4-0.3,0.7-0.7,0.7
	c-0.4,0-0.7-0.3-0.7-0.7c0-0.4,0.3-0.7,0.7-0.7C60.7,93.5,61.1,93.9,61.1,94.3 M61.7,95.8C61.7,95.8,61.7,95.8,61.7,95.8
	C61.7,95.8,61.6,95.8,61.7,95.8C61.6,95.8,61.7,95.8,61.7,95.8 M50.6,75.3c0.7,0.9,1.7,2.1,2.9,3.4c0,0.1,0,0.2,0,0.2
	c0,1,0.8,1.8,1.8,1.8c0.1,0,0.1,0,0.2,0c1.1,1.1,2.3,2.1,3.5,3.1c0.6,3.2,1.6,6.3,3.1,9.1c0,0.1-0.1,0.3-0.1,0.4
	c-0.3-0.5-0.9-0.8-1.5-0.8c-0.2,0-0.4,0-0.6,0.1c-0.1-0.1-0.1-0.1-0.1-0.2c0,0,0,0,0,0c0-0.9-0.6-1.6-1.4-1.8
	c-0.8-1-1.5-2.1-2.3-3.2c-0.8-1.3-1.6-2.6-2.3-4.1c0,0.8,0.2,1.6,0.5,2.4c0.2,0.8,0.6,1.5,0.9,2.2c0.5,1,1.1,2,1.8,3
	c-0.3,0.2-0.6,0.6-0.7,1c-0.1,0-0.2-0.1-0.3-0.1C52.1,86.5,50.3,81.1,50.6,75.3 M55.7,78.7c0,0.4-0.3,0.7-0.7,0.7
	c-0.4,0-0.7-0.3-0.7-0.7c0-0.4,0.3-0.7,0.7-0.7C55.4,77.9,55.7,78.3,55.7,78.7 M56.6,58.2c0.4,0.5,0.9,1.2,1.6,2.4
	c-0.5,1.1-0.9,2.3-0.9,3.6c-0.1,2.9,0.5,5.3,1.9,7.6c-0.3,1.2-0.4,2.4-0.6,3.6c-0.1-0.2-0.2-0.4-0.3-0.6c-0.5-1.2-0.9-2.4-1.2-3.7
	c-0.4-1.3-0.7-2.5-1-3.8c-0.2,1.3-0.1,2.7,0,4c0.2,1.3,0.5,2.7,1,3.9c0.3,0.9,0.8,1.7,1.3,2.5c0,0.2,0,0.4,0,0.6
	c0,1.2,0.1,2.4,0.2,3.6c-0.7-0.6-1.4-1.2-2-1.8c0.3-0.3,0.4-0.7,0.4-1.2c0-1-0.8-1.8-1.8-1.8c-0.1,0-0.2,0-0.2,0
	C53.6,73.4,51.2,64.6,56.6,58.2 M58.5,64.3c0.1-3.2,2.4-5.9,3.7-7.4c0.2-0.2,0.3-0.4,0.5-0.6c0.2-0.3,0.4-0.5,0.6-0.8
	c0.4-0.5,0.9-1,1.2-1.5c0.3,0.9,0.7,2.3,0.9,4.5c-0.9,1.1-1.7,2.3-2.4,3.4c0-0.3,0-0.6,0.1-0.9c0-0.6,0-1.2,0-1.8
	c-0.5,0.5-0.8,1-1,1.6c-0.2,0.6-0.4,1.2-0.4,1.8c-0.1,0.6-0.1,1.2,0,1.8c-0.9,1.8-1.6,3.6-2.1,5.5C58.8,68.3,58.5,66.4,58.5,64.3
	 M68.5,109.9c0-0.4,0.3-0.7,0.7-0.7c0.4,0,0.7,0.3,0.7,0.7c0,0.4-0.3,0.7-0.7,0.7C68.9,110.6,68.5,110.3,68.5,109.9 M72.3,120.3
	c0-0.4,0.3-0.7,0.7-0.7c0.4,0,0.7,0.3,0.7,0.7c0,0.4-0.3,0.7-0.7,0.7C72.6,121,72.3,120.7,72.3,120.3 M72.9,122.1
	c1,0,1.8-0.8,1.8-1.8c0-0.1,0-0.2,0-0.3c2.7,1.2,5.5,2.2,8.3,3l1.4,3.7H68.7v-5.9c0.1,0,0.1,0,0.2,0c0.8,0,1.6-0.1,2.3-0.2
	C71.3,121.4,72,122.1,72.9,122.1 M67.7,116.2l-0.9,0.1c-0.8,0.1-1.6,0.1-2.5,0.2c0.8,0.4,1.6,0.6,2.4,0.8c0.8,0.1,1.7,0.2,2.6,0.1
	c0.1,0,0.2,0,0.3-0.1c0.8,0.5,1.6,0.9,2.5,1.3c-0.2,0.1-0.4,0.3-0.6,0.5c-2.6,0.6-6.4,0.6-10.8-2.5c0.5-0.2,1-0.4,1.5-0.6
	c0.3-0.2,0.7-0.4,1.2-0.7c1.4-1,3.5-2.3,5.8-2.5l-1.9,3.2L67.7,116.2z M71.9,107.8c0,0.4-0.3,0.7-0.7,0.7c-0.4,0-0.7-0.3-0.7-0.7
	c0-0.4,0.3-0.7,0.7-0.7C71.5,107,71.9,107.4,71.9,107.8 M71.1,105.9c-0.7,0-1.3,0.4-1.6,0.9c-2.5-2.1-5.3-5.1-6.3-8.6h0c0,0,0,0,0,0
	C63,97,62.9,95.9,63,94.7c2.6,4.3,6.1,8.1,10.4,11.1l-0.6,1.1C72.5,106.3,71.9,105.9,71.1,105.9 M100,44c22.2,0,40.3,15.4,40.3,34.4
	c0,1.2-0.1,2.4-0.2,3.5c-0.2,0.5-1.2,0.7-0.9,1.4c0.2-0.4,0.7-0.8,0.8-1.1c-1.5,11.9-10.2,22-22.2,27.1c0,0,0,0,0,0c0,0,0,0,0,0
	c-0.1,0-0.1,0.1-0.2,0.1c-0.3,0-0.7,0-0.7-0.3l-0.5-0.3c-0.2-0.4-1-0.4-1-0.9c-1-0.3-0.9-0.4-1.8-0.5c-0.7-0.1-1.3-0.4-2.1-0.4
	c-0.8-0.1-2.6,1-3.5,1.1c-0.3,0.1-0.3-0.1-0.5-0.4c-1.1-1.1-3.2-0.4-5.5,0.5c-0.6,0.3-1.5,0.8-2.2,0.8c-1.6,0-2.7-1.1-4.8-1.2
	c-0.7,0-0.1,1.6-0.4,2.3c-0.3-0.1-1.3-0.5-1.3-0.5s-1-0.1-1.3-0.2c-0.4-0.1-0.7-0.2-0.8-0.1c-0.6,0.7-1.1-1.2-2.3-1.3
	c-0.5-0.7-1.5-1.5-2.3-2.3c-0.4-0.5-1.4-2.8-1.4-2.1c-0.1,1.8,1.6,2.6,1.5,3.9c0-0.2-0.4-0.1-0.3-0.1c0,0.2-0.5,0.3-0.4,0.7
	c-0.5,0.1-1.7,0.1-1.9,0.4c-0.3,0.6-1.3,0.8-2,0.9c-13.3-5.6-22.4-17.3-22.4-30.9C59.7,59.4,77.8,44,100,44 M66.7,43.7
	c8.2-5.8,18-9.2,28.5-10.1c0.2,2,0.3,4.7,0.3,8.4v0.8c-8.9,0.8-16.9,4-23.2,8.9L66.7,43.7z M95.7,28.7c1.1,0,2.3,0,3.6,0v14
	c-0.9,0-1.7,0-2.5,0.1v-0.7C96.8,35.4,96.4,30.8,95.7,28.7 M104.3,28.7c-0.7,2.1-1.1,6.7-1.1,13.4v0.7c-0.9-0.1-1.7-0.1-2.6-0.1v-14
	C102,28.7,103.2,28.7,104.3,28.7 M88.4,27.1v-0.9c1.3-0.1,4.7-0.3,9.6-0.3h3.9c4.9,0,8.3,0.2,9.6,0.3v0.9c-1.4,0.1-5.5,0.3-11.6,0.3
	C93.9,27.5,89.9,27.2,88.4,27.1 M103.2,24.6H102c-1.3,0-2.7,0-3.9,0h-1.3c0.3-1,0.5-3,0.5-6.6V7c1,0.1,2,0.1,2.8,0.1
	c0.7,0,1.8-0.1,2.8-0.1V18C102.8,21.7,103,23.6,103.2,24.6 M96,5.6V4.8c0.9-0.1,2.6-0.2,4-0.2c1.4,0,3.2,0.1,4,0.2v0.8
	c-1,0.1-3,0.2-4,0.2C99,5.8,97,5.7,96,5.6 M100,1.6c0.6,0,1.2,0.4,1.2,0.9c0,0.5-0.5,0.9-1.2,0.9c-0.6,0-1.2-0.4-1.2-0.9
	C98.9,2,99.4,1.6,100,1.6 M133.3,43.5l-5.7,8.2c-6.3-4.8-14.3-8-23.1-8.8v-0.9c0-3.7,0.1-6.4,0.3-8.4
	C115.3,34.4,125.1,37.8,133.3,43.5 M135.5,54.1c0.3,0.5,0.8,1,1.2,1.5c0.2,0.3,0.4,0.5,0.6,0.8c0.1,0.2,0.3,0.3,0.5,0.6
	c1.3,1.5,3.6,4.2,3.7,7.4c0.1,2.2-0.2,4-1.1,5.7c-0.5-1.9-1.2-3.7-2.1-5.5c0.1-0.6,0.1-1.2,0-1.8c-0.1-0.6-0.2-1.2-0.4-1.8
	c-0.2-0.6-0.5-1.1-1-1.6c0,0.6,0,1.2,0,1.8c0,0.3,0,0.6,0.1,0.9c-0.7-1.2-1.5-2.3-2.4-3.4C134.7,56.4,135.1,54.9,135.5,54.1
	 M143.4,58.2c5.4,6.4,3,15.2,1.6,19c-0.1,0-0.2,0-0.2,0c-1,0-1.8,0.8-1.8,1.8c0,0.4,0.2,0.9,0.4,1.2c-0.6,0.6-1.3,1.2-2,1.8
	c0.1-1.2,0.2-2.4,0.2-3.6c0-0.2,0-0.4,0-0.6c0.5-0.8,1-1.6,1.3-2.5c0.5-1.3,0.8-2.6,1-3.9c0.2-1.3,0.2-2.7,0-4
	c-0.4,1.3-0.7,2.6-1,3.8c-0.3,1.3-0.7,2.5-1.2,3.7c-0.1,0.2-0.2,0.4-0.3,0.6c-0.1-1.2-0.3-2.4-0.6-3.6c1.4-2.3,2-4.7,1.9-7.6
	c0-1.3-0.4-2.5-0.9-3.6C142.4,59.4,143,58.6,143.4,58.2 M144.3,78.7c0-0.4,0.3-0.7,0.7-0.7c0.4,0,0.7,0.3,0.7,0.7
	c0,0.4-0.3,0.7-0.7,0.7C144.6,79.4,144.3,79.1,144.3,78.7 M146.5,78.7c1.2-1.3,2.2-2.5,2.9-3.4c0.3,5.8-1.5,11.2-5.3,16.5
	c-0.1,0-0.2,0.1-0.3,0.1c-0.1-0.4-0.4-0.7-0.7-1c0.7-0.9,1.2-1.9,1.8-3c0.4-0.7,0.7-1.5,0.9-2.2c0.2-0.8,0.4-1.6,0.5-2.4
	c-0.6,1.5-1.4,2.8-2.3,4.1c-0.7,1.1-1.5,2.1-2.3,3.2c-0.8,0.2-1.4,0.9-1.4,1.8c0,0,0,0,0,0c0,0.1-0.1,0.1-0.1,0.2
	c-0.2-0.1-0.4-0.1-0.6-0.1c-0.6,0-1.1,0.3-1.5,0.8c0-0.1-0.1-0.3-0.1-0.4c1.5-2.9,2.6-5.9,3.1-9.1c1.2-1,2.4-2,3.5-3.1
	c0.1,0,0.1,0,0.2,0c1,0,1.8-0.8,1.8-1.8C146.5,78.9,146.5,78.8,146.5,78.7 M141.5,92.5c0-0.4,0.3-0.7,0.7-0.7c0.4,0,0.7,0.3,0.7,0.7
	c0,0.4-0.3,0.7-0.7,0.7C141.8,93.2,141.5,92.9,141.5,92.5 M138.9,94.3c0-0.4,0.3-0.7,0.7-0.7c0.4,0,0.7,0.3,0.7,0.7
	c0,0.4-0.3,0.7-0.7,0.7C139.3,95,138.9,94.7,138.9,94.3 M138.3,95.8C138.3,95.8,138.4,95.8,138.3,95.8
	C138.4,95.8,138.3,95.8,138.3,95.8C138.3,95.8,138.3,95.8,138.3,95.8 M148.9,91.4c-0.8,5-3.8,9-6.4,11.6c-1.5,0.3-3.1,0.7-4.8,1.3
	c-0.4,0.2-0.8,0.3-1.2,0.5c1.1-1,2.1-2,3.1-3.1c1.1-1.2,2.1-2.5,2.9-3.9c-1.2,1.1-2.4,2.2-3.6,3.2l-3.6,3.1
	c-0.3,0.3-0.6,0.5-0.9,0.8c1.6-1.8,3-4,3.7-6.3c0.2-0.3,0.4-0.6,0.5-0.9c0.4-0.5,0.8-1,1.2-1.5c0.8-0.1,1.4-0.7,1.6-1.5
	c0.2-0.2,0.4-0.3,0.6-0.4c0,0,0.1,0,0.2,0c0.7,0,1.3-0.4,1.6-0.9c0.6-0.2,1.2-0.5,1.9-0.7C147.1,92.3,148.2,91.8,148.9,91.4
	 M148.4,103.8c-1.4,1.9-3.8,4.8-7.2,7c-1.5,1-3.5,1.7-6.1,2.1c-0.8-0.4-1.8-0.9-2.8-1.1l0.9-0.5l3.3-1.8l3.3-1.8
	c-1.3,0.1-2.5,0.5-3.7,0.9c-1.2,0.4-2.4,1-3.5,1.6c-0.1,0.1-0.2,0.1-0.3,0.2c0-0.7-0.4-1.3-1-1.6c1.7-1.1,3.9-2.4,6.7-3.4
	C142.7,103.8,146.6,103.7,148.4,103.8 M130.7,109.2c0.4,0,0.7,0.3,0.7,0.7c0,0.4-0.3,0.7-0.7,0.7c-0.4,0-0.7-0.3-0.7-0.7
	C130,109.5,130.3,109.2,130.7,109.2 M129.6,107.8c0,0.4-0.3,0.7-0.7,0.7c-0.4,0-0.7-0.3-0.7-0.7c0-0.4,0.3-0.7,0.7-0.7
	C129.3,107,129.6,107.4,129.6,107.8 M128.9,105.9c-0.7,0-1.3,0.4-1.6,1l-0.6-1.1c4.3-3.1,7.8-6.9,10.4-11.1c0.1,1.2,0,2.3-0.3,3.5
	c0,0,0,0,0,0h0c-1,3.5-3.8,6.5-6.3,8.6C130.1,106.2,129.5,105.9,128.9,105.9 M128.5,119.2c-0.2-0.2-0.4-0.4-0.6-0.5
	c0.8-0.4,1.7-0.9,2.5-1.3c0.1,0,0.2,0.1,0.3,0.1c0.9,0.1,1.7,0,2.6-0.1c0.8-0.1,1.7-0.4,2.4-0.8c-0.9-0.1-1.7-0.2-2.5-0.2l-0.9-0.1
	l0.3-0.2l-1.9-3.2c2.3,0.1,4.4,1.5,5.8,2.5c0.5,0.3,0.9,0.6,1.2,0.7c0.5,0.3,1.1,0.5,1.5,0.6C134.9,119.8,131.1,119.7,128.5,119.2
	 M126.2,120.3c0-0.4,0.3-0.7,0.7-0.7c0.4,0,0.7,0.3,0.7,0.7c0,0.4-0.3,0.7-0.7,0.7C126.6,121,126.2,120.7,126.2,120.3 M127.1,122.1
	c0.9,0,1.7-0.7,1.8-1.5c0.7,0.1,1.5,0.2,2.3,0.2c0.1,0,0.1,0,0.2,0v5.9h-15.7l1.4-3.7c2.9-0.8,5.6-1.8,8.3-3c0,0.1,0,0.2,0,0.3
	C125.3,121.3,126.1,122.1,127.1,122.1 M148.2,126.7h-15.6v-6c2.5-0.3,5.4-1.2,8.6-3.7l1.1-0.9l-1.4-0.3c0,0-1.3-0.3-2.5-0.9
	c-0.3-0.1-0.6-0.4-1.1-0.7c-0.2-0.1-0.3-0.2-0.5-0.3c2.1-0.5,3.8-1.2,5.1-2c0.2-0.2,0.5-0.3,0.7-0.5L148.2,126.7z M87,29.5h-0.9
	c-0.1-0.7-0.1-1.8-0.1-2.8c0-1,0.1-2.1,0.1-2.8H87c0.1,0.8,0.2,2.1,0.2,2.8C87.2,27.4,87.1,28.7,87,29.5 M83.9,27.8
	c-0.4,0-0.8-0.5-0.8-1.1c0-0.6,0.3-1.1,0.8-1.1c0.4,0,0.8,0.5,0.8,1.1C84.7,27.3,84.4,27.8,83.9,27.8 M113,23.9h0.9
	c0.1,0.7,0.1,1.8,0.1,2.8c0,1-0.1,2.1-0.1,2.8H113c-0.1-0.8-0.1-2.1-0.1-2.8C112.9,26,113,24.7,113,23.9 M116.1,25.6
	c0.4,0,0.8,0.5,0.8,1.1c0,0.6-0.3,1.1-0.8,1.1c-0.4,0-0.8-0.5-0.8-1.1C115.4,26.1,115.7,25.6,116.1,25.6 M149.6,126.7l-5.9-16.1
	c3.2-2.5,5.3-5.4,6.4-7l0.6-0.8l-1-0.1c-0.1,0-2.1-0.3-5.1,0c3.5-3.8,5.5-8.1,5.8-12.5l0.1-1.4l-1.1,0.9c0,0-1.1,0.8-3.3,1.5
	c3.7-5.6,5.2-11.4,4.5-17.6l-0.2-1.6l-1,1.3c0,0-1.2,1.6-2.9,3.6c1.6-4.5,3.5-13.6-2.6-20.1l-0.4-0.5l-0.5,0.4c0,0-0.8,0.8-1.8,2.5
	c-0.8-1.4-1.7-2.4-2.4-3.2c-0.2-0.2-0.3-0.4-0.4-0.5c-0.2-0.3-0.4-0.5-0.7-0.8c-0.7-0.8-1.4-1.6-1.6-2.3l-0.4-1.1l-0.7,1
	c-0.1,0.1-1.1,1.4-1.5,4.9c-1.4-1.7-3.1-3.2-4.8-4.7l6.5-9.3l-0.5-0.4c-8.5-6-18.7-9.6-29.6-10.5c0.3-2.5,0.6-3.4,0.8-3.7
	c3-0.1,5-0.2,6-0.3c0.1,0.9,0.1,1.7,0.1,1.8l0,0.6h3.2l0.1-0.6c0,0,0.1-0.6,0.1-1.3c0.3,0.1,0.5,0.2,0.8,0.2c1.1,0,2-1.1,2-2.4
	c0-1.3-0.9-2.4-2-2.4c-0.3,0-0.6,0.1-0.8,0.2c0-0.7-0.1-1.3-0.1-1.3l-0.1-0.6h-3.2l0,0.6c0,0.1-0.1,0.9-0.1,1.8
	c-1.1-0.1-3.6-0.2-7.1-0.3c-0.2-0.4-0.5-2-0.5-6.6V6.9c0.4,0,0.7-0.1,0.7-0.1l0.6,0V3.6l-0.6-0.1c-0.1,0-1.2-0.1-2.5-0.2
	c0.2-0.3,0.2-0.6,0.2-0.9c0-1.2-1.1-2.1-2.4-2.1c-1.3,0-2.4,1-2.4,2.1c0,0.3,0.1,0.6,0.2,0.9c-1.4,0.1-2.5,0.2-2.5,0.2l-0.6,0.1v3.2
	l0.6,0c0,0,0.3,0,0.7,0.1V18c0,4.7-0.4,6.2-0.5,6.6c-3.5,0.1-6,0.2-7.1,0.3c-0.1-0.9-0.1-1.7-0.1-1.8l0-0.6h-3.2l-0.1,0.6
	c0,0-0.1,0.6-0.1,1.3c-0.3-0.1-0.5-0.2-0.8-0.2c-1.1,0-2,1.1-2,2.4c0,1.3,0.9,2.4,2,2.4c0.3,0,0.6-0.1,0.8-0.2
	c0,0.7,0.1,1.3,0.1,1.3l0.1,0.6h3.2l0-0.6c0-0.1,0.1-0.9,0.1-1.8c1,0.1,3,0.2,6,0.3c0.2,0.3,0.5,1.2,0.8,3.7
	c-11,0.9-21.2,4.6-29.7,10.7L65,43.4l6.4,9.1c-1.7,1.4-3.3,3-4.7,4.6c-0.5-3.5-1.5-4.8-1.5-4.9l-0.7-1l-0.4,1.1
	c-0.2,0.7-0.9,1.5-1.6,2.3c-0.2,0.3-0.4,0.5-0.7,0.8c-0.1,0.1-0.3,0.3-0.4,0.5c-0.6,0.7-1.5,1.8-2.4,3.2c-1-1.7-1.8-2.5-1.8-2.5
	l-0.5-0.4l-0.4,0.5C50,63.3,52,72.4,53.6,76.9c-1.8-2-2.9-3.6-2.9-3.6l-1-1.3l-0.2,1.6c-0.7,6.2,0.7,12,4.5,17.6
	c-2.2-0.7-3.3-1.5-3.3-1.5l-1.1-0.9l0.1,1.4c0.3,4.3,2.3,8.6,5.8,12.5c-3-0.3-4.9,0-5.1,0l-1,0.1l0.6,0.8c1.1,1.6,3.2,4.5,6.4,7
	l-5.9,16.1h-5.2v3.5h2.1c3.8,2.5,11.3,6.6,20.7,6.6h0c9.4,0,16.9-4.1,20.7-6.6h2.1v-3.5h-5.1l-1.2-3.3c3.7,0.9,7.5,1.5,11.3,1.8
	l0.4,11.9l3.7,5.5l3.7-5.5l0.4-11.9c3.9-0.2,7.7-0.8,11.3-1.8l-1.2,3.3h-5.1v3.5h2.1c3.8,2.5,11.3,6.6,20.7,6.6h0
	c9.4,0,16.9-4.1,20.7-6.6h2.1v-3.5H149.6z M132.5,98.3c-0.1,0-0.3,0.1-0.6,0c-0.2-0.1-0.3-0.4-0.3-0.3c0,0,0.1,0.5,0,0.6
	c-0.1,0.4-0.2,0.6-0.7,0.7c0.2,0.4,0.2,0.7,0.1,0.9C131.8,99.4,132.5,98.6,132.5,98.3 M84.3,52c0.5,0.1,1.4-0.1,1.6-0.3
	C85.7,51.9,84.8,52.1,84.3,52L84.3,52 M69,68.8c-0.7,1.7,0.9,2.6,1,4.2c0.4,0.2,0.2-0.3,0.5-0.2c0.1,0.4,0.4,0.6,0.4,1.1
	c0.2,0.2,0.8,0,1,0.3c0,0.6-0.2,0.9,0,1.4c0.3,0.2,0.8,0.2,1.2,0.3c0,0.3,0.2,0.5,0.3,0.8c-0.3,0.6-0.5,1.3-0.9,1.8
	c0.4,0.9-0.1,2.2,0.1,3.2c0.2,1.2,1.5,2.2,1.5,3.9c1.7,0.5,1.7,2.9,2.6,4.2c-0.1,2.1,1.1,3.2,0.8,5.3c0.6,1,0.7,2.4,1.6,3.1
	c1,0.8,3,3.2,2.6,2.3c-0.2-0.3-1.4-3.1-1.3-4.9c0-1.1,0.7-2.3,1.2-3.5c0.8-2.1,0.2-3.3,1.9-3.9c0,0,0.3,0,0.3-0.1
	c0-0.1-0.1-0.1-0.1-0.2c-0.9-2.3,1.3-4,1-5.7c-0.2-1-1-2.1-1.2-2.3c-0.2-0.2-0.8,0-1.7-0.1c-0.6-1.1-2-1.4-2-3.1
	c-0.5-0.4-1.3-0.5-1.3-1.4c-0.9,0.2-1.1-0.9-1.8-1.2c-0.5,0.1-0.8,0.4-1.1,0.7c-0.7-0.4-1.4-0.1-2.1,0.3c-0.4-0.1-0.6-0.3-0.9-0.5
	c0-1,0.3-1.8-0.3-2.4c0.2-0.8,0.6-1.5,0-2c-0.6-0.1-0.4,0.7-1.1,0.4c-0.5-1.2,1.2-2.1,1.1-3.5c0.7-0.2,1.5-0.1,2.2-0.3
	c0.4,0.2,0.4,1.3,0,1.5c0.1,0.2,0.2,0.3,0.4,0.3c0.7-0.5,0.4-1.3,0.6-2.1c0.3-0.7,1.3-1.3,1.8-2.1c0.2-0.2,0.1-0.6,0.2-0.8
	c0.1-0.1,0.4-0.1,0.6-0.3c0.1-0.1,0.1-0.5,0.2-0.5c0.5-0.4,1.5-0.7,2.2-1.1c0.4-0.2,0.7-0.5,1.4-0.6c0.4-0.7,0.2-2,1.2-2.1
	c-0.1,0.5,0,0.7-0.1,1.2c1.4-0.4,0.7-2.2,1.8-2.9c-0.3-1.3,0.6-1.7,1.1-2.5c-0.4-0.3-1.5-0.3-1-1.1c0.6-0.2,0.4,0.4,0.8,0.4
	c0.7-0.1,0.7-0.9,1.2-1.2c0.4-0.1,0.3,0.4,0.6,0.3c0.2-0.6,0.1-1.5,0.4-2.1c-1.3-0.2-1.2,1.9-2.8,1.8c-1.9,1.2-2.4,3.9-4.1,5.3
	c-0.1-0.8-0.6-1.7-0.5-2.3c0-0.4,0.6-1.4,1-1.7c0.3-0.3,0.9-0.2,1.2-0.4c0.6-0.4,0.8-1,1.3-1.2c2,0.1,2.6-1.2,3.6-2.5
	c-0.7-0.5-1.4,0.1-2,0.4c0.1-0.3-0.2-0.2-0.3-0.3c-0.4-0.3,0.4-0.6,0.1-0.9c-0.5,0.8-1.7,0.7-2.4,1.3c-0.2,0.4,0.2,1.2-0.5,1.2
	c-0.3-0.3,0.2-0.5,0.3-0.8c-0.8-0.7-1.7-0.7-2.6-0.1c0-0.4,0.5-0.3,0.4-0.8c-0.3-0.1-0.6-0.2-0.8-0.4c-0.6,0.3-1.1,1-1.8,0.8
	c0-0.1-0.5-0.3-0.8-0.5c-0.2,0.1-0.4,0.2-0.6,0.3c-0.1,0.5-0.3,1.2-0.2,1.6c-1.9-0.1-2.1,1.5-3.7,1.7c0.5,0.9,1.9-0.8,2.7,0
	c-1.2,1.7-2,3.8-3.8,4.9c-0.4,1.6-1.7,2.4-2.6,3.5c-0.2,1.8-0.5,3-1.1,4.2C68.4,67.5,68.5,68.4,69,68.8 M127.5,102
	c0.1,0.1,0.5,0.3,0.8,0.2c0.6-0.1,0.9-0.6,1.3-1c0.1-0.1,0.5-0.1,0.6-0.2c0.1-0.1,0-0.1,0.1-0.2c0.2-0.2,0.3-0.1,0.2-0.6
	C129.4,100.7,128.4,101.3,127.5,102 M105.7,61.2c0.5,0,0.4,0.6,0.9,0.8c0.4,0,0.4-0.5,1-0.4c0.2,0.5,0.4,1.1,1.1,1.2
	c0,0.4-0.2,0.5-0.3,0.8c-1-0.6-1.9,0.1-2.8-0.1C106.1,62.9,105.5,61.8,105.7,61.2 M111.3,61.4c0.2,0.3,0,1.1,0.2,1.4
	c0,0.4,0.7,0.1,0.9,0.3c0,0.6,0.1,1.3,0.1,2.2c-1,0.2-1.5-0.4-1.8-1.3C110,62.5,109.5,60.8,111.3,61.4 M95.7,60.1
	c0,0.5,0.8,0.3,1,0.6c0.1,0.8-0.3,1-0.7,1.3c-0.4-0.1-0.8-0.2-1.2-0.4c-0.8,0.7-0.9,2.2-0.1,2.9c0.5-0.2,1.6-0.4,2-0.1
	c0.2-0.3,0.2-0.7,0.2-1.1c1.1-0.3,1.8-1.7,3-1.6c0.9,0.1,1.5,1,2.1,1.7c0.1,0.4-0.2,0.5-0.1,0.9c0.4-0.1,0.6-0.5,0.8-0.8
	c-0.2-0.9-0.9-1.3-1.2-2.2c0.6,0.2,0.9,0.6,1.5,0.5c-0.3,1.6,1.3,1.6,1.2,2.6c0.6-0.2,0.3-1.4,1.3-1.2c0,0.8,0.3,1.3,0.8,1.6
	c0.6,0,0.6-0.5,1.3-0.4c0.4,0.4,0.1,1.4,0.2,2.2c-0.4,0.6-1.1,0.1-1.5,0.7c-0.6,0-0.7-0.5-1.2-0.7c-1.6,1-2.4-0.6-4.1-0.7
	c-0.3-0.4-0.2-1-0.6-1.2c-0.8,0.1-1.6,0.4-2.2-0.1c-0.8,0.5-2.2,0.7-3.2,0.5c-1.4,0.7-1.6,2.5-3.2,2.9c-0.3,1.7-2.7,4.4-1.4,6.2
	c0.3,0.4,0.7,0.5,0.9,1c0.2,0.5-0.1,1,0.3,1.5c1.3,0.9,4.1,1.2,5.6,0.2c1.2,0.4,2.1,0.2,3.5,0.4c-0.1,0.5,0.2,0.7,0.3,1.1
	c-0.2,0.4-0.5,0.7-0.5,1.1c-0.2,1.5,1.5,2,1.6,3.8c0.1,1.5-0.9,3.1-0.9,4.1c0,0.4,0.4,0.8,0.4,1.3c0.1,1.1-0.5,2.6,0.5,3.3
	c0.1,0.9,0.3,1.5,0.8,2.1c0.9-0.6,1.8-0.4,2.6-0.8c1.5-0.6,1.8-2.4,2.9-3.4c-0.3-2.7,2.5-3.5,2.3-5.8c0-0.5-0.4-0.8-0.5-1.4
	c1.1-2.6,3-4.4,4-7c-0.5-0.5-1.4,0.1-2.3-0.1c-1.9-1.6-2.7-4.4-3.7-6.9c0.9,0,1.2,1.2,1.1,1.8c0.7,1.3,1.7,2.4,2.2,4
	c1.3-0.3,3.7-1.1,3.9-2.4c0-0.2,0-1.1-0.1-1.3c-0.1-0.4-0.4-0.6-0.8-1c-0.2,0.3-0.3,0.6-0.7,0.6c-0.7-0.6-1.5-1.5-1.3-2.6
	c1-0.2,0.8,0.9,1.2,1.3c0.5,0.1,0.5-0.4,1.1-0.3c0.2,0.4,0.4,0.7,0.5,1.1c1.3-0.8,2.6-0.2,2.6,1.4c0.1,0.2,0.3,0.4,0.7,0.4
	c0.6,1.9,1.6,3.3,2.5,4.9c0.4-0.3,0.3-1,0.6-1.3c-0.9-1.5,0.5-2.9,1.3-3.9c0.6,0.3,0.7,1.2,1.5,1.3c0,0.2,0,0.4-0.1,0.5
	c0.2,0.2,0.5,0.3,0.9,0.3c0.2,1.1,0.2,2.4,1,2.9c-0.1,0.9,0.1,1.5,0.2,2.4c-0.3,0-0.3-0.2-0.6-0.2c0.5,1.6,0.7,3.4,1.7,4.4
	c0.4-1.7-0.6-2.6-1-4c0.6,0.2,0.5-0.9,0.4-1.2c-0.1-0.9-1.3-2.1-0.9-2.9c0.6,0,0.3,1,0.7,1.2c2.2-0.9,0-3-0.8-4
	c0.2-1.1,1.8-0.8,2.2-1.7c-0.1-1-0.3-1.1,0-1.9c-0.1-0.4-0.5-0.5-0.7-0.9c0.3-1.9-0.9-2.9-1.4-3.7c1-0.5,0.9,1.2,1.7,1.5
	c0.5-0.4,0-1.5-0.5-1.5c-0.1-1.4-1.1-3.4-1.4-5.3c-0.9-0.2-1.5-0.7-1.8-1.4c-1.3,0.2-1.4-0.9-2.1-1.4c-0.1-0.4,0.1-1.2-0.1-1.7
	c0.9,0.3,1.3,1.2,1.6,2.1c1,0.7,2.3,1.3,3.2,2.1c-0.1-0.4-0.7-1.2-1-1.8c-1.1-0.1-1.1-1.5-2.4-1.4c-0.3-0.5,0.4-1.5-0.2-2.3
	c-0.6-0.8,0.1-1.6,0-2c-0.1-0.7-1.2-0.6-2.1-1.3c-0.3-0.2-2.3-0.2-2.2-0.1c-0.5-0.1-0.7,0.7-1,0.7c-0.2-0.2-0.3-0.5-0.6-0.6
	c-0.7,0.2-1,0.8-1.4,1.3c-1-0.7-2.1-0.5-2.5,0.5c-1.2,0-2.2-1.1-3.2-0.3c-0.4-0.7-1.3-1.4-2.1-0.9c0,0.5,0.2,0.8,0.1,1.3
	c-0.2,0.2-0.5,0.3-0.9,0.2c-0.1,0.5-0.1,1.1-0.5,1.2c-0.2-0.2-0.2-0.1-0.1-0.4c-0.2-0.1-0.6,0.1-0.9-0.1c-0.2-0.4,0.5,0,0.3-0.4
	c-0.1-0.2-0.5-0.3-0.7-0.1c0.4,1.2-0.9,1.9-1.3,2.9c-0.3-0.6,0.2-1.1,0.4-1.5c-0.5-0.7-1.9-0.1-2.4-1c-2.5-0.2-1.9,2.7-3.5,3.5
	c0.2,0.2,0,0.7,0.2,0.9c0.6,0,0.8-0.4,1.4-0.4c0.3,0.3,0.2,1,0.5,1.2c0.2-0.1,0.4-0.3,0.9-0.2c-0.2-0.5-0.4-1.1-0.7-1.5
	c0.4-0.3,0.4-1,0.9-1.2c0.9,1,1.1,3.9-1,4.1c-0.3-0.5-0.6-0.5-1.1-1c-0.1,0.3-0.2,0.7-0.4,1c-0.8,0.2-1.6,0.5-1.9,1.2
	C96.7,59.1,96.4,60,95.7,60.1 M128.6,98.5c-0.3,0.1-0.4-0.1-0.7-0.1c-0.1,0.5-0.7,0.5-0.7,1.2C128.1,99.6,128.1,98.9,128.6,98.5
	 M65,90v-0.4c-0.3,0.1-0.4-0.3-0.5,0.1C64.7,89.8,64.6,90.1,65,90 M113.7,88.3c0,0.2-0.1,0.2-0.1,0.4c0.3,0,0.5,0,0.4-0.3
	C113.9,88.4,113.9,88.2,113.7,88.3 M126.9,90.5c-0.4,0.7-1,2-1.1,2.6c-0.2,1.1-0.3,0.5-0.3,1.7c1.1,0.5,1.1-0.4,2.4-0.2
	c1.1,0.7,0.8,2,0.5,3.1c1.4-0.2,1.9-1.2,2.7-1.8c1.1-1.1,3-3.8,2.2-6.2c0.7-1.2,0.7-3.3,0.3-3.3c0,0-0.6,1.8-1,2.3
	c0,0-0.4-0.6-0.9-0.6c0.2-0.7,0.8-0.9,0.4-1.8c-0.3,0-0.5,0.1-0.8,0.1c-0.8,1.5-1,1-2,1.4C129.3,89.2,127.8,89.7,126.9,90.5
	 M113.7,86.7c-0.3-0.5,0.1-1.6-0.5-1.6c-0.3,1.1-1.3,1.6-2.2,2.2c-0.1,1.4-0.5,2.6,0,3.8c1.1-0.9,1.7-2.3,1.9-4
	C113.2,86.9,113.6,87,113.7,86.7 M136.4,85c-0.3,0-0.2,0.2-0.5,0.1c0.2,0.5,0.1,0.8,0,1.3C136.4,86.1,136.1,85.6,136.4,85 M129.7,85
	v0.4c0.3,0.1,1.7,0.2,1.4-0.4C130.7,85.2,130.1,84.9,129.7,85 M130.3,84.8c0.3,0.1,0.4-0.2,0.7-0.2c0-0.3-0.3-0.3-0.4-0.5
	C130.4,84.2,130.2,84.4,130.3,84.8 M129.3,84.8c-0.6-0.5-1.2-1.8-2.2-1.3C127.3,84.5,128.3,84.9,129.3,84.8 M131.8,83.3
	c-0.1-0.1-0.2-0.2-0.4-0.2C131,83.4,131.9,83.9,131.8,83.3 M134.4,83.7c0.2,0.1,0.4,0.2,0.6,0.2c-0.2-0.5,0.1-1,0.1-2
	c-0.2,0-0.3-0.2-0.5-0.2C134.4,82.7,134.8,83,134.4,83.7 M132.7,85.4c0.6,0,0.4-0.8,1.1-0.8c0.4,0.2,0.2,1.1,0.7,1.2
	c0.3-1.1-0.6-2.2-0.4-3.8c-0.7-0.1-1.2-0.2-1.7-0.7C132.5,82.8,133.2,84,132.7,85.4 M134.5,81.4c-0.1-0.4-0.3-0.8-0.6-1
	C134,81,134,81.3,134.5,81.4 M131.8,81.9c-0.1-0.7,0.3-1.2-0.3-1.7c-0.3,0.6-0.1,1-0.2,1.6C131.5,81.7,131.5,82,131.8,81.9
	 M130.4,80c-0.9,0.6-0.9,2-1.1,3.4c0.5,0.1,0.7-0.2,1-0.3c-0.2-1.4,0.1-1.7,0.3-2.9C130.6,80.1,130.5,80,130.4,80 M128.8,82.3
	c0.2,0,0.2-0.1,0.4-0.1c-0.3-1.3,1-2.3,0.4-3.8h-0.3c-0.1,0.7-1,0.7-1.2,1.5C128,80.7,128.4,81.7,128.8,82.3 M121.5,76.3
	c0.1,0.5-0.5,1.1,0,1.3c0.3-0.2,0.4-0.5,0.5-0.9C121.8,76.8,121.9,76.3,121.5,76.3 M130.3,78c0.7,0,0.9-1.4,0.4-1.8
	C130.5,76.6,129.9,77.1,130.3,78 M129.2,73.1c0.1,1,0.5,2,1.1,2.8C130.4,75.1,130.5,73,129.2,73.1 M126.5,72.6h0.6
	c0.1-0.6-0.2-0.8-0.6-0.8C126.3,72,126.5,72.3,126.5,72.6 M75,71.8c-0.1,0.4,0.2,0.5,0.5,0.4C75.5,71.9,75.3,71.8,75,71.8 M76,72.2
	c0.5,0.2,0.6-0.2,1.2-0.2c0-0.6-0.6-0.8-1.1-0.5c-0.6-0.3-0.8-0.9-1.2-1.4c-0.4,0-0.8,0-1.1,0.2c0.6,0.1,1.1,0.4,1.3,1.2
	c0.3-0.1,0.6-0.2,0.8,0.1C75.8,71.8,75.8,72.1,76,72.2 M129,71.4c0.2-0.5-0.1-0.8,0.2-1.5c-0.3,0.1-0.2-0.2-0.4-0.2
	c-0.1,0.3-0.2,0.8-0.3,1.1C128.7,70.9,128.7,71.3,129,71.4 M107,65.4c0.1-0.4-0.4-0.4-0.5-0.2C106.5,65.6,106.8,65.5,107,65.4
	 M105.5,65c-0.4,0.1-0.7-0.3-1,0C104.7,65.1,105.4,65.4,105.5,65 M129.6,67.4c0.1-0.6-0.3-0.7-0.3-1.2c0.8-0.7,0.2-2-0.4-2.5
	C129.6,64.9,127.5,67,129.6,67.4 M128.3,62.5c-0.5-0.3,0.1-1-0.3-1.3c0,0.3-0.7-0.1-0.8,0.2C127.6,61.6,127.7,62.7,128.3,62.5
	 M95.2,57.9h-0.5c-0.1,0.2-0.2,0.6,0,0.8h0.4C95,58.2,95.5,58.2,95.2,57.9 M96.4,57.2c-0.1-0.3,0.4-0.8-0.1-0.9
	c-1.3,0.7,0.5,1.9-0.2,2.9c0.5-0.1,0.9-0.3,1.3-0.4C97.4,57.9,96.5,57.9,96.4,57.2 M93.9,53.2c-0.2,0.2-0.4,0.4-0.3,0.9
	c0.7,0.1,1.5,0.1,1.5-0.8C94.6,52.9,94.3,53.6,93.9,53.2 M105.4,51.2c0-0.4-0.1-0.5-0.4-0.5C105,50.9,105.1,51.2,105.4,51.2
	 M112.3,50.8c0.4,0.1,0.5-0.1,0.9-0.1v-0.4c-0.3,0-0.4,0.2-0.8,0.1C112.5,50.6,112.3,50.6,112.3,50.8 M89.3,49.7
	c-0.5-0.4-1-0.1-0.9,0.6C89,50.4,89,49.9,89.3,49.7 M111.3,50.1c0.7,0.1,1.1-0.2,1.3-0.6c-0.4-0.2-1,0.2-1.4,0.1
	C111.1,49.9,111.3,49.9,111.3,50.1 M87.1,49.2c-0.4,0.1-0.5,0.4-0.7,0.8C86.8,49.8,87.1,49.6,87.1,49.2 M86.7,48.9
	c0-0.2-0.1-0.3-0.2-0.3c0,0.2-0.4,0.1-0.4,0.3C86.2,49.1,86.5,49.1,86.7,48.9 M90,48.3c-0.3-0.1-0.9,0.4-0.9,1
	C89.7,49.2,90,48.9,90,48.3 M87.4,50.1c0.4,0,0.5-0.2,0.8-0.3c0.1-0.3-0.2-0.2-0.2-0.4c0.6-0.2,0.8-0.8,1.2-1.2
	c-0.8,0.1-1.1,0.7-1.6,1.1C87.9,49.5,87.4,49.9,87.4,50.1 M87.9,48.2c-0.4,0-0.6,0.3-0.8,0.5c0.2,0,0.2,0.2,0.3,0.2
	C87.5,48.6,88.1,48.5,87.9,48.2 M93.6,48.6c-1.2,0.3-2.7,0.2-2.7,1.6c0.3,0,0.6-0.3,0.8-0.1c-0.4,1-1.4,1.4-2.1,2.2
	c-0.1,1.3-1.5,1.9-1.1,3.4c0.9-0.2,1.2-1.1,2.3-1.2c0.3-1.9,3.2-1.2,4-2.6c0-0.3-0.5,0.1-0.3-0.3c0.4,0,0.4-0.3,0.9-0.2
	c0.4-1.1,1.5-1.6,1.7-2.8h-0.8c0-0.3,0.5-0.1,0.4-0.5C95.7,47.7,94.2,47.9,93.6,48.6 M90.6,49.6c0.8-1,2.7-0.9,3.4-2.1
	c-1.8,0.3-3,1-4.1,1.9C90,49.6,90.3,49.6,90.6,49.6 M127.1,42.3c-1.2-0.7-2.5,0.1-3.4,1.6c-1.1,1.8-0.6,2.9,0.4,3.5
	c1,0.6,2.4,0.3,3.5-1.6C128.4,44.2,128.2,42.9,127.1,42.3 M127.4,41.8c1.8,1,2.6,2.9,1.5,4.9c-1,1.7-3.1,2.3-5,1.2
	c-1.8-1-2.7-2.8-1.5-4.9C123.4,41.3,125.4,40.7,127.4,41.8 M120,39c-0.1-0.1-0.3-0.1-0.4-0.1c-0.3,0.9-0.7,1.7-1,2.6
	c0.6,0.2,1.4,0.4,1.9-0.8C120.9,39.7,120.5,39.2,120,39 M117.5,40.3c0.4-1,0.7-1.7,0.9-2.6c0.2,0.1,0.4,0.2,0.7,0.3
	c0.4,0.2,0.9,0.3,1.4,0.5c0.9,0.3,1.3,0.7,1.4,1c0.3,0.5,0.3,0.9,0.1,1.5c-0.5,1.4-1.8,1.6-3.1,1l-0.5-0.2c-0.4,0.9-0.7,1.8-1,2.8
	c-0.2-0.1-0.4-0.2-0.7-0.3c-0.3-0.1-0.6-0.2-0.8-0.2c0.4-0.8,0.7-1.5,1.1-2.5L117.5,40.3z M115.2,42.6c-0.2,0.2-0.3,0.5-0.4,0.8
	c-0.6,0.1-1.3,0.1-2-0.1c-2.2-0.6-3.2-2.3-2.7-4.1c0.7-2.6,2.7-3.2,4.7-2.7c0.7,0.2,1.5,0.6,1.8,1c-0.2,0.3-0.4,0.6-0.5,0.9l-0.1,0
	c-0.3-0.7-0.8-1.1-1.4-1.3c-1-0.3-2.4,0.3-2.9,2.4c-0.5,2,0.5,3,1.6,3.3c0.6,0.2,1.4,0,1.9-0.3L115.2,42.6z M107.2,37.9
	c0.2-1.1,0.2-1.8,0.3-2.7c0.2,0.1,0.5,0.1,0.8,0.2c0.3,0,0.6,0.1,0.8,0.1c-0.2,0.8-0.3,1.6-0.5,2.7l-0.2,1.3
	c-0.2,1.1-0.3,1.8-0.3,2.7c-0.2-0.1-0.5-0.1-0.8-0.2c-0.3,0-0.6-0.1-0.8-0.1c0.2-0.8,0.3-1.6,0.5-2.7L107.2,37.9z M93.6,40.7
	c-0.1,0.3-0.1,0.6-0.1,0.9c-0.5,0.4-1.1,0.6-1.9,0.8c-2.2,0.4-3.8-0.7-4.2-2.6c-0.5-2.7,1.1-4,3.1-4.4c0.7-0.1,1.6-0.1,2.1,0.1
	c-0.1,0.3-0.1,0.7,0,1l-0.1,0c-0.6-0.5-1.1-0.7-1.8-0.5c-1,0.2-2,1.3-1.7,3.4c0.4,2,1.7,2.6,2.8,2.3c0.6-0.1,1.3-0.5,1.6-1.1
	L93.6,40.7z M83.2,37.9c-0.2,0-0.3,0.1-0.4,0.1c0.3,0.9,0.5,1.8,0.8,2.6c0.6-0.2,1.4-0.6,1-1.8C84.3,37.9,83.7,37.7,83.2,37.9
	 M82,40.5c-0.3-1-0.6-1.8-0.9-2.6c0.2,0,0.5-0.1,0.8-0.2c0.4-0.1,0.9-0.3,1.4-0.5c0.9-0.3,1.4-0.3,1.7-0.1c0.5,0.2,0.8,0.5,1,1.1
	c0.5,1.4-0.4,2.3-1.8,2.8l-0.5,0.2c0.3,0.9,0.6,1.9,1,2.8c-0.2,0-0.5,0.1-0.8,0.2c-0.3,0.1-0.6,0.2-0.8,0.3
	c-0.2-0.8-0.4-1.6-0.8-2.6L82,40.5z M78.8,41.9c-0.4-1-0.8-1.7-1.1-2.5c0.2-0.1,0.5-0.1,0.8-0.3c0.3-0.1,0.5-0.3,0.7-0.4
	c0.3,0.8,0.6,1.5,1,2.5l0.5,1.2c0.4,1,0.7,1.7,1.1,2.5c-0.2,0.1-0.5,0.1-0.8,0.3c-0.3,0.1-0.5,0.3-0.7,0.4c-0.3-0.8-0.6-1.5-1-2.5
	L78.8,41.9z M72.7,42.4c-1.2,0.7-1.2,2.2-0.3,3.7c1.1,1.8,2.3,1.9,3.2,1.4c1-0.6,1.4-2,0.3-3.8C75.1,42.2,73.8,41.8,72.7,42.4
	 M72.4,41.9c1.8-1.1,3.8-0.9,5,1.1c1,1.7,0.4,3.8-1.4,4.9c-1.8,1.1-3.8,1-5-1.1C70,45.2,70.5,43.1,72.4,41.9 M122.4,113.7
	c-0.5-1.1-0.9-1.8-1.4-2.6c0.2-0.1,0.5-0.2,0.8-0.3c0.3-0.2,0.6-0.3,0.8-0.4c0.4,0.9,0.7,1.6,1.2,2.7l0.6,1.3c0.3,0.7,0.7,1.4,1,1.9
	c0.7-0.3,1.4-0.7,2.1-1.2c0,0.1,0.1,0.2,0.2,0.4c0.1,0.2,0.2,0.3,0.2,0.4c-0.3,0.2-0.8,0.3-1.7,0.8c-1.5,0.8-1.8,0.9-2,1
	c-0.4-0.9-0.7-1.6-1.2-2.7L122.4,113.7z M115.9,113.5c-1.4,0.4-1.7,2.1-1.2,3.8c0.7,2.1,1.9,2.6,3,2.2c1.2-0.4,1.9-1.7,1.3-3.9
	C118.4,113.9,117.2,113.1,115.9,113.5 M115.8,112.9c2.1-0.7,4.2,0,4.9,2.4c0.6,2-0.5,4.1-2.7,4.8c-2.1,0.7-4.2,0.1-4.9-2.4
	C112.4,115.7,113.4,113.6,115.8,112.9 M108.4,115.4c-0.2,0-0.3,0.1-0.4,0.1c0.1,1,0.3,2,0.4,2.9c0.7-0.1,1.5-0.4,1.3-1.8
	C109.5,115.6,109,115.3,108.4,115.4 M106.7,118c-0.2-1.2-0.3-2-0.5-2.9c0.2,0,0.5,0,0.9-0.1c0.5-0.1,1-0.2,1.5-0.3
	c1-0.2,1.5-0.1,1.9,0.1c0.5,0.3,0.8,0.7,0.9,1.3c0.2,1.6-0.8,2.4-2.3,2.6l-0.5,0.1c0.2,1,0.3,2.1,0.6,3.1c-0.2,0-0.5,0-0.9,0.1
	c-0.3,0.1-0.6,0.1-0.8,0.2c-0.1-0.9-0.2-1.7-0.4-2.9L106.7,118z M101.1,116c0,1,0,1.9,0.1,2.9c0.1,0,0.2,0,0.2,0
	c0.9,0,1.4-0.6,1.4-1.5C102.7,116.1,102.3,116,101.1,116 M101.3,119.3L101.3,119.3l-0.1,0.4c0,1.2,0.1,2,0.2,2.9c-0.2,0-0.5,0-0.9,0
	c-0.3,0-0.6,0.1-0.9,0.1c0-0.9,0-1.7,0-2.9l0-1.4c0-1.2-0.1-2-0.2-2.9c0.2,0,0.5,0,0.9,0c0.4,0,0.8-0.1,1.5-0.1c1.1,0,1.5,0,1.8,0.3
	c0.4,0.3,0.7,0.7,0.7,1.4c0,1-0.5,1.7-1.6,2c0.7,1.2,1.5,2.3,2.4,3.5c-0.3,0-0.6,0-0.9,0c-0.3,0-0.6,0.1-1,0.1L101.3,119.3z
	 M93.4,118c0.1-1.2,0.1-2,0.2-2.9c0.6,0.1,1.2,0.2,1.9,0.2c1,0.1,1.9,0.1,2.2,0.1c0,0.1-0.1,0.2-0.1,0.4c0,0.2,0,0.3,0,0.5
	c-0.8-0.1-2-0.3-2.4-0.3c-0.1,0.8-0.2,1.5-0.2,2.3c0.9,0.1,1.6,0.1,2.4,0.1c-0.1,0.2-0.1,0.3-0.1,0.5c0,0.1,0,0.2,0,0.4
	c-0.8-0.1-1.6-0.2-2.4-0.3c0,0.4-0.1,0.9-0.1,1.3c0,0.4-0.1,0.9-0.1,1.3c0.8,0.1,1.6,0.1,2.4,0.1c0,0.1-0.1,0.2-0.1,0.5s0,0.3,0,0.5
	c-0.4,0-0.9-0.1-1.8-0.2c-1.7-0.1-2-0.1-2.2-0.1c0.1-0.9,0.2-1.7,0.3-2.9L93.4,118z M88.4,115.9c0.1-0.4,0.2-0.8,0.2-0.9
	c-0.4-0.1-1.3-0.2-1.9-0.2c0.1-0.1,0.1-0.3,0.1-0.4c0-0.2,0-0.3,0-0.5c0.9,0.2,1.4,0.3,2.7,0.6c1.3,0.3,1.7,0.3,2.6,0.5
	c-0.1,0.2-0.1,0.3-0.1,0.4c0,0.2,0,0.3,0,0.5c-0.5-0.2-1.4-0.4-1.8-0.5c-0.1,0.1-0.1,0.5-0.2,0.9l-0.5,2.6c-0.2,1.2-0.4,2-0.5,2.9
	c-0.2-0.1-0.5-0.2-0.8-0.2c-0.3-0.1-0.6-0.1-0.9-0.1c0.2-0.9,0.4-1.7,0.7-2.8L88.4,115.9z M79.5,111.4c0.1,0.1,0.3,0.2,0.4,0.2
	c0.1,0.1,0.3,0.1,0.5,0.1c0.9,2.1,1.7,4.2,2.6,6.2c0.6-1.6,1.5-4.3,1.6-4.7c0.1,0.1,0.3,0.2,0.4,0.2c0.1,0.1,0.3,0.1,0.5,0.1
	c-1.2,2.8-1.7,4.1-2.6,6.8c-0.1-0.1-0.2-0.1-0.4-0.2c-0.1,0-0.3-0.1-0.4-0.1c-0.8-2.1-1.7-4.2-2.6-6.4c-0.3,0.7-0.6,1.6-0.8,2.3
	c-0.6,1.6-0.7,2.1-0.8,2.5c-0.1-0.1-0.3-0.2-0.4-0.2c-0.2-0.1-0.3-0.1-0.5-0.1c0.2-0.3,1.2-2.8,1.9-4.8
	C79.1,112.4,79.3,111.8,79.5,111.4 M74.6,112.2c0.5-1,0.9-1.8,1.3-2.6c0.2,0.1,0.4,0.3,0.7,0.4c0.3,0.2,0.6,0.3,0.8,0.3
	c-0.5,0.8-0.9,1.5-1.4,2.6l-0.7,1.3c-0.5,1-0.9,1.8-1.3,2.6c-0.2-0.1-0.4-0.3-0.7-0.4c-0.3-0.2-0.6-0.3-0.8-0.3
	c0.5-0.8,0.9-1.5,1.4-2.6L74.6,112.2z"/>
<path class="st0" d="M0.7,163.1c0-3.8-0.2-7.6-0.4-11.3c0.7,0.1,1.4,0.2,2.1,0.2s1.4-0.1,2.1-0.2c-0.2,3.8-0.3,7.6-0.3,11.3v7.5
	c0,3.8,0.2,7.6,0.3,11.3c-0.7-0.1-1.4-0.2-2.1-0.2s-1.4,0.1-2.1,0.2c0.2-3.8,0.4-7.6,0.4-11.3V163.1z"/>
<path class="st0" d="M37.9,182.5c-6.6-7.8-14.6-16.2-22.1-24.2c0,1.6-0.1,4.2-0.1,8.9c0,3.8,0.2,13,0.4,14.7c-0.5-0.1-1-0.2-1.5-0.2
	c-0.5,0-1.1,0.1-1.6,0.2c0.4-2.1,0.9-13.3,0.9-19c0-5.5,0-9.8-0.1-11.7h0.7c7.1,7.7,16.8,18.3,22.1,23.7c0-7.8,0-16.4-0.4-23.1
	c0.5,0.1,1,0.2,1.5,0.2c0.5,0,0.9-0.1,1.4-0.2c-0.3,2.6-0.7,11.2-0.7,14.6c0,4.5,0.1,14.1,0.1,16.1H37.9z"/>
<path class="st0" d="M53.9,163.1c0-3,0-6-0.1-9.1c-3,0-6.9,0.2-9.4,0.5c0.1-0.4,0.2-0.9,0.2-1.4c0-0.4-0.1-0.9-0.2-1.4
	c3.8,0.1,7.5,0.2,11.3,0.2c3.8,0,7.5-0.1,11.3-0.2c-0.1,0.5-0.2,0.9-0.2,1.4c0,0.4,0.1,0.9,0.2,1.4c-2.4-0.3-6.3-0.5-9.4-0.5
	c-0.1,3-0.1,6-0.1,9.1v7.5c0,3.8,0.2,7.6,0.4,11.3c-0.7-0.1-1.4-0.2-2.1-0.2c-0.7,0-1.4,0.1-2.1,0.2c0.2-3.8,0.4-7.6,0.4-11.3V163.1
	z"/>
<path class="st0" d="M72.6,163c0-3.8-0.2-7.6-0.4-11.3c2.6,0.1,5.2,0.2,7.8,0.2c2.6,0,5.2-0.1,7.8-0.2c-0.1,0.4-0.1,0.9-0.1,1.3
	c0,0.4,0,0.9,0.1,1.3c-3.7-0.3-5.8-0.6-11.5-0.6c0,1.9-0.2,3.4-0.2,5.6c0,2.3,0,4.7,0,5.8c5.2,0,8-0.2,10.6-0.4
	c-0.1,0.4-0.1,0.9-0.1,1.4c0,0.4,0,0.9,0.1,1.3c-3-0.3-8.5-0.4-10.6-0.4c0,1.1,0,2.1,0,6.3c0,3.3,0,5.5,0.1,6.6
	c3.9,0,9.1,0,11.8-0.6c-0.1,0.4-0.1,1-0.1,1.4c0,0.4,0,0.9,0.1,1.3c-2.6-0.1-5.2-0.2-7.9-0.2c-2.7,0-5.3,0.1-8,0.2
	c0.2-3.8,0.4-7.6,0.4-11.4V163z"/>
<path class="st0" d="M98.6,165.6c0.8,0.2,1.8,0.2,2.9,0.2c3.6,0,8.4-1.5,8.4-6.7c0-4.6-3.8-5.7-6.8-5.7c-2,0-3.3,0.1-4.2,0.2
	c-0.1,3.2-0.3,6.3-0.3,9.5V165.6z M95,163.1c0-3.8-0.2-7.6-0.4-11.3c1.7,0.1,3.3,0.2,5,0.2c1.7,0,3.3-0.2,5-0.2
	c4.9,0,9.1,1.7,9.1,6.9c0,5.6-5.6,7.9-9,8.4c2.1,2.7,9.4,12.1,12,14.9c-0.9-0.1-1.7-0.2-2.6-0.2c-0.8,0-1.7,0.1-2.5,0.2
	c-1.7-2.7-7.6-10.7-11.3-14.5h-1.7v3.2c0,3.8,0.2,7.6,0.4,11.3c-0.7-0.1-1.4-0.2-2.1-0.2c-0.7,0-1.4,0.1-2.1,0.2
	c0.2-3.8,0.4-7.6,0.4-11.3V163.1z"/>
<path class="st0" d="M125.8,166.3c0.9,0.2,2.1,0.4,3.1,0.4c3.6,0,8.2-1.4,8.2-7.3c0-5-2.8-6-7.3-6h-3.9V166.3z M122.2,163.1
	c0-3.8-0.2-7.6-0.4-11.3c1.4,0.1,2.8,0.2,4.2,0.2c1.4,0,4.2-0.2,5.4-0.2c2.6,0,9.6,0.1,9.6,7.4c0,7.7-7.6,9.2-11.8,9.2
	c-1.3,0-2.4,0-3.5-0.1v2.4c0,3.8,0.2,7.6,0.4,11.3c-0.7-0.1-1.4-0.2-2.1-0.2s-1.4,0.1-2.1,0.2c0.2-3.8,0.4-7.6,0.4-11.3V163.1z"/>
<path class="st0" d="M160.9,152.8c-6.8,0-12.1,4.3-12.1,14c0,9.7,5.2,14,12.1,14c6.9,0,12.1-4.3,12.1-14
	C173,157.1,167.7,152.8,160.9,152.8 M160.9,151.2c9.7,0,16.4,5.7,16.4,15.7c0,9.9-6.7,15.7-16.4,15.7c-9.6,0-16.4-5.7-16.4-15.7
	C144.5,156.9,151.3,151.2,160.9,151.2"/>
<path class="st0" d="M183.9,163.1c0-3.8-0.2-7.6-0.4-11.3c0.7,0.1,1.4,0.2,2.1,0.2s1.4-0.1,2.1-0.2c-0.2,3.8-0.4,7.6-0.4,11.3
	c0,7.3,0.1,12.5,0.1,16.8c4.1,0,7.7,0,12.1-0.6c-0.1,0.4-0.2,0.9-0.2,1.3c0,0.4,0.1,0.9,0.2,1.3c-2.7-0.1-5.4-0.2-8-0.2
	c-2.7,0-5.4,0.1-8.1,0.2c0.2-3.8,0.4-7.6,0.4-11.3V163.1z"/>
</svg>
