<svg width="115" height="115" viewBox="0 0 115 115" fill="none" xmlns="http://www.w3.org/2000/svg">
<path d="M60.6875 27.6641L59.9875 25.3741C59.9875 25.3741 48.2975 23.3011 32.5805 24.4101C16.8635 25.5191 0.978516 31.0391 0.978516 31.0391C0.978516 31.0391 33.4485 22.8671 60.6875 27.6641ZM95.7845 43.5501L96.9905 43.4771C96.9905 43.4771 90.0715 35.0891 76.8375 30.9911C84.2875 34.0281 90.7475 38.0291 95.7845 43.5501ZM61.1695 28.9891C61.1695 28.9891 51.8895 28.3621 36.0755 33.3281C19.9735 38.3431 10.8375 45.5021 10.8375 45.5021C10.8375 45.5021 34.8475 32.0991 61.9405 31.3281L61.1705 28.9901L61.1695 28.9891ZM114.009 86.9861C114.009 86.9861 115.479 70.1361 89.0115 66.2561C85.0744 65.6954 81.1043 65.3974 77.1275 65.3641C55.9145 65.6531 55.1435 40.8971 71.1255 39.6441C77.7535 39.0891 85.6605 42.6811 93.3985 46.2721C93.3745 47.2371 93.3985 48.0801 94.0495 48.8761C94.6755 49.6711 97.1105 50.5151 97.8815 50.9731C98.6535 51.4071 101.137 52.9981 102.655 54.9741C102.993 54.3481 105.741 52.5641 105.741 52.5641C105.741 52.5641 105.09 52.5881 103.547 52.0091C102.004 51.4311 100.197 49.6951 100.148 49.5991C100.1 49.5031 100.076 49.3341 100.438 49.2611C100.703 49.0211 100.1 48.2971 99.8105 48.0081C99.5455 47.7431 97.7135 44.6331 97.6655 44.5611C97.6165 44.4891 97.6165 44.4161 97.4725 44.3201C97.0625 44.2001 95.3025 44.5131 95.3025 44.5131C95.3025 44.5131 92.5785 43.1871 91.6625 40.3181C91.6865 40.8241 91.2045 41.3791 91.6625 42.5361C90.2405 41.9331 89.0355 40.9211 88.0715 38.3901C87.4925 39.8361 88.0715 40.7281 88.0715 40.7281C88.0715 40.7281 84.7445 39.7881 84.2145 36.7271C83.6355 38.1011 84.2145 38.9441 84.2145 38.9441C84.2145 38.9441 78.7905 36.1001 69.7505 36.0761C63.7005 35.5211 62.4475 24.8911 63.0015 23.1071C63.0015 23.1071 54.2995 18.5031 37.1365 16.4781C19.9735 14.4291 5.92052 16.1651 5.92052 16.1651C5.92052 16.1651 36.2925 14.7181 60.6395 24.5541C61.4595 28.2661 63.9655 34.4121 65.2915 37.3771C61.4585 40.0291 57.1195 42.5121 56.4685 51.3591C55.7945 60.2051 63.3875 67.9911 72.8365 68.2321C81.7795 68.7141 87.9745 68.7871 95.4715 72.6681C102.631 76.6211 108.489 88.6741 109.067 99.5211C109.694 91.4701 106.681 74.1621 92.5785 68.9071C112.273 72.3781 114.009 86.9861 114.009 86.9861ZM97.7615 47.0441C97.9545 46.7301 98.5565 48.0561 98.9905 48.6341C99.0145 48.7551 99.0395 48.8281 98.7735 48.7551C98.7495 48.6351 98.7255 48.6111 98.7255 48.6111C98.7255 48.6111 98.0985 48.2251 97.8815 47.9601C97.6895 47.6951 97.6655 47.2131 97.7615 47.0441Z" fill="white"/>
</svg>
