<?xml version="1.0" encoding="utf-8"?>
<svg version="1.0" id="Layer_1" xmlns="http://www.w3.org/2000/svg" xmlns:xlink="http://www.w3.org/1999/xlink" x="0px" y="0px" viewBox="0 0 595.275 841.89" enable-background="new 0 0 595.275 841.89"
	 xml:space="preserve">
<g>
	<g>
		<g>
			<g>
				<g>
					
						<linearGradient id="SVGID_1_" gradientUnits="userSpaceOnUse" x1="231.4526" y1="603.7051" x2="494.0557" y2="603.7051" gradientTransform="matrix(1 -0.0058 0.0058 1 -3.8125 2.5249)">
						<stop  offset="0" style="stop-color:#FFFFFF"/>
						<stop  offset="1" style="stop-color:#E4E5E6"/>
					</linearGradient>
					<polygon fill="url(#SVGID_1_)" points="193.27,544.42 193.973,665.787 299.432,725.862 404.188,664.57 403.484,543.203 
						298.026,483.128 					"/>
					<polygon fill="#FFFFFF" points="205.214,551.224 205.837,658.846 299.352,712.117 392.243,657.767 391.62,550.145 
						298.105,496.873 					"/>
					
						<polygon fill="none" stroke="#504BE5" stroke-width="3" stroke-linecap="round" stroke-linejoin="round" stroke-miterlimit="10" points="
						205.214,551.224 205.837,658.846 299.352,712.117 392.243,657.767 391.62,550.145 298.105,496.873 					"/>
				</g>
			</g>
		</g>
	</g>
	<g>
		<path fill="#3B2EA8" d="M359.203,630.825c-0.789-1.349-2.057-2.31-3.566-2.704c-1.514-0.396-3.088-0.18-4.436,0.609
			c-1.349,0.789-2.309,2.057-2.705,3.567c-0.395,1.512-0.179,3.087,0.611,4.436c0.789,1.349,2.055,2.309,3.567,2.704
			c0.506,0.132,1.014,0.193,1.514,0.19c2.582-0.015,4.94-1.754,5.625-4.368C360.209,633.749,359.992,632.174,359.203,630.825z"/>
		<path fill="#3B2EA8" d="M344.192,610.981c-1.357-0.773-2.935-0.972-4.442-0.559c-1.506,0.413-2.762,1.389-3.535,2.746
			s-0.971,2.935-0.559,4.441c0.413,1.507,1.388,2.762,2.746,3.535c0.904,0.515,1.905,0.775,2.919,0.77
			c0.509-0.003,1.02-0.073,1.522-0.211c1.508-0.412,2.763-1.388,3.536-2.745s0.971-2.935,0.559-4.441
			C346.525,613.011,345.551,611.755,344.192,610.981z"/>
		<path fill="none" stroke="#133864" stroke-width="3" stroke-linecap="round" stroke-linejoin="round" stroke-miterlimit="10" d="
			M308.46,623.952"/>
		<path fill="none" stroke="#133864" stroke-width="3" stroke-linecap="round" stroke-linejoin="round" stroke-miterlimit="10" d="
			M308.46,623.952"/>
		<path fill="none" stroke="#133864" stroke-width="3" stroke-linecap="round" stroke-linejoin="round" stroke-miterlimit="10" d="
			M308.46,623.952"/>
		<path fill="#3B2EA8" d="M343.631,660.845c-1.513-0.395-3.088-0.179-4.436,0.61s-2.309,2.057-2.705,3.567
			c-0.395,1.512-0.179,3.087,0.611,4.436c0.789,1.349,2.056,2.309,3.567,2.704c0.506,0.132,1.014,0.193,1.514,0.19
			c2.582-0.015,4.941-1.754,5.626-4.368C348.624,664.865,346.75,661.662,343.631,660.845z M345.193,667.3
			c-0.213,0.813-0.73,1.495-1.455,1.919c-0.726,0.423-1.572,0.541-2.385,0.328h-0.001c-0.813-0.213-1.494-0.729-1.919-1.454
			c-0.425-0.726-0.541-1.572-0.328-2.385c0.213-0.813,0.73-1.496,1.455-1.92c0.483-0.282,1.02-0.429,1.565-0.432
			c0.272-0.002,0.548,0.032,0.819,0.104C344.624,663.899,345.632,665.622,345.193,667.3z"/>
		<path fill="#3B2EA8" d="M255.721,672.854c-2.583,0.015-4.96-1.697-5.676-4.303c-0.412-1.507-0.215-3.084,0.56-4.441
			c0.773-1.357,2.028-2.333,3.535-2.746c1.508-0.412,3.084-0.215,4.442,0.559c1.357,0.773,2.333,2.029,2.746,3.536
			c0.413,1.507,0.214,3.084-0.56,4.441s-2.029,2.333-3.536,2.745C256.728,672.783,256.221,672.851,255.721,672.854z
			 M255.673,663.856c-0.273,0.002-0.548,0.039-0.818,0.114c-0.811,0.222-1.486,0.746-1.902,1.477
			c-0.417,0.729-0.523,1.579-0.3,2.389c0.222,0.811,0.747,1.486,1.477,1.901c0.729,0.415,1.576,0.523,2.389,0.301h0.001
			c1.672-0.458,2.66-2.192,2.202-3.866c-0.222-0.81-0.747-1.485-1.477-1.901C256.757,663.994,256.219,663.854,255.673,663.856z"/>
		<path fill="none" stroke="#504BE5" stroke-width="3" stroke-linecap="round" stroke-linejoin="round" stroke-miterlimit="10" d="
			M269.929,579.455"/>
		<path fill="none" stroke="#504BE5" stroke-width="3" stroke-linecap="round" stroke-linejoin="round" stroke-miterlimit="10" d="
			M326.895,579.125"/>
		<path fill="#504BE4" d="M270.367,567.151c-0.746,0.005-1.355-0.597-1.359-1.343c-0.081-13.945,13.074-25.366,29.323-25.46
			c0.746-0.005,1.355,0.597,1.359,1.343s-0.598,1.355-1.344,1.359c-14.759,0.086-26.708,10.287-26.636,22.742
			C271.715,566.538,271.113,567.147,270.367,567.151z"/>
		<path fill="none" stroke="#504BE5" stroke-width="3" stroke-linecap="round" stroke-linejoin="round" stroke-miterlimit="10" d="
			M322.538,577.989"/>
		<g>
			<path fill="#3B2EA8" d="M243.327,640.271c-1.013,0.006-2.015-0.254-2.919-0.769c-1.358-0.773-2.333-2.028-2.746-3.535
				c-0.413-1.507-0.215-3.084,0.559-4.441c0.773-1.358,2.029-2.334,3.536-2.746c1.504-0.414,3.084-0.215,4.441,0.558
				c1.357,0.773,2.333,2.03,2.746,3.536c0.413,1.508,0.214,3.085-0.56,4.442c-0.773,1.357-2.029,2.332-3.536,2.745
				C244.345,640.199,243.834,640.269,243.327,640.271z M243.29,631.273c-0.272,0.001-0.548,0.039-0.818,0.113
				c-0.811,0.223-1.486,0.746-1.902,1.478c-0.417,0.729-0.523,1.578-0.3,2.389c0.222,0.811,0.747,1.485,1.477,1.901
				c0.729,0.414,1.576,0.522,2.388,0.3h0.001c1.673-0.457,2.66-2.191,2.202-3.865c-0.222-0.81-0.747-1.486-1.477-1.901
				C244.374,631.41,243.835,631.271,243.29,631.273z"/>
		</g>
		<path fill="#504BE4" d="M317.673,600.447c-1.396,0.008-2.768-0.281-4.013-0.856c-2.023-0.937-3.472-2.55-3.976-4.425
			c-0.366-1.368-0.726-3.406,0.385-5.306c1.035-1.772,3.131-3.041,6.404-3.879c7.994-2.046,9.417,0.724,10.446,4.558
			c0.504,1.877,0.048,4.002-1.25,5.831c-1.281,1.807-3.215,3.132-5.445,3.73C319.381,600.327,318.522,600.442,317.673,600.447z
			 M321.018,587.959c-0.936,0.005-2.183,0.207-3.874,0.64c-2.503,0.642-4.098,1.524-4.741,2.625
			c-0.463,0.793-0.496,1.792-0.106,3.241c0.295,1.101,1.206,2.074,2.499,2.672c1.43,0.662,3.11,0.786,4.729,0.353
			c1.601-0.429,3.036-1.406,3.941-2.683c0.83-1.171,1.138-2.471,0.844-3.565C323.771,589.232,323.425,587.945,321.018,587.959z"/>
		<path fill="#504BE4" d="M279.397,600.668c-0.85,0.006-1.71-0.1-2.557-0.316c-2.236-0.573-4.186-1.875-5.487-3.667
			c-1.319-1.814-1.799-3.934-1.317-5.815c0.985-3.847,2.373-6.636,10.392-4.68c3.285,0.8,5.395,2.045,6.45,3.805
			c1.133,1.887,0.797,3.93,0.446,5.301c-0.482,1.882-1.912,3.512-3.924,4.471C282.16,600.356,280.792,600.66,279.397,600.668z
			 M275.908,588.22c-2.408,0.015-2.739,1.306-3.254,3.32c-0.281,1.099,0.041,2.395,0.885,3.556c0.919,1.266,2.367,2.227,3.972,2.638
			c1.625,0.415,3.303,0.271,4.726-0.408c1.286-0.612,2.186-1.597,2.468-2.701c0.373-1.453,0.328-2.452-0.145-3.239
			c-0.656-1.093-2.262-1.958-4.772-2.569C278.091,588.401,276.843,588.215,275.908,588.22z"/>
		<path fill="#3B2EA8" d="M322.583,662.492c-3.145-0.715-6.284,1.27-6.993,4.416c-0.712,3.146,1.271,6.283,4.416,6.994
			c0.443,0.1,0.886,0.146,1.321,0.145c2.66-0.016,5.063-1.859,5.673-4.562C327.71,666.34,325.729,663.202,322.583,662.492z"/>
		<path fill="#504BE4" d="M316.796,646.632l-0.094-16.216c-0.002-0.413-0.193-0.802-0.519-1.057l-11.349-8.87
			c-0.409-0.317-0.965-0.373-1.428-0.148c-0.465,0.229-0.759,0.703-0.756,1.222l0.192,33.29c0.003,0.413,0.194,0.803,0.521,1.057
			l12.615,9.848c0.388-0.845,0.966-1.566,1.668-2.126l-12.104-9.449l-0.173-29.844l8.633,6.748l0.095,16.252
			c0.002,0.434,0.212,0.839,0.564,1.091l22.104,15.804c0.355-0.847,0.897-1.59,1.596-2.182L316.796,646.632z"/>
		<path fill="#3B2EA8" d="M279.345,663.375c-1.356-0.774-2.935-0.972-4.442-0.56c-3.109,0.853-4.946,4.077-4.094,7.188
			c0.715,2.605,3.095,4.318,5.678,4.303c0.499-0.003,1.006-0.07,1.509-0.208h0.001c1.507-0.413,2.762-1.389,3.535-2.746
			c0.774-1.357,0.972-2.935,0.559-4.441C281.678,665.403,280.703,664.148,279.345,663.375z"/>
		<path fill="#3B2EA8" d="M257.435,610.899c-1.513-0.396-3.088-0.179-4.435,0.61c-1.349,0.788-2.309,2.056-2.705,3.567
			c-0.395,1.512-0.178,3.086,0.611,4.435s2.057,2.31,3.566,2.704c0.507,0.133,1.015,0.194,1.515,0.191
			c2.582-0.016,4.94-1.754,5.625-4.368c0.396-1.512,0.179-3.086-0.61-4.435C260.213,612.256,258.946,611.295,257.435,610.899z"/>
		<path fill="#504BE4" d="M293.736,620.397c-0.465-0.224-1.021-0.158-1.426,0.164l-11.245,9.001
			c-0.322,0.259-0.509,0.649-0.507,1.063l0.094,16.21l-21.456,15.495c0.737,0.552,1.329,1.261,1.733,2.082l21.869-15.794
			c0.354-0.256,0.563-0.667,0.56-1.104l-0.094-16.252l8.555-6.847l0.172,29.844l-11.971,9.57c0.728,0.56,1.309,1.273,1.702,2.099
			l12.468-9.967c0.323-0.258,0.51-0.65,0.508-1.063l-0.193-33.29C294.502,621.091,294.203,620.62,293.736,620.397z"/>
		<path fill="#504BE4" d="M349.107,636.733c-0.088-0.149-0.165-0.302-0.238-0.456l-11.412,9.281l-11.789-7.757l-0.946-6.161
			l13.073-10.898c-0.737-0.549-1.33-1.254-1.734-2.072l-11.818,9.853l-2.516-16.374c-0.171-1.356,4.159-6.551,6.745-9.655
			c4.038-4.847,6.521-7.92,6.644-9.937c0.147-2.43-1.911-5.318-3.902-8.112c-1.308-1.838-2.792-3.921-2.879-4.971
			c-0.001-0.017-0.007-0.031-0.009-0.048c3.13-4.593,4.77-9.823,4.738-15.168c-0.095-16.418-15.756-29.684-34.91-29.573
			c-19.155,0.111-34.661,13.558-34.566,29.976c0.031,5.344,1.731,10.556,4.914,15.112c-0.002,0.017-0.007,0.031-0.008,0.048
			c-0.075,1.051-1.535,3.15-2.822,5.003c-1.958,2.817-3.983,5.729-3.807,8.158c0.146,2.015,2.664,5.059,6.758,9.858
			c2.622,3.074,7.011,8.218,6.85,9.616l-2.319,16.361l-11.935-9.717c-0.404,0.838-0.993,1.551-1.705,2.097l13.197,10.745
			l-0.875,6.172l-11.699,7.892l-11.519-9.148c-0.071,0.155-0.147,0.309-0.232,0.459c-0.372,0.653-0.859,1.216-1.429,1.672
			l12.275,9.749c0.248,0.196,0.547,0.295,0.848,0.294c0.26-0.002,0.521-0.078,0.748-0.231l13.018-8.781
			c0.316-0.214,0.528-0.552,0.582-0.931l3.715-26.21c0.419-2.405-2.563-6.048-7.463-11.792c-2.544-2.982-6.029-7.068-6.118-8.3
			c-0.107-1.475,1.798-4.217,3.33-6.42c1.22-1.756,2.317-3.338,2.889-4.754c0.106,0.026,0.216,0.045,0.329,0.044
			c0.069,0,0.14-0.006,0.21-0.018c0.013-0.003,1.299-0.206,3.264-0.087c0.735,0.031,1.385-0.521,1.431-1.268
			c0.045-0.744-0.522-1.385-1.267-1.431c-1.737-0.104-3.024,0.012-3.575,0.078c-0.04-0.095-0.088-0.187-0.151-0.273
			c-3.066-4.206-4.702-9.053-4.73-14.014c-0.086-14.928,14.215-27.154,31.879-27.257s32.105,11.958,32.192,26.886
			c0.028,4.962-1.551,9.826-4.567,14.068c-0.063,0.087-0.109,0.18-0.148,0.274c-0.552-0.061-1.84-0.16-3.576-0.037
			c-0.743,0.055-1.304,0.702-1.25,1.446c0.054,0.745,0.707,1.289,1.445,1.25c1.956-0.141,3.242,0.046,3.264,0.049
			c0.072,0.012,0.145,0.017,0.215,0.016c0.112-0.001,0.22-0.02,0.325-0.047c0.589,1.409,1.704,2.979,2.944,4.72
			c1.557,2.185,3.494,4.904,3.403,6.38c-0.074,1.233-3.512,5.358-6.021,8.371c-4.833,5.8-7.772,9.477-7.333,11.834l4.025,26.208
			c0.059,0.378,0.274,0.714,0.594,0.925l13.118,8.629c0.229,0.151,0.49,0.225,0.751,0.223c0.301-0.001,0.6-0.104,0.845-0.303
			l12.161-9.891C349.98,637.939,349.487,637.383,349.107,636.733z"/>
	</g>
</g>
<g>
	<g>
		<g>
			<g>
				<linearGradient id="SVGID_2_" gradientUnits="userSpaceOnUse" x1="337.0723" y1="421.978" x2="600.5482" y2="421.978">
					<stop  offset="0" style="stop-color:#FFFFFF"/>
					<stop  offset="1" style="stop-color:#E5E6E7"/>
				</linearGradient>
				<polygon fill="url(#SVGID_2_)" points="299.428,361.093 299.428,482.863 404.886,543.748 510.342,482.863 510.342,361.093 
					404.885,300.208 				"/>
				<polygon fill="#FFFFFF" points="311.371,367.989 311.371,475.968 404.886,529.957 498.398,475.968 498.398,367.988 
					404.885,313.999 				"/>
				
					<polygon fill="none" stroke="#05B9B2" stroke-width="3" stroke-linecap="round" stroke-linejoin="round" stroke-miterlimit="10" points="
					311.371,367.989 311.371,475.968 404.886,529.957 498.398,475.968 498.398,367.988 404.885,313.999 				"/>
			</g>
		</g>
	</g>
	<g>
		<path fill="#008683" d="M448.76,461.313c-3.139,0-5.693,2.554-5.693,5.692s2.555,5.692,5.693,5.692s5.692-2.554,5.692-5.692
			S451.898,461.313,448.76,461.313z"/>
		<path fill="#008683" d="M448.153,381.225c-3.139,0-5.693-2.554-5.693-5.693s2.555-5.693,5.693-5.693s5.692,2.554,5.692,5.693
			S451.292,381.225,448.153,381.225z M448.153,372.539c-1.65,0-2.993,1.342-2.993,2.993c0,1.651,1.343,2.993,2.993,2.993
			s2.992-1.342,2.992-2.993C451.146,373.881,449.804,372.539,448.153,372.539z"/>
		<path fill="#008683" d="M361.811,369.882c-3.139,0-5.692,2.554-5.692,5.692c0,3.139,2.554,5.693,5.692,5.693
			s5.693-2.554,5.693-5.693C367.504,372.437,364.949,369.882,361.811,369.882z"/>
		<path fill="none" stroke="#05B9B2" stroke-width="3" stroke-linecap="round" stroke-linejoin="round" stroke-miterlimit="10" d="
			M413.446,426.092"/>
		<path fill="none" stroke="#05B9B2" stroke-width="3" stroke-linecap="round" stroke-linejoin="round" stroke-miterlimit="10" d="
			M396.306,426.092"/>
		<path fill="#008683" d="M405.59,445.729l2.876-3.717c0.21-0.272,0.247-0.64,0.096-0.948c-0.15-0.309-0.464-0.503-0.808-0.503
			h-5.756c-0.344,0-0.656,0.194-0.808,0.503s-0.114,0.676,0.096,0.948l2.877,3.717l-2.877,3.718
			c-0.21,0.271-0.247,0.639-0.096,0.947s0.464,0.504,0.808,0.504h5.756c0.344,0,0.657-0.195,0.808-0.504
			c0.151-0.309,0.114-0.676-0.096-0.947L405.59,445.729z M405.92,442.36l-1.043,1.349l-1.045-1.349H405.92z M403.832,449.097
			l1.045-1.348l1.043,1.348H403.832z"/>
		<path fill="#00BEB4" d="M449.633,440.852l-16.79-16.788c-0.253-0.253-0.597-0.396-0.954-0.396H416.36
			c0.411-1.078,0.669-2.211,0.76-3.379h14.175c0.358,0,0.702-0.143,0.955-0.396l16.789-16.789c0.253-0.253,0.396-0.597,0.396-0.955
			v-20.893c0-0.061-0.01-0.12-0.018-0.178c-0.407,0.093-0.829,0.146-1.264,0.146c-0.483,0-0.949-0.067-1.397-0.181
			c-0.011,0.07-0.021,0.14-0.021,0.213v20.334l-15.998,15.998h-13.709c-0.075-0.529-0.182-1.046-0.321-1.551l15.171-15.172
			c0.253-0.253,0.396-0.597,0.396-0.955v-24.724c0-0.358-0.143-0.702-0.396-0.955l-15.11-15.11c-0.527-0.527-1.382-0.527-1.909,0
			s-0.527,1.382,0,1.909l14.715,14.715v23.606l-13.975,13.976c-1.147-2.049-2.861-3.738-4.933-4.849l1.372-2.199
			c0.198-0.316,0.18-0.722-0.047-1.021l-2.984-3.933c-0.302-0.395-0.865-0.475-1.262-0.173c-0.396,0.3-0.474,0.866-0.173,1.261
			l2.61,3.439l-1.185,1.897c-1.29-0.461-2.674-0.726-4.12-0.726c-1.403,0-2.747,0.248-4.004,0.683l-1.183-1.858l2.607-3.435
			c0.301-0.396,0.224-0.961-0.173-1.261c-0.396-0.3-0.96-0.223-1.262,0.173l-2.984,3.933c-0.229,0.3-0.245,0.709-0.043,1.028
			l1.361,2.139c-2.094,1.097-3.831,2.779-4.998,4.829l-13.902-13.903v-23.606l14.715-14.715c0.527-0.527,0.527-1.381,0-1.909
			s-1.382-0.527-1.909,0l-15.11,15.11c-0.254,0.253-0.396,0.597-0.396,0.955v24.724c0,0.358,0.142,0.702,0.396,0.955l15.078,15.079
			c-0.152,0.534-0.266,1.083-0.346,1.644h-13.592l-15.998-15.998v-20.334c0-0.05-0.01-0.098-0.015-0.147
			c-0.422,0.1-0.858,0.158-1.31,0.158c-0.47,0-0.923-0.063-1.359-0.171c-0.007,0.053-0.017,0.105-0.017,0.16v20.893
			c0,0.358,0.143,0.701,0.396,0.955l16.789,16.789c0.253,0.253,0.597,0.396,0.954,0.396h14.059c0.091,1.168,0.349,2.301,0.76,3.379
			H377.98c-0.357,0-0.701,0.143-0.955,0.396l-16.789,16.788c-0.253,0.254-0.396,0.598-0.396,0.955v20.204
			c0.378-0.079,0.769-0.122,1.169-0.122c0.531,0,1.043,0.079,1.531,0.216v-19.739l15.998-15.997h14.893
			c-2.053,1.563-3.738,3.52-4.99,5.723c-0.041,0.032-0.091,0.048-0.128,0.085l-10.915,10.915c-0.253,0.253-0.396,0.597-0.396,0.954
			v24.725c0,0.358,0.143,0.702,0.396,0.955l15.11,15.109c0.264,0.264,0.609,0.396,0.955,0.396c0.345,0,0.69-0.132,0.954-0.396
			c0.527-0.527,0.527-1.382,0-1.909l-14.715-14.714v-23.606l6.571-6.572c-0.202,1.107-0.31,2.239-0.31,3.387
			c0,10.429,8.483,18.912,18.912,18.912c10.427,0,18.91-8.483,18.91-18.912c0-1.195-0.114-2.375-0.333-3.526l6.712,6.712v23.606
			l-14.715,14.714c-0.527,0.527-0.527,1.382,0,1.909c0.264,0.264,0.608,0.396,0.954,0.396s0.69-0.132,0.955-0.396l15.11-15.109
			c0.253-0.253,0.396-0.597,0.396-0.955v-24.725c0-0.357-0.143-0.701-0.396-0.954l-10.915-10.915
			c-0.094-0.094-0.207-0.15-0.317-0.211c-1.244-2.151-2.904-4.063-4.918-5.597h15.01l15.998,15.997v19.138
			c0.458-0.12,0.937-0.189,1.432-0.189c0.437,0,0.859,0.054,1.269,0.147v-19.654C450.028,441.449,449.886,441.105,449.633,440.852z
			 M421.088,441.419c0,8.939-7.272,16.212-16.211,16.212c-8.94,0-16.212-7.272-16.212-16.212c0-5.858,3.181-11.28,8.301-14.148
			c0.345-0.193,0.589-0.528,0.665-0.916c0.076-0.389-0.021-0.79-0.267-1.101c-1.351-1.705-2.066-3.748-2.073-5.912
			c0.041-0.128,0.068-0.262,0.068-0.403c0-0.103-0.014-0.202-0.035-0.298c0.346-4.974,4.492-8.917,9.553-8.917
			c5.285,0,9.585,4.301,9.585,9.586c0,2.175-0.717,4.23-2.074,5.943c-0.245,0.311-0.343,0.712-0.267,1.101
			c0.077,0.388,0.32,0.723,0.665,0.916C417.906,430.139,421.088,435.561,421.088,441.419z"/>
		<path fill="#008683" d="M361.01,473.274c-3.139,0-5.692-2.555-5.692-5.692c0-3.139,2.554-5.693,5.692-5.693
			s5.693,2.555,5.693,5.693C366.703,470.72,364.148,473.274,361.01,473.274z M361.01,464.589c-1.65,0-2.992,1.342-2.992,2.993
			c0,1.65,1.342,2.992,2.992,2.992c1.651,0,2.993-1.342,2.993-2.992C364.003,465.931,362.661,464.589,361.01,464.589z"/>
	</g>
</g>
<g>
	<g>
		<g>
			<g>
				
					<linearGradient id="SVGID_3_" gradientUnits="userSpaceOnUse" x1="314.3594" y1="272.3018" x2="172.2941" y2="-13.7616" gradientTransform="matrix(1 -1.000000e-004 1.000000e-004 1 0.1719 -0.1694)">
					<stop  offset="0" style="stop-color:#FFFFFF"/>
					<stop  offset="1" style="stop-color:#E5E6E7"/>
				</linearGradient>
				<polygon fill="url(#SVGID_3_)" points="192.267,177.343 192.276,299.114 297.738,359.992 403.19,299.098 403.181,177.327 
					297.719,116.449 				"/>
				<polygon fill="#FFFFFF" points="204.211,184.237 204.219,292.218 297.737,346.201 391.246,292.204 391.238,184.223 
					297.72,130.24 				"/>
				
					<polygon fill="none" stroke="#369846" stroke-width="3" stroke-linecap="round" stroke-linejoin="round" stroke-miterlimit="10" points="
					204.211,184.237 204.219,292.218 297.737,346.201 391.246,292.204 391.238,184.223 297.72,130.24 				"/>
			</g>
		</g>
	</g>
	<g>
		<path fill="#206B35" d="M293.779,230.576"/>
		<polyline fill="#206B35" points="278.116,224.641 279.229,230.633 291.53,226.974 278.116,224.641 		"/>
		<polygon fill="#206B35" points="290.994,215.787 286.355,218.288 297.175,225.384 		"/>
		<polyline fill="#206B35" points="299.885,223.697 310.925,221.169 307.851,217.452 299.885,223.697 310.925,221.169 		"/>
		<path fill="#009C1A" d="M290.344,214.672c-2.863,0-5.192-2.329-5.192-5.191s2.329-5.191,5.192-5.191
			c2.862,0,5.191,2.329,5.191,5.191S293.207,214.672,290.344,214.672z M290.344,206.99c-1.374,0-2.492,1.118-2.492,2.491
			s1.118,2.492,2.492,2.492s2.492-1.118,2.492-2.492S291.718,206.99,290.344,206.99z"/>
		<path fill="#009C1A" d="M277.555,257.105c-2.863,0-5.191-2.329-5.191-5.192c0-2.862,2.329-5.191,5.191-5.191
			c2.862,0,5.191,2.329,5.191,5.191C282.746,254.776,280.417,257.105,277.555,257.105z M277.555,249.421
			c-1.374,0-2.492,1.118-2.492,2.492c0,1.374,1.118,2.492,2.492,2.492s2.492-1.118,2.492-2.492
			C280.046,250.54,278.928,249.421,277.555,249.421z"/>
		<path fill="#009C1A" d="M332.602,225.777c-2.863,0-5.192-2.329-5.192-5.191c0-2.863,2.329-5.192,5.192-5.192
			c2.862,0,5.191,2.329,5.191,5.192C337.793,223.448,335.464,225.777,332.602,225.777z M332.602,218.094
			c-1.374,0-2.492,1.118-2.492,2.492c0,1.374,1.118,2.491,2.492,2.491c1.373,0,2.491-1.118,2.491-2.491
			C335.093,219.211,333.975,218.094,332.602,218.094z"/>
		<path fill="#009C1A" d="M303.461,291.061c-2.862,0-5.192-2.329-5.192-5.191c0-2.863,2.33-5.192,5.192-5.192
			s5.191,2.329,5.191,5.192C308.652,288.731,306.323,291.061,303.461,291.061z M303.461,283.377c-1.374,0-2.492,1.118-2.492,2.492
			c0,1.374,1.118,2.491,2.492,2.491c1.373,0,2.491-1.118,2.491-2.491C305.952,284.495,304.834,283.377,303.461,283.377z"/>
		<path fill="#009C1A" d="M311.473,185.495c-2.862,0-5.191-2.329-5.191-5.191s2.329-5.191,5.191-5.191s5.191,2.329,5.191,5.191
			S314.335,185.495,311.473,185.495z M311.473,177.813c-1.374,0-2.491,1.118-2.491,2.491s1.117,2.492,2.491,2.492
			s2.491-1.118,2.491-2.492S312.847,177.813,311.473,177.813z"/>
		<path fill="#009C39" d="M307.859,184.023l-14.45,21.277c0.498,0.366,0.93,0.816,1.271,1.333l14.667-21.599
			C308.793,184.785,308.29,184.442,307.859,184.023z"/>
		<path fill="#009C1A" d="M263.984,297.802c-2.862,0-5.191-2.329-5.191-5.191c0-2.862,2.329-5.191,5.191-5.191
			c2.863,0,5.192,2.329,5.192,5.191C269.176,295.473,266.847,297.802,263.984,297.802z M263.984,290.119
			c-1.374,0-2.491,1.118-2.491,2.492c0,1.374,1.118,2.492,2.491,2.492c1.374,0,2.492-1.118,2.492-2.492
			C266.476,291.237,265.358,290.119,263.984,290.119z"/>
		<g>
			<path fill="#009C39" d="M268.965,291.156l30.004-2.695c-0.308-0.532-0.522-1.123-0.625-1.751l-30.266,2.719
				C268.475,289.938,268.779,290.521,268.965,291.156z"/>
			<path fill="#009C39" d="M266.88,288.304l9.734-31.289c-0.606-0.112-1.175-0.33-1.688-0.633l-9.704,31.192
				C265.822,287.722,266.383,287.968,266.88,288.304z"/>
		</g>
		<g>
			<path fill="#206B35" d="M291.694,204.474v-3.042c0-9.247,6.379-17.03,14.968-19.184c-0.244-0.601-0.381-1.257-0.381-1.944
				c0-0.256,0.024-0.506,0.061-0.752c-9.93,2.329-17.348,11.252-17.348,21.881v3.042c0.431-0.116,0.882-0.184,1.35-0.184
				S291.263,204.358,291.694,204.474z"/>
			<path fill="#206B35" d="M316.604,179.551c0.036,0.247,0.061,0.496,0.061,0.752c0,0.688-0.137,1.343-0.381,1.944
				c8.588,2.154,14.968,9.937,14.968,19.184v14.146c0.432-0.117,0.883-0.185,1.351-0.185c0.467,0,0.918,0.068,1.35,0.185v-14.146
				C333.951,190.803,326.533,181.88,316.604,179.551z"/>
			<path fill="#206B35" d="M298.922,288.384l-4.453,4.453c-3.735,3.735-8.702,5.792-13.985,5.792c-4.3,0-8.377-1.382-11.764-3.902
				c-0.38,0.847-0.979,1.572-1.727,2.106c3.871,2.916,8.558,4.496,13.49,4.496c6.003,0,11.649-2.338,15.894-6.583l4.425-4.424
				C300.02,289.851,299.367,289.184,298.922,288.384z"/>
			<path fill="#206B35" d="M274.96,256.403c-0.791-0.459-1.45-1.119-1.906-1.912l-8.464,8.464
				c-7.004,7.004-8.405,17.516-4.214,25.93c0.651-0.631,1.467-1.09,2.376-1.313c-3.625-7.386-2.388-16.574,3.746-22.708
				L274.96,256.403z"/>
			<path fill="#206B35" d="M331.251,225.593v13.249c0,3.251-0.775,6.371-2.266,9.186c-0.853-4.343-2.971-8.34-6.154-11.523
				c-0.718-0.718-1.499-1.397-2.328-2.025v-33.046c0-4.979-4.051-9.031-9.03-9.031s-9.03,4.051-9.03,9.031v11.123
				c0,0.746,0.604,1.35,1.35,1.35s1.35-0.604,1.35-1.35v-11.123c0-3.491,2.84-6.331,6.331-6.331s6.331,2.84,6.331,6.331v31.303
				c-3.31-1.838-7.017-2.814-10.867-2.814c-0.599,0-1.197,0.028-1.795,0.075v-1.166c0-0.746-0.604-1.35-1.35-1.35
				s-1.35,0.604-1.35,1.35v2.672v7.34c0,2.68,1.185,5.206,3.25,6.932c1.593,1.33,3.601,2.073,5.669,2.098
				c0.018,0.017,0.035,0.034,0.052,0.051c1.196,1.195,1.854,2.786,1.854,4.477c0,1.69-0.658,3.28-1.854,4.476l-1.667,1.667
				c-5.058-0.438-9.685-2.771-13.084-6.614c-3.141-3.551-4.902-8.111-4.96-12.84c0-0.001,0-0.002,0-0.003c0-0.002,0-0.004,0-0.007
				l-0.007-9.707c0-0.746-0.605-1.35-1.35-1.35s-1.35,0.604-1.35,1.35v9.182l-8.861,8.861c0.793,0.456,1.453,1.115,1.912,1.906
				l7.196-7.196c0.572,3.864,2.148,7.529,4.583,10.617l-19.725,19.725c-1.704,1.703-2.641,3.971-2.641,6.385
				s0.938,4.682,2.641,6.386c1.706,1.706,3.973,2.645,6.386,2.645c2.412,0,4.679-0.939,6.385-2.645l24.349-24.349l2.104-2.104
				c1.705-1.705,2.645-3.973,2.645-6.385c0-2.413-0.939-4.681-2.645-6.386c-0.193-0.192-0.394-0.372-0.599-0.544l0,0
				c-0.001,0-0.001-0.001-0.002-0.002c-1.587-1.328-3.595-2.07-5.665-2.098c-1.223-1.191-1.915-2.815-1.915-4.528V232.7
				c4.717-0.421,9.399,0.834,13.229,3.561c0.001,0,0.002,0,0.002,0.001c0.92,0.655,1.777,1.378,2.551,2.151
				c3.612,3.613,5.666,8.419,5.78,13.53c0,0,0,0,0,0l0.012,0.455c0,5.283-2.058,10.25-5.792,13.985l-14.947,14.947
				c0.8,0.445,1.467,1.097,1.937,1.881l14.919-14.919c4.246-4.246,6.584-9.89,6.584-15.894c0-0.021-0.001-0.043-0.001-0.064
				c2.961-3.923,4.537-8.572,4.537-13.493v-13.249c-0.432,0.116-0.883,0.184-1.35,0.184
				C332.134,225.777,331.683,225.709,331.251,225.593z M284.961,283.327c-1.196,1.196-2.785,1.854-4.476,1.854
				s-3.281-0.658-4.477-1.854c-1.193-1.193-1.85-2.783-1.85-4.477c0-1.693,0.657-3.283,1.85-4.476l19.618-19.618
				c3.231,3.228,7.29,5.358,11.729,6.177L284.961,283.327z"/>
		</g>
		<path fill="#009C39" d="M326.218,248.026c-0.261-1.161-0.619-2.292-1.082-3.381l-19.821-6.876
			c-0.058-0.02-0.115-0.016-0.173-0.023v1.096c0,0.267,0.023,0.531,0.056,0.792l19.813,6.875l-19.648,34.535
			c0.263,0.104,0.512,0.233,0.751,0.377c-0.047-0.028-0.09-0.063-0.138-0.089l3.001-3.001L326.218,248.026z"/>
		<path fill="#009C39" d="M311.413,247.922c-0.017-0.017-0.034-0.034-0.052-0.051c-0.262-0.003-0.521-0.018-0.78-0.044l-6.299,8.268
			l-12.586-23.507l0.003,3.82l10.713,20.008c0.948,0.491,1.939,0.892,2.958,1.222l6.753-8.863
			C311.911,248.474,311.678,248.188,311.413,247.922z"/>
		<g>
			<path fill="#009C39" d="M329.036,216.821l-8.533-7.563v2.405l7.457,6.609C328.233,217.727,328.598,217.237,329.036,216.821z"/>
			<path fill="#009C39" d="M328.776,224.083l-6.868,11.56c0.315,0.281,0.628,0.565,0.923,0.86c0.141,0.14,0.267,0.29,0.402,0.433
				l6.979-11.747C329.67,224.907,329.186,224.531,328.776,224.083z"/>
		</g>
	</g>
</g>
<g>
	<g>
		<g>
			<g>
				<polygon fill="#FFFFFF" points="98.196,366.932 97.452,474.909 190.591,529.543 284.475,476.198 285.219,368.22 192.08,313.587 
									"/>
				
					<linearGradient id="SVGID_4_" gradientUnits="userSpaceOnUse" x1="243.1118" y1="354.3188" x2="65.5316" y2="578.2874" gradientTransform="matrix(1 0.0069 -0.0069 1 4.9463 -2.7593)">
					<stop  offset="0" style="stop-color:#FFFFFF"/>
					<stop  offset="1" style="stop-color:#E5E6E7"/>
				</linearGradient>
				<polygon fill="url(#SVGID_4_)" points="86.794,358.507 85.955,480.276 190.99,541.887 296.864,481.729 297.703,359.961 
					192.668,298.35 				"/>
				<polygon fill="#FFFFFF" points="98.196,366.932 97.452,474.909 190.591,529.543 284.475,476.198 285.219,368.22 192.08,313.587 
									"/>
				
					<polygon fill="none" stroke="#317A79" stroke-width="3" stroke-linecap="round" stroke-linejoin="round" stroke-miterlimit="10" points="
					98.196,366.932 97.452,474.909 190.591,529.543 284.475,476.198 285.219,368.22 192.08,313.587 				"/>
			</g>
		</g>
	</g>
	<path fill="none" stroke="#E46124" stroke-width="3" stroke-linecap="round" stroke-linejoin="round" stroke-miterlimit="10" d="
		M325.207,490.119"/>
	<g>
		<path fill="#39B67A" d="M214.556,386.256c-0.892,0-1.795-0.227-2.623-0.704c-2.514-1.451-3.377-4.677-1.926-7.19
			c1.451-2.513,4.675-3.378,7.19-1.927c2.513,1.451,3.377,4.677,1.927,7.19C218.15,385.313,216.376,386.256,214.556,386.256z
			 M214.57,378.431c-0.887,0-1.751,0.46-2.226,1.282c-0.707,1.224-0.286,2.794,0.939,3.502c1.225,0.706,2.795,0.285,3.502-0.939
			c0.706-1.224,0.286-2.796-0.939-3.502C215.445,378.542,215.004,378.431,214.57,378.431z"/>
		<path fill="#39B67A" d="M138.077,390.083c-0.892,0-1.795-0.227-2.623-0.704c-2.513-1.451-3.377-4.677-1.926-7.19
			c1.451-2.513,4.675-3.378,7.19-1.926c2.513,1.451,3.378,4.676,1.927,7.19C141.671,389.14,139.897,390.083,138.077,390.083z
			 M138.091,382.258c-0.887,0-1.75,0.459-2.225,1.281c-0.707,1.224-0.286,2.795,0.938,3.502c1.225,0.706,2.795,0.286,3.502-0.939
			c0.706-1.224,0.286-2.795-0.938-3.502C138.965,382.368,138.525,382.258,138.091,382.258z"/>
		<path fill="#39B67A" d="M236.486,416.582c-0.892,0.001-1.795-0.227-2.623-0.704c-1.217-0.702-2.088-1.837-2.452-3.195
			s-0.178-2.776,0.525-3.994c1.451-2.514,4.675-3.378,7.19-1.927c1.217,0.702,2.089,1.838,2.453,3.196
			c0.364,1.358,0.177,2.777-0.526,3.995C240.08,415.639,238.307,416.582,236.486,416.582z M236.5,408.757
			c-0.887,0-1.75,0.459-2.225,1.281c-0.342,0.593-0.433,1.283-0.256,1.945c0.178,0.662,0.601,1.214,1.194,1.557l0,0
			c1.225,0.706,2.796,0.286,3.502-0.938c0.343-0.593,0.434-1.284,0.256-1.946c-0.177-0.661-0.601-1.214-1.194-1.557
			C237.375,408.868,236.935,408.757,236.5,408.757z"/>
		<path fill="#317A79" d="M209.309,380.796l-8.803,1.125h-13.258l-13.438-1.718l-29.17-16.512c-0.114,0.91-0.458,1.785-1.017,2.527
			l29.088,16.465c0.153,0.086,0.321,0.142,0.494,0.165l13.786,1.763c0.057,0.007,0.114,0.01,0.171,0.01h13.43
			c0.057,0,0.114-0.003,0.171-0.01l9.15-1.17C209.487,382.628,209.275,381.716,209.309,380.796z"/>
		<path fill="#39B67A" d="M143.981,360.412c-1.451-2.513-4.678-3.378-7.19-1.926c-2.513,1.451-3.377,4.677-1.926,7.19
			c0.974,1.687,2.747,2.631,4.567,2.631c0.892,0,1.796-0.227,2.623-0.704C144.568,366.151,145.433,362.925,143.981,360.412z"/>
		<g>
			<path fill="#317A79" d="M139.836,379.864l0.605-11.667c-0.335,0.066-0.672,0.109-1.009,0.109c-0.575,0-1.143-0.104-1.685-0.287
				l-0.603,11.628C138.053,379.484,138.981,379.563,139.836,379.864z"/>
		</g>
		<path fill="#39B67A" d="M230.076,389.666c-2.514-1.451-5.739-0.586-7.19,1.927c-1.451,2.514-0.586,5.739,1.927,7.19
			c0.827,0.478,1.73,0.704,2.623,0.704c1.821,0,3.594-0.944,4.567-2.63C233.453,394.343,232.589,391.117,230.076,389.666z"/>
		<path fill="#317A79" d="M234.316,406.536l-4.437-7.657c-0.55,0.286-1.142,0.48-1.755,0.562l4.701,8.112
			C233.266,407.125,233.771,406.783,234.316,406.536z"/>
		<path fill="#317A79" d="M249.704,362.206c-0.024-0.467-0.288-0.888-0.699-1.113c-0.41-0.224-0.908-0.223-1.314,0.009
			l-29.122,16.484c0.6,0.706,0.997,1.55,1.165,2.443l26.459-14.978l-16.988,24.216c0.296,0.105,0.589,0.235,0.871,0.398
			c0.252,0.146,0.483,0.314,0.702,0.493l16.456-23.458l0.879,16.942l-10.662,22.507c0.575,0.106,1.142,0.304,1.677,0.612
			c0.274,0.159,0.525,0.346,0.763,0.546l10.807-22.817c0.096-0.202,0.14-0.425,0.128-0.648L249.704,362.206z"/>
		<path fill="#317A79" d="M244.063,438.427l-0.976-4.281c-0.018-0.076-0.044-0.146-0.073-0.216c0.012-0.138,0.01-0.279-0.023-0.422
			l-4.04-17.543c-0.759,0.399-1.605,0.617-2.465,0.617c-0.056,0-0.111-0.009-0.167-0.011l4.04,17.543
			c0.017,0.074,0.044,0.144,0.072,0.212c-0.012,0.138-0.01,0.278,0.022,0.42l0.77,3.374l-25.191,16.793
			c-0.196,0.132-0.354,0.311-0.459,0.521l-12.128,24.321h-9.146c-0.148,0-0.289,0.03-0.422,0.074
			c-0.134-0.044-0.274-0.074-0.422-0.074h-9.146l-12.128-24.321c-0.105-0.211-0.264-0.39-0.459-0.521l-25.19-16.793l0.77-3.374
			c0.035-0.154,0.037-0.308,0.019-0.456c0.023-0.06,0.059-0.111,0.074-0.176l5.18-22.491c0.003-0.014,0-0.028,0.002-0.042
			l9.486-16.372c0.176-0.303,0.159-0.681-0.042-0.968l-19.115-27.25c-0.258,0.227-0.541,0.433-0.85,0.611
			c-0.224,0.129-0.455,0.237-0.688,0.33l18.85,26.873l-8.411,14.517l-9.905-20.909c-0.348,0.369-0.733,0.706-1.184,0.966
			c-0.361,0.208-0.738,0.361-1.121,0.476l10.241,21.619l-5.075,22.034c-0.033,0.144-0.035,0.285-0.022,0.424
			c-0.029,0.068-0.055,0.139-0.072,0.214l-0.977,4.281c-0.124,0.546,0.102,1.112,0.568,1.424l25.665,17.109l12.341,24.748
			c0.229,0.459,0.697,0.748,1.208,0.748h9.981c0.148,0,0.289-0.029,0.422-0.074c0.133,0.045,0.274,0.074,0.422,0.074h9.981
			c0.511,0,0.98-0.289,1.208-0.748l12.34-24.748l25.667-17.109C243.961,439.539,244.187,438.973,244.063,438.427z"/>
		<path fill="#39B67A" d="M168.814,437.751c0.214,0.408,0.622,0.679,1.082,0.719l11.933,1.007l-1.48,14.198l-10.654-9.373
			c-0.105-0.093-0.232-0.16-0.368-0.195l-22.618-5.867l4.565,3.043l17.393,4.513l15.966,14.046v7.361
			c0,0.417,0.193,0.81,0.521,1.065l7.693,5.983c0.246,0.191,0.538,0.284,0.828,0.284c0.068,0,0.134-0.012,0.201-0.021
			c0.067,0.01,0.133,0.021,0.201,0.021c0.29,0,0.582-0.093,0.828-0.284l7.693-5.983c0.329-0.256,0.521-0.648,0.521-1.065v-7.361
			l15.966-14.046l17.394-4.513l4.565-3.043l-22.619,5.867c-0.136,0.035-0.263,0.103-0.368,0.195l-10.653,9.372l-1.478-14.197
			l11.929-1.007c0.459-0.04,0.868-0.31,1.082-0.719l5.049-9.616c0.229-0.437,0.202-0.962-0.069-1.372s-0.732-0.638-1.235-0.602
			l-11.781,0.963c-0.319,0.026-0.619,0.164-0.845,0.391l-5.93,5.931c-0.109,0.108-0.19,0.237-0.256,0.373
			c-0.185,0.186-0.297,0.439-0.268,0.721l2.144,20.593l-3.824,3.363c-0.052-0.006-0.102-0.015-0.155-0.015h-7.586
			c-0.106,0-0.208,0.015-0.306,0.038c-0.099-0.023-0.201-0.038-0.306-0.038h-7.587c-0.053,0-0.103,0.009-0.154,0.015l-3.823-3.362
			l2.151-20.641c0.032-0.306-0.104-0.579-0.321-0.765c-0.059-0.102-0.126-0.198-0.21-0.282l-5.93-5.931
			c-0.226-0.227-0.526-0.364-0.845-0.391l-11.78-0.963c-0.504-0.036-0.964,0.191-1.236,0.602s-0.298,0.936-0.069,1.372
			L168.814,437.751z M211.615,429.774l8.841-0.723l-3.564,6.789l-10.259,0.865l-0.153-1.796L211.615,429.774z M187.333,461.18h6.237
			c0.105,0,0.207-0.015,0.306-0.038c0.099,0.023,0.2,0.038,0.306,0.038h6.236v5.362l-6.542,5.089l-6.543-5.089V461.18z
			 M176.137,429.774l5.135,5.136l-0.153,1.796l-10.259-0.865l-3.563-6.789L176.137,429.774z"/>
	</g>
</g>
<path fill="none" stroke="#0DB9B2" stroke-width="3" stroke-linecap="round" stroke-linejoin="round" stroke-miterlimit="10" d="
	M298.406,360.001c0,0.725,0,121.771,0,121.771l105.388,60.886"/>
<polyline fill="none" stroke="#369846" stroke-width="3" stroke-linecap="round" stroke-linejoin="round" stroke-miterlimit="10" points="
	298.158,359.992 403.547,299.106 403.547,177.334 "/>
<polyline fill="none" stroke="#317A79" stroke-width="3" stroke-linecap="round" stroke-linejoin="round" stroke-miterlimit="10" points="
	297.634,359.961 192.668,298.35 86.794,358.507 "/>
<path fill="none" stroke="#504BE5" stroke-width="3" stroke-linecap="round" stroke-linejoin="round" stroke-miterlimit="10" d="
	M193.042,663.787c0,0-0.699-120.646-0.703-121.367l106.067-60.647"/>
</svg>
