<svg xmlns="http://www.w3.org/2000/svg" xmlns:xlink="http://www.w3.org/1999/xlink" id="Layer_1" x="0px" y="0px" width="288px" height="288px" viewBox="0 0 288 288" xml:space="preserve"><g>	<g>		<path fill="#E85F00" d="M178.754,132.097c-0.66,0-1.293-0.278-1.74-0.77C136.06,86.313,114.31,66.713,47.802,39.264   c-1.093-0.451-1.682-1.644-1.374-2.786c0.306-1.142,1.407-1.886,2.585-1.72c85.383,11.509,141.226,92.19,141.781,93.004   c0.475,0.698,0.539,1.597,0.168,2.356c-0.369,0.759-1.119,1.261-1.961,1.315l-10.096,0.659   C178.855,132.095,178.805,132.097,178.754,132.097z M71.34,44.333c50.679,23.191,72.2,43.258,108.391,82.989l4.695-0.306   C174.107,113.339,132.279,62.228,71.34,44.333z"></path>	</g>	<path fill="#BA4F2C" d="M207.76,176.931c-0.029-0.164-0.1-0.322-0.203-0.452c-1.766-2.184-3.881-5.888-5.805-9.041  c-0.967-1.581-1.889-3.026-2.742-4.12c-0.428-0.548-0.836-1.01-1.264-1.372c-0.43-0.349-0.887-0.663-1.557-0.68  c-0.307-0.003-0.643,0.097-0.902,0.278c-0.264,0.179-0.451,0.414-0.594,0.66l-0.014,0.026c-0.426,0.819-0.57,1.824-0.578,2.958  c0.01,2.077,0.551,4.56,1.873,6.403c0.527,0.721,1.264,1.424,2.088,2.121c2.139,1.797,4.875,3.49,5.576,3.917l0.064,0.121  c0.059,0.134,0.135,0.354,0.197,0.686c0.076,0.389,0.379,0.696,0.766,0.775c0.607,0.124,1.072,0.189,1.49,0.191  c0.398-0.005,0.816-0.048,1.225-0.373c0.195-0.16,0.344-0.388,0.414-0.598c0.074-0.211,0.09-0.397,0.09-0.556  C207.879,177.48,207.801,177.203,207.76,176.931z"></path>	<path fill="#BA4F2C" d="M62.148,235.172c-2.387-0.574-4.848-0.184-6.934,1.098c-2.089,1.28-3.555,3.298-4.126,5.68  c-0.573,2.382-0.184,4.845,1.095,6.935c1.28,2.089,3.298,3.555,5.68,4.128h0.001c0.717,0.171,1.434,0.254,2.141,0.254  c4.144,0,7.911-2.832,8.919-7.032c0.573-2.382,0.184-4.845-1.097-6.935C66.549,237.21,64.532,235.745,62.148,235.172z"></path>	<path fill="#BA4F2C" d="M103.153,189.609c-1.28-2.09-3.298-3.555-5.68-4.127c-2.385-0.575-4.848-0.183-6.934,1.097  c-2.089,1.281-3.555,3.298-4.126,5.68c-0.573,2.382-0.184,4.845,1.095,6.935c1.28,2.089,3.297,3.554,5.679,4.126  c0.717,0.173,1.441,0.258,2.16,0.258c1.671,0,3.316-0.46,4.776-1.355c2.089-1.279,3.555-3.297,4.128-5.679  C104.823,194.16,104.432,191.698,103.153,189.609z"></path>	<path fill="#BA4F2C" d="M141.887,253.266c-0.708,0-1.425-0.083-2.142-0.254h-0.002c-2.381-0.573-4.398-2.039-5.679-4.128  c-1.279-2.09-1.668-4.553-1.096-6.935c0.571-2.382,2.037-4.399,4.127-5.68c2.086-1.281,4.549-1.672,6.934-1.098  c2.383,0.572,4.4,2.038,5.679,4.127c1.28,2.09,1.669,4.553,1.097,6.935C149.798,250.434,146.029,253.266,141.887,253.266z   M140.842,248.435c2.396,0.577,4.815-0.905,5.388-3.3c0.28-1.161,0.09-2.36-0.533-3.377c-0.623-1.019-1.606-1.732-2.767-2.011  c-1.166-0.278-2.36-0.088-3.376,0.534c-1.019,0.624-1.732,1.606-2.01,2.767c-0.28,1.161-0.09,2.36,0.533,3.377  C138.701,247.444,139.683,248.158,140.842,248.435L140.842,248.435z"></path>	<path fill="#BA4F2C" d="M39.917,220.215c-0.719,0-1.443-0.085-2.16-0.257c-2.384-0.572-4.401-2.038-5.68-4.128  c-1.281-2.09-1.669-4.553-1.097-6.936c0.571-2.382,2.037-4.398,4.126-5.679c2.089-1.28,4.55-1.67,6.936-1.098  c2.381,0.572,4.399,2.038,5.679,4.128c1.279,2.09,1.668,4.552,1.095,6.935c-0.571,2.382-2.037,4.398-4.126,5.68  C43.232,219.755,41.588,220.215,39.917,220.215z M39.891,206.569c-0.813,0-1.614,0.225-2.325,0.66  c-1.019,0.623-1.732,1.605-2.009,2.766c-0.28,1.161-0.09,2.36,0.533,3.378c0.624,1.018,1.607,1.731,2.768,2.011l0,0  c1.164,0.279,2.36,0.088,3.376-0.535c1.019-0.623,1.732-1.605,2.009-2.766c0.28-1.161,0.09-2.361-0.533-3.379  c-0.623-1.017-1.605-1.73-2.766-2.01C40.594,206.611,40.242,206.569,39.891,206.569z"></path>	<path fill="#BA4F2C" d="M77.551,145.744c-0.707,0-1.425-0.082-2.142-0.254l0,0c-4.917-1.182-7.957-6.144-6.778-11.062  c0.573-2.382,2.039-4.4,4.128-5.68c2.088-1.281,4.551-1.671,6.936-1.098c4.917,1.182,7.958,6.144,6.778,11.062  C85.462,142.913,81.693,145.744,77.551,145.744z M76.51,140.914c2.401,0.571,4.811-0.908,5.388-3.302  c0.574-2.395-0.907-4.813-3.302-5.388c-1.164-0.282-2.36-0.088-3.377,0.535c-1.019,0.624-1.732,1.606-2.01,2.766  C72.633,137.921,74.114,140.339,76.51,140.914L76.51,140.914z"></path>	<g>		<path fill="#E66124" d="M135.372,237.675c0.519-0.524,1.079-1.011,1.725-1.405c0.728-0.447,1.504-0.779,2.305-1.006   c-7.522-11.411-20.319-25.677-35.506-37.689c-0.556,1.506-1.476,2.82-2.707,3.844   C115.842,213.029,128.155,226.735,135.372,237.675z"></path>		<path fill="#E85F00" d="M68.854,246.446h64.165c-0.388-1.455-0.411-2.991-0.05-4.496c0.018-0.073,0.054-0.138,0.072-0.21H87.109   c-6.088-6.986-34.56-41.504-30.847-71.732c1.111-9.044,5.053-16.954,11.723-23.633c-0.214,0.645-0.411,1.302-0.581,1.977   c-3.754,14.835,4.194,32.139,19.393,42.799c0.569-1.502,1.506-2.806,2.75-3.82c-15.83-11.015-20.282-27.15-17.582-37.824   c0.418-1.65,1.008-3.186,1.741-4.61c-1.867-0.862-3.344-2.318-4.266-4.073c-9.414,7.807-14.899,17.465-16.292,28.81   c-2.258,18.411,6.81,37.994,14.814,51.181c5.654,9.313,11.577,16.82,15.02,20.927H68.875c0.388,1.454,0.412,2.99,0.05,4.494   C68.907,246.308,68.874,246.373,68.854,246.446z"></path>	</g>	<g>		<path fill="#E85F00" d="M44.691,218.861c-0.267,0.163-0.546,0.297-0.824,0.431c5.027,6.154,8.478,12.161,10.839,17.362   c0.173-0.123,0.325-0.271,0.508-0.384c1.201-0.738,2.528-1.17,3.892-1.303c-2.521-5.604-6.225-12.099-11.662-18.739   C46.726,217.274,45.806,218.177,44.691,218.861z"></path>		<path fill="#E85F00" d="M269.898,212.038c-0.299-0.995-1.223-1.674-2.26-1.674c-0.006,0-0.014,0-0.02,0h-0.002   c-0.146,0-6.002-0.049-19.055-4.93c-11.727-4.384-25.729-16.857-29.064-20.251c0.131-0.035,0.281-0.07,0.455-0.105   c0.389-0.078,0.752-0.252,1.055-0.508c0.895-0.754,1.396-1.808,1.447-3.047c0.193-4.511-6.17-11.015-6.896-11.742   c-0.975-0.984-6.461-9.492-18.713-30.234l-0.332-0.564c-0.057-0.093-0.104-0.188-0.152-0.282   c-0.328-0.634-0.824-1.593-2.252-2.545c-0.18-0.12-0.377-0.216-0.584-0.282c-3.527-1.135-14.734,0.578-19.607,1.41   c-0.709-0.876-1.779-2.342-2.201-2.919c-0.389-0.532-0.68-0.921-0.773-1.03c-3.55-4.15-7.441-8.218-11.568-12.089   c-12.916-12.126-26.563-20.862-40.562-25.964c-11.978-4.366-22.505-15.744-25.032-27.055c-0.204-0.913-0.403-1.876-0.403-2.743   c0-1.094-0.753-2.043-1.819-2.292c-1.064-0.247-2.16,0.272-2.644,1.252c-4.143,8.416-1.504,19.981,0.334,25.887   C62.83,87.752,53.45,68.107,53.059,67.262c-0.435-0.953-1.447-1.495-2.486-1.35c-1.037,0.155-1.847,0.977-1.985,2.015   c-2.096,15.633,4.996,25.351,9.734,29.959c-20.761,3.558-36.026-13.049-36.187-13.227c-0.617-0.688-1.583-0.95-2.461-0.671   c-0.882,0.279-1.518,1.05-1.626,1.968c-0.077,0.661-1.563,15.674,20.059,27.384c-11.468,11.122-17.754,24.782-18.702,40.658   c-1.098,18.389,5.419,37.217,13.692,50.945c0.588-0.654,1.24-1.255,2.011-1.728c0.602-0.369,1.238-0.655,1.892-0.875   c-7.8-12.974-13.933-30.731-12.898-48.063c0.938-15.705,7.545-29.075,19.636-39.737c0.591-0.522,0.882-1.307,0.773-2.088   c-0.107-0.782-0.602-1.458-1.313-1.798c-12.75-6.109-17.601-13.237-19.425-18.161c7.393,5.853,22.136,14.421,40.383,8.828   c0.881-0.27,1.524-1.029,1.644-1.943s-0.305-1.813-1.086-2.302c-0.123-0.076-10.544-6.765-11.687-21.161   c5.574,7.194,17.096,17.768,37.32,19.23c0.08,0.007,0.166,0.008,0.238,0.005c0.62-0.019,1.237-0.023,1.853-0.023   c0.048,0,0.11,0.011,0.141,0c0.775,0,1.5-0.381,1.939-1.02c0.439-0.64,0.535-1.454,0.257-2.178   c-1.466-3.811-3.189-10.091-3.321-16.042c4.741,10.354,14.7,19.787,25.748,23.814c13.398,4.883,26.503,13.285,38.954,24.974   c4.001,3.755,7.773,7.697,11.189,11.689c0.092,0.115,0.299,0.4,0.571,0.774c3.051,4.18,3.873,5.296,5.648,4.982c0,0,0,0,0.002,0   c7.264-1.288,15.811-2.282,18.215-1.841c0.18,0.156,0.25,0.293,0.398,0.581c0.098,0.185,0.191,0.367,0.301,0.547l0.314,0.532   c11.234,19.018,17.771,29.503,19.436,31.167c2.826,2.828,5.049,6.193,5.461,7.71c-1.441,0.487-2.414,1.234-2.953,2.264   c-0.395,0.747-0.715,1.979-0.014,3.615c0.83,1.929,18.027,17.852,32.189,23.146c6.225,2.327,10.939,3.62,14.291,4.337   c-6.563,4.444-16.857,11.718-21.533,16.635c-15.656-19.063-39.424-33.006-42.182-34.589c-2.252-1.293-5.826-2.892-9.967-4.743   c-8.652-3.87-20.503-9.17-24.123-13.696c-5.325-6.658-5.559-13.945-5.314-22.095c0.021-0.716-0.283-1.402-0.83-1.865   c-0.331-0.28-8.255-6.954-20.154-13.428c-11.066-6.02-27.742-12.933-44.405-11.697c-3.024,0.225-5.818,0.804-8.396,1.66   c1.09,1.188,1.848,2.655,2.2,4.24c2.022-0.617,4.203-1.033,6.545-1.208c27.033-2.009,55.077,19.163,60.306,23.323   c-0.193,8.349,0.338,16.462,6.375,24.008c4.331,5.416,16.277,10.759,25.877,15.051c4.023,1.8,7.498,3.353,9.543,4.528   c2.787,1.598,27.656,16.188,42.656,35.717c0.488,0.635,1.275,0.978,2.059,0.912c0.797-0.066,1.506-0.531,1.883-1.236   c1.971-3.689,17.727-14.845,27.193-21.011C269.814,214.118,270.199,213.038,269.898,212.038z"></path>	</g></g></svg>