<svg width="520" height="600" viewBox="0 0 520 600" fill="none" xmlns="http://www.w3.org/2000/svg">
<path d="M0 165.2V434.698C0 445.559 5.7 455.608 15 461.09L245 595.889C254.3 601.37 265.7 601.37 275 595.889L505 461.09C514.3 455.608 520 445.559 520 434.698V165.2C520 154.339 514.3 144.29 505 138.809L275 4.11098C265.7 -1.37033 254.3 -1.37033 245 4.11098L15 138.809C5.7 144.29 0 154.339 0 165.2Z" fill="url(#paint0_linear_831_12696)"/>
<path d="M31 183.37V416.63C31 427.491 36.7 437.54 46 443.021L245 559.651C254.3 565.133 265.7 565.133 275 559.651L474 443.021C483.3 437.54 489 427.491 489 416.63V183.37C489 172.509 483.3 162.46 474 156.978L275 40.4498C265.7 34.9685 254.3 34.9685 245 40.4498L46 156.978C36.7 162.46 31 172.509 31 183.37Z" fill="url(#paint1_linear_831_12696)"/>
<path d="M520 220.927H0V393.081H520V220.927Z" fill="url(#paint2_linear_831_12696)"/>
<path d="M286.099 466.063C285.799 466.063 285.499 465.962 285.299 465.657C265.499 443.631 254.999 433.988 222.899 420.487C222.399 420.284 222.099 419.675 222.199 419.168C222.299 418.559 222.899 418.254 223.399 418.356C264.599 424.04 291.599 463.526 291.899 463.932C292.099 464.236 292.199 464.744 291.999 465.048C291.799 465.454 291.499 465.657 291.099 465.657L286.099 466.063C286.199 466.063 286.199 466.063 286.099 466.063ZM234.299 423.025C258.799 434.394 269.199 444.24 286.599 463.729L288.899 463.627C283.899 456.826 263.699 431.754 234.299 423.025Z" fill="white"/>
<path d="M300.2 487.989C300.2 487.887 300.2 487.786 300.1 487.786C299.2 486.669 298.2 484.944 297.3 483.32C296.8 482.508 296.4 481.797 296 481.289C295.8 480.985 295.6 480.782 295.4 480.579C295.2 480.376 295 480.274 294.6 480.274C294.5 480.274 294.3 480.274 294.2 480.376C294.1 480.477 294 480.579 293.9 480.68C293.7 481.086 293.6 481.594 293.6 482.102C293.6 483.117 293.9 484.335 294.5 485.248C294.8 485.553 295.1 485.959 295.5 486.263C296.5 487.177 297.9 487.989 298.2 488.192V488.293C298.2 488.395 298.3 488.496 298.3 488.598C298.3 488.801 298.5 488.902 298.7 489.004C299 489.105 299.2 489.105 299.4 489.105C299.6 489.105 299.8 489.105 300 488.902C300.1 488.801 300.2 488.699 300.2 488.598C300.2 488.496 300.2 488.395 300.2 488.293C300.2 488.293 300.2 488.09 300.2 487.989Z" fill="white"/>
<path d="M229.799 516.511C228.599 516.207 227.499 516.41 226.499 517.019C225.499 517.628 224.799 518.643 224.499 519.76C224.199 520.978 224.399 522.094 224.999 523.109C225.599 524.124 226.599 524.835 227.699 525.139C227.999 525.241 228.399 525.241 228.699 525.241C230.699 525.241 232.499 523.82 232.999 521.79C233.299 520.572 233.099 519.455 232.499 518.44C231.999 517.527 230.999 516.816 229.799 516.511Z" fill="white"/>
<path d="M249.599 494.18C248.999 493.165 247.999 492.455 246.899 492.15C245.699 491.846 244.599 492.049 243.599 492.658C242.599 493.267 241.899 494.282 241.599 495.398C241.299 496.616 241.499 497.733 242.099 498.748C242.699 499.763 243.699 500.474 244.799 500.778C245.099 500.88 245.499 500.88 245.799 500.88C246.599 500.88 247.399 500.677 248.099 500.169C249.099 499.56 249.799 498.545 250.099 497.428C250.399 496.413 250.299 495.195 249.599 494.18Z" fill="white"/>
<path d="M268.299 525.444C267.999 525.444 267.599 525.444 267.299 525.343C266.099 525.038 265.199 524.328 264.599 523.312C263.999 522.297 263.799 521.079 264.099 519.963C264.399 518.745 265.099 517.831 266.099 517.222C267.099 516.613 268.299 516.41 269.399 516.715C270.599 517.019 271.499 517.73 272.099 518.745C272.699 519.76 272.899 520.978 272.599 522.094C272.199 524.023 270.299 525.444 268.299 525.444ZM267.799 523.008C268.999 523.312 270.099 522.602 270.399 521.384C270.499 520.775 270.399 520.267 270.099 519.76C269.799 519.252 269.299 518.948 268.799 518.745C268.199 518.643 267.699 518.745 267.199 519.049C266.699 519.354 266.399 519.861 266.199 520.369C266.099 520.978 266.199 521.485 266.499 521.993C266.799 522.602 267.299 522.906 267.799 523.008Z" fill="white"/>
<path d="M219.1 509.203C218.8 509.203 218.4 509.203 218.1 509.102C216.9 508.797 216 508.087 215.4 507.072C214.8 506.057 214.6 504.839 214.9 503.722C215.2 502.504 215.9 501.59 216.9 500.981C217.9 500.372 219.1 500.169 220.2 500.474C221.4 500.778 222.3 501.489 222.9 502.504C223.5 503.519 223.7 504.737 223.4 505.854C223.1 507.072 222.4 507.985 221.4 508.594C220.7 509 219.9 509.203 219.1 509.203ZM219.1 502.504C218.7 502.504 218.3 502.605 218 502.809C217.5 503.113 217.2 503.621 217 504.128C216.9 504.737 217 505.245 217.3 505.752C217.6 506.26 218.1 506.564 218.6 506.767C219.2 506.869 219.7 506.767 220.2 506.463C220.7 506.158 221 505.651 221.2 505.143C221.3 504.534 221.2 504.027 220.9 503.519C220.6 503.012 220.1 502.707 219.6 502.504C219.4 502.504 219.3 502.504 219.1 502.504Z" fill="white"/>
<path d="M237.299 472.763C236.999 472.763 236.599 472.763 236.299 472.661C233.899 472.052 232.499 469.616 232.999 467.282C233.299 466.064 233.999 465.15 234.999 464.541C235.999 463.932 237.199 463.729 238.299 464.033C240.699 464.642 242.099 467.079 241.599 469.413C241.099 471.342 239.299 472.763 237.299 472.763ZM236.799 470.327C237.999 470.631 239.099 469.921 239.399 468.703C239.699 467.485 238.999 466.368 237.799 466.064C237.199 465.962 236.699 466.064 236.199 466.368C235.699 466.673 235.399 467.18 235.199 467.688C234.899 468.906 235.599 470.022 236.799 470.327Z" fill="white"/>
<path d="M265.199 517.73C265.499 517.426 265.699 517.223 265.999 517.02C266.399 516.817 266.699 516.614 267.099 516.512C263.499 510.929 257.299 503.925 249.999 498.038C249.699 498.749 249.299 499.459 248.699 499.967C255.799 505.651 261.699 512.452 265.199 517.73Z" fill="white"/>
<path d="M233.1 522.095H264.1C263.9 521.384 263.9 520.674 264.1 519.861V519.76H241.9C239 516.309 225.2 499.459 227 484.639C227.5 480.173 229.4 476.316 232.7 473.067C232.6 473.372 232.5 473.676 232.4 474.082C230.6 481.391 234.4 489.816 241.8 495.094C242.1 494.384 242.5 493.673 243.1 493.267C235.5 487.887 233.3 479.97 234.6 474.691C234.8 473.879 235.1 473.169 235.4 472.458C234.5 472.052 233.8 471.342 233.3 470.428C228.8 474.285 226.1 478.955 225.4 484.538C224.3 493.572 228.7 503.113 232.6 509.609C235.3 514.177 238.2 517.831 239.9 519.861H233.1C233.3 520.572 233.3 521.283 233.1 522.095C233.1 521.993 233.1 521.993 233.1 522.095Z" fill="white"/>
<path d="M221.4 508.594C221.3 508.695 221.1 508.695 221 508.797C223.4 511.842 225.1 514.785 226.2 517.323C226.3 517.222 226.4 517.222 226.4 517.12C227 516.714 227.6 516.511 228.3 516.511C227.1 513.77 225.3 510.624 222.7 507.375C222.4 507.782 221.9 508.188 221.4 508.594Z" fill="white"/>
<path d="M330.199 505.244C330.099 504.737 329.599 504.432 329.099 504.432C328.999 504.432 326.199 504.432 319.899 501.996C314.199 499.865 307.499 493.774 305.899 492.049C305.999 492.049 305.999 492.049 306.099 491.947C306.299 491.947 306.499 491.846 306.599 491.744C306.999 491.338 307.299 490.831 307.299 490.221C307.399 487.988 304.299 484.842 303.999 484.436C303.499 483.928 300.899 479.766 294.999 469.616L294.799 469.311L294.699 469.21C294.499 468.905 294.299 468.398 293.599 467.992C293.499 467.89 293.399 467.89 293.299 467.89C291.599 467.383 286.199 468.195 283.799 468.601C283.499 468.195 282.899 467.484 282.699 467.18C282.499 466.875 282.399 466.774 282.299 466.672C280.599 464.642 278.699 462.612 276.699 460.785C270.499 454.796 263.899 450.533 257.099 448.097C251.299 445.965 246.199 440.382 244.999 434.799C244.899 434.393 244.799 433.886 244.799 433.48C244.799 432.972 244.399 432.465 243.899 432.363C243.399 432.262 242.899 432.465 242.599 432.972C240.599 437.134 241.899 442.717 242.799 445.661C229.999 444.442 225.499 434.799 225.299 434.393C225.099 433.886 224.599 433.683 224.099 433.683C223.599 433.784 223.199 434.19 223.099 434.698C222.099 442.311 225.499 447.082 227.799 449.416C217.799 451.142 210.399 443.021 210.299 442.92C209.999 442.615 209.499 442.412 209.099 442.615C208.699 442.717 208.399 443.123 208.299 443.63C208.299 443.935 207.499 451.345 217.999 457.029C212.499 462.51 209.399 469.21 208.999 476.924C208.499 485.958 211.599 495.195 215.599 501.895C215.899 501.59 216.199 501.286 216.599 501.083C216.899 500.88 217.199 500.778 217.499 500.677C213.699 494.282 210.799 485.654 211.299 477.127C211.799 469.413 214.899 462.916 220.799 457.638C221.099 457.334 221.199 457.029 221.199 456.623C221.099 456.217 220.899 455.913 220.599 455.71C214.399 452.664 212.099 449.213 211.199 446.777C214.799 449.619 221.899 453.882 230.699 451.142C231.099 451.04 231.399 450.634 231.499 450.228C231.599 449.822 231.399 449.315 230.999 449.112C230.899 449.112 225.899 445.762 225.399 438.758C228.099 442.311 233.699 447.488 243.399 448.198H243.499C243.799 448.198 244.099 448.198 244.399 448.198H244.499C244.899 448.198 245.199 447.995 245.399 447.691C245.599 447.386 245.699 446.98 245.499 446.574C244.799 444.747 243.999 441.6 243.899 438.758C246.199 443.833 250.999 448.503 256.299 450.431C262.799 452.867 269.099 456.928 275.099 462.713C276.999 464.541 278.899 466.469 280.499 468.398C280.499 468.499 280.599 468.601 280.799 468.804C282.299 470.834 282.699 471.443 283.499 471.24C286.999 470.631 291.099 470.123 292.299 470.326C292.399 470.428 292.399 470.428 292.499 470.631C292.499 470.732 292.599 470.834 292.599 470.935L292.799 471.24C298.199 480.578 301.399 485.654 302.199 486.567C303.599 487.988 304.599 489.612 304.799 490.323C304.099 490.526 303.599 490.932 303.399 491.44C303.199 491.846 303.099 492.455 303.399 493.165C303.799 494.079 312.099 501.895 318.899 504.534C321.899 505.65 324.199 506.259 325.799 506.665C322.599 508.797 317.699 512.451 315.399 514.786C307.799 505.447 296.399 498.646 294.999 497.834C293.899 497.225 292.199 496.413 290.199 495.5C285.999 493.571 280.299 491.034 278.599 488.8C275.999 485.552 275.899 482 275.999 477.939C275.999 477.635 275.899 477.229 275.599 477.026C275.399 476.924 271.599 473.575 265.899 470.428C260.599 467.484 252.499 464.135 244.499 464.744C242.999 464.845 241.699 465.15 240.399 465.556C240.899 466.165 241.299 466.875 241.499 467.586C242.499 467.281 243.499 467.078 244.699 466.977C257.799 465.962 271.299 476.417 273.799 478.447C273.699 482.507 273.999 486.567 276.899 490.221C278.999 492.861 284.799 495.5 289.399 497.631C291.299 498.545 292.999 499.256 293.999 499.865C295.299 500.677 307.399 507.782 314.599 517.323C314.799 517.628 315.199 517.831 315.599 517.73C315.999 517.73 316.299 517.425 316.499 517.121C317.499 515.293 325.099 509.812 329.599 506.868C330.099 506.259 330.299 505.65 330.199 505.244Z" fill="white"/>
<path d="M101.4 361.919C91.6 361.919 83 360.193 75.8 356.742C68.6 353.291 62.6 348.621 57.9 342.836C53.2 337.05 49.7 330.858 47.4 324.26C45.1 317.662 44 311.267 44 305.075V301.726C44 294.925 45.2 288.225 47.6 281.526C50 274.827 53.6 268.736 58.4 263.255C63.2 257.774 69.2 253.409 76.4 250.161C83.6 246.913 91.9 245.289 101.5 245.289C111.1 245.289 119.4 246.913 126.6 250.161C133.8 253.409 139.8 257.774 144.7 263.255C149.5 268.736 153.1 274.827 155.5 281.526C157.9 288.225 159.1 295.026 159.1 301.726V305.075C159.1 311.267 157.9 317.662 155.6 324.26C153.3 330.858 149.7 337.05 145 342.836C140.3 348.621 134.3 353.189 127.1 356.742C119.7 360.193 111.2 361.919 101.4 361.919ZM101.4 342.023C107 342.023 112 341.008 116.5 338.978C121 336.948 124.8 334.208 127.9 330.553C131 327.001 133.4 322.839 135.1 318.271C136.7 313.703 137.6 308.831 137.6 303.654C137.6 298.173 136.8 293.199 135.1 288.53C133.4 283.861 131 279.801 127.9 276.349C124.8 272.898 121 270.157 116.6 268.229C112.2 266.3 107.2 265.387 101.6 265.387C96.1 265.387 91.2 266.3 86.7 268.229C82.2 270.157 78.4 272.898 75.3 276.349C72.2 279.801 69.8 283.861 68.1 288.53C66.5 293.199 65.6 298.173 65.6 303.654C65.6 308.831 66.4 313.703 68.1 318.271C69.7 322.839 72.1 327.001 75.3 330.553C78.4 334.106 82.2 336.948 86.7 338.978C90.9 341.008 95.9 342.023 101.4 342.023Z" fill="white"/>
<path d="M215.6 361.919C206.1 361.919 197.9 360.396 191.3 357.249C184.6 354.103 179.6 349.839 176.2 344.257C172.8 338.775 171.1 332.482 171.1 325.58H191.8C191.8 328.523 192.6 331.365 194.2 334.106C195.8 336.847 198.4 339.08 201.9 340.805C205.4 342.531 210 343.343 215.7 343.343C221 343.343 225.3 342.632 228.8 341.11C232.3 339.587 234.8 337.557 236.6 335.121C238.3 332.685 239.2 329.843 239.2 326.696C239.2 322.839 237.6 319.794 234.3 317.358C231 315.023 225.9 313.5 218.9 312.891L209.4 311.978C199 311.064 190.6 307.715 184.4 302.03C178.2 296.346 175.1 288.733 175.1 279.394C175.1 272.289 176.7 266.199 180 261.123C183.3 256.048 187.9 252.089 193.8 249.349C199.7 246.608 206.7 245.187 214.6 245.187C222.9 245.187 230 246.608 236 249.552C242 252.495 246.6 256.556 249.9 261.935C253.1 267.214 254.7 273.507 254.7 280.612H234C234 277.669 233.3 274.928 231.9 272.391C230.5 269.853 228.4 267.721 225.5 266.097C222.6 264.473 219 263.661 214.6 263.661C210.4 263.661 207 264.372 204.2 265.894C201.5 267.315 199.4 269.244 198 271.68C196.6 274.015 195.9 276.654 195.9 279.496C195.9 282.947 197.1 285.891 199.6 288.53C202.1 291.068 206 292.59 211.4 292.996L220.8 293.91C228.7 294.519 235.5 296.143 241.3 298.884C247.1 301.624 251.7 305.278 255 309.948C258.3 314.617 259.9 320.2 259.9 326.798C259.9 333.801 258.1 339.892 254.5 345.17C250.9 350.448 245.8 354.61 239.2 357.554C232.5 360.497 224.7 361.919 215.6 361.919Z" fill="white"/>
<path d="M328.301 361.919C318.401 361.919 309.901 360.193 302.901 356.742C295.901 353.291 290.201 348.621 285.701 342.937C281.301 337.253 278.001 331.061 275.901 324.463C273.801 317.865 272.801 311.369 272.801 305.177V301.827C272.801 294.925 273.901 288.226 276.001 281.526C278.101 274.827 281.401 268.838 285.801 263.357C290.201 257.875 295.901 253.511 302.801 250.262C309.701 247.014 317.901 245.39 327.301 245.39C337.101 245.39 345.701 247.217 353.101 250.871C360.501 254.526 366.301 259.601 370.701 265.996C375.101 272.492 377.701 280.004 378.601 288.733H357.101C356.401 283.658 354.701 279.496 352.001 276.045C349.301 272.594 345.801 269.955 341.601 268.127C337.401 266.3 332.601 265.387 327.401 265.387C322.101 265.387 317.401 266.3 313.201 268.229C309.001 270.158 305.501 272.797 302.801 276.248C300.001 279.699 297.901 283.759 296.501 288.327C295.101 292.996 294.301 298.072 294.301 303.654C294.301 309.136 295.001 314.109 296.501 318.779C297.901 323.448 300.101 327.508 303.001 330.959C305.901 334.411 309.401 337.151 313.701 339.08C317.901 341.008 322.801 341.922 328.401 341.922C336.601 341.922 343.401 339.892 349.001 335.832C354.601 331.771 358.001 325.986 359.101 318.677H380.601C379.601 326.595 377.001 333.802 372.701 340.298C368.401 346.896 362.601 352.073 355.101 356.031C347.501 359.99 338.601 361.919 328.301 361.919Z" fill="white"/>
<path d="M398.4 359.076V247.826H419.6V359.178H398.4V359.076ZM416.6 325.173V306.496H437.8C442 306.496 445.5 305.684 448.5 303.959C451.4 302.233 453.7 299.899 455.3 296.853C456.9 293.808 457.7 290.357 457.7 286.601C457.7 282.541 456.9 278.988 455.3 276.045C453.7 273 451.4 270.665 448.5 269.041C445.6 267.417 442 266.503 437.8 266.503H416.6V247.928H436C445.1 247.928 452.9 249.45 459.3 252.495C465.7 255.541 470.6 259.804 474 265.488C477.4 271.071 479.1 277.77 479.1 285.586V288.022C479.1 295.635 477.4 302.233 474 307.816C470.6 313.5 465.7 317.764 459.3 320.809C452.9 323.854 445.1 325.376 436 325.376H416.6V325.173Z" fill="white"/>
<path fill-rule="evenodd" clip-rule="evenodd" d="M166.5 159.313C166.5 165.809 167 172.204 167.9 178.599L169.9 192.302C168.1 192.607 166.4 192.81 164.5 192.81C162.6 192.81 160.9 192.607 159.1 192.302L161.1 178.599C162 172.204 162.5 165.809 162.5 159.313V130.485C163.2 130.485 163.9 130.384 164.6 130.384C165.3 130.384 166 130.384 166.7 130.485V159.313H166.5ZM145.8 186.516L153.8 170.682C154.4 169.463 154.7 168.144 154.7 166.824V132.008C142.5 136.17 133.6 147.843 133.6 161.648C133.7 171.798 138.5 180.832 145.8 186.516ZM174.2 166.824C174.2 168.144 174.5 169.463 175.1 170.682L183.1 186.516C190.5 180.832 195.2 171.798 195.2 161.648C195.2 147.843 186.4 136.17 174.1 132.008V166.824H174.2Z" fill="white"/>
<path d="M385 151.497V150.786H388.4V151.497H385ZM386.3 155.252V151.294H387V155.252H386.3ZM389.1 155.252V150.888H389.8V155.252H389.1ZM391.2 155.252L389.3 150.888H390.1L391.4 154.136L392.7 150.888H393.5L391.6 155.252H391.2ZM392.9 155.252V150.888H393.6V155.252H392.9Z" fill="white"/>
<path d="M230.5 142.564C219 142.564 210.6 150.887 210.6 162.459V162.865C210.6 174.538 218.8 182.76 230.5 182.76C242.2 182.76 250.3 174.538 250.3 162.764V162.358C250.3 150.684 242.1 142.564 230.5 142.564ZM218.7 162.459C218.7 154.136 223.2 148.959 230.5 148.959C237.8 148.959 242.2 154.237 242.2 162.459V162.865C242.2 171.087 237.6 176.467 230.6 176.467C223.6 176.467 218.7 170.884 218.7 162.967V162.459Z" fill="white"/>
<path d="M286.399 141.042C285.099 140.636 284.099 140.534 282.499 140.534C276.299 140.534 272.699 144.087 272.699 150.38V153.527H261.899V150.076C261.899 146.929 263.799 146.219 265.299 146.219C266.499 146.219 267.499 146.523 268.099 146.726C268.199 146.726 268.299 146.726 268.399 146.726C268.499 146.625 268.499 146.625 268.499 146.523V141.448C268.499 141.346 268.399 141.245 268.299 141.143C266.999 140.737 265.999 140.636 264.499 140.636C258.199 140.636 254.699 144.087 254.699 150.482V182.05C254.699 182.253 254.799 182.355 254.999 182.355H261.499C261.699 182.355 261.799 182.253 261.799 182.05V158.907H272.599V181.847C272.599 182.05 272.699 182.152 272.899 182.152H279.399C279.599 182.152 279.699 182.05 279.699 181.847V158.907H285.799C285.999 158.907 286.099 158.805 286.099 158.602V153.73C286.099 153.527 285.999 153.425 285.799 153.425H279.699V150.076C279.699 146.929 281.599 146.219 283.099 146.219C284.399 146.219 285.399 146.523 285.999 146.726C286.099 146.726 286.199 146.726 286.299 146.726C286.399 146.726 286.399 146.625 286.399 146.523V141.448C286.599 141.245 286.599 141.143 286.399 141.042Z" fill="white"/>
<path d="M305.7 158.703C299.1 157.79 297.9 156.267 297.9 153.324C297.9 150.38 300.3 148.553 304.3 148.553C308.7 148.553 310.8 150.177 311.5 154.034C311.5 154.136 311.6 154.237 311.8 154.237H318.4C318.5 154.237 318.6 154.237 318.6 154.136C318.7 154.034 318.7 154.034 318.7 153.933C317.9 146.421 313 142.462 304.3 142.462C296.2 142.462 290.5 147.132 290.5 153.831C290.5 160.53 294.4 164.083 304.4 165.403C311.1 166.519 312.2 168.042 312.2 170.985C312.2 174.335 309.4 176.568 305.2 176.568C298.7 176.568 297.3 173.32 296.9 169.767C296.9 169.666 296.8 169.463 296.6 169.463H289.7C289.6 169.463 289.5 169.463 289.5 169.564C289.5 169.666 289.4 169.666 289.4 169.767C289.8 175.553 292.9 182.557 305.2 182.557C313.6 182.557 319.7 177.38 319.7 170.376C319.8 162.358 314.4 159.921 305.7 158.703Z" fill="white"/>
<path d="M347.599 156.268C345.199 154.034 341.899 152.816 338.099 152.816C329.599 152.816 323.699 158.907 323.699 167.636V168.042C323.699 176.772 329.599 182.659 338.299 182.659C345.799 182.659 350.699 179.208 351.599 173.219C351.599 173.118 351.599 173.016 351.499 173.016C351.399 172.915 351.399 172.915 351.299 172.915H344.999C344.899 172.915 344.699 173.016 344.699 173.118C344.199 175.858 342.099 177.178 338.499 177.178C333.999 177.178 331.299 174.437 330.999 169.463H351.399C351.599 169.463 351.699 169.362 351.699 169.159V167.23C351.699 162.561 350.299 158.805 347.599 156.268ZM331.199 164.591C331.899 160.531 334.399 158.196 338.099 158.196C342.099 158.196 344.299 160.328 344.599 164.591H331.199Z" fill="white"/>
<path d="M384.099 171.189C383.999 171.088 383.999 171.088 383.899 171.088H377.899C377.699 171.088 377.599 171.189 377.599 171.392C377.299 174.843 374.699 177.178 371.099 177.178C366.299 177.178 363.599 173.828 363.599 168.144V167.738C363.599 162.257 366.499 158.805 370.999 158.805C374.599 158.805 376.699 160.531 377.199 163.881C377.199 163.982 377.299 164.185 377.499 164.185H383.799C383.899 164.185 383.999 164.185 383.999 164.084C384.099 163.982 384.099 163.982 384.099 163.881C383.399 156.978 378.599 153.02 370.899 153.02C362.399 153.02 356.299 159.313 356.299 167.941V168.347C356.299 177.076 362.199 182.964 370.899 182.964C378.499 182.964 383.799 178.497 384.299 171.595C384.199 171.392 384.199 171.291 384.099 171.189Z" fill="white"/>
<defs>
<linearGradient id="paint0_linear_831_12696" x1="259.999" y1="536.338" x2="259.999" y2="109.622" gradientUnits="userSpaceOnUse">
<stop stop-color="#BA4F00"/>
<stop offset="1" stop-color="#E66124"/>
</linearGradient>
<linearGradient id="paint1_linear_831_12696" x1="259.999" y1="679.122" x2="259.999" y2="235.189" gradientUnits="userSpaceOnUse">
<stop stop-color="#E66124"/>
<stop offset="1" stop-color="#BA4F00"/>
</linearGradient>
<linearGradient id="paint2_linear_831_12696" x1="260" y1="183.977" x2="260" y2="390.998" gradientUnits="userSpaceOnUse">
<stop stop-color="#E66124"/>
<stop offset="1" stop-color="#BA4F00"/>
</linearGradient>
</defs>
</svg>
