<svg width="520" height="600" viewBox="0 0 520 600" fill="none" xmlns="http://www.w3.org/2000/svg">
<path d="M0 165.2V434.698C0 445.559 5.7 455.608 15 461.09L245 595.889C254.3 601.37 265.7 601.37 275 595.889L505 461.09C514.3 455.608 520 445.559 520 434.698V165.2C520 154.339 514.3 144.29 505 138.809L275 4.11098C265.7 -1.37033 254.3 -1.37033 245 4.11098L15 138.809C5.7 144.29 0 154.339 0 165.2Z" fill="url(#paint0_linear_831_13126)"/>
<path d="M31 183.37V416.63C31 427.491 36.7 437.54 46 443.021L245 559.651C254.3 565.133 265.7 565.133 275 559.651L474 443.021C483.3 437.54 489 427.491 489 416.63V183.37C489 172.509 483.3 162.46 474 156.978L275 40.4498C265.7 34.9685 254.3 34.9685 245 40.4498L46 156.978C36.7 162.46 31 172.509 31 183.37Z" fill="url(#paint1_linear_831_13126)"/>
<path d="M520 220.927H0V393.08H520V220.927Z" fill="url(#paint2_linear_831_13126)"/>
<path d="M91.2 361.919C81.6 361.919 73.2 360.193 66.2 356.843C59.1 353.392 53.3 348.926 48.7 343.242C44.1 337.659 40.6 331.568 38.4 325.072C36.2 318.576 35 312.384 35 306.293V303.045C35 296.447 36.2 289.85 38.5 283.252C40.8 276.654 44.4 270.766 49.1 265.387C53.8 260.007 59.7 255.744 66.7 252.597C73.7 249.349 81.9 247.826 91.2 247.826C100.5 247.826 108.7 249.45 115.8 252.597C122.9 255.845 128.7 260.108 133.5 265.387C138.2 270.766 141.7 276.654 144.1 283.252C146.4 289.85 147.6 296.447 147.6 303.045V306.293C147.6 312.282 146.5 318.576 144.2 325.072C141.9 331.568 138.5 337.557 133.8 343.242C129.2 348.824 123.3 353.392 116.3 356.843C109.2 360.193 100.9 361.919 91.2 361.919ZM91.2 342.328C96.6 342.328 101.6 341.313 105.9 339.384C110.3 337.456 114 334.715 117.1 331.162C120.2 327.61 122.5 323.651 124.1 319.185C125.7 314.718 126.5 309.948 126.5 304.872C126.5 299.493 125.7 294.62 124 290.053C122.3 285.485 120 281.526 116.9 278.075C113.8 274.624 110.1 271.985 105.8 270.157C101.5 268.33 96.6 267.315 91.1 267.315C85.7 267.315 80.9 268.229 76.5 270.157C72.1 271.985 68.4 274.725 65.3 278.075C62.2 281.526 59.9 285.485 58.3 290.053C56.7 294.62 55.9 299.493 55.9 304.872C55.9 309.948 56.7 314.718 58.3 319.185C59.9 323.651 62.2 327.711 65.3 331.162C68.4 334.715 72.1 337.456 76.5 339.384C81 341.313 85.9 342.328 91.2 342.328Z" fill="white"/>
<path d="M203.1 361.918C193.8 361.918 185.8 360.396 179.3 357.351C172.8 354.306 167.8 350.042 164.5 344.663C161.1 339.283 159.5 333.192 159.5 326.392H179.8C179.8 329.234 180.6 332.076 182.1 334.715C183.7 337.456 186.2 339.587 189.6 341.313C193.1 343.038 197.6 343.85 203.1 343.85C208.3 343.85 212.5 343.14 215.9 341.617C219.3 340.095 221.8 338.166 223.5 335.73C225.2 333.294 226.1 330.553 226.1 327.508C226.1 323.752 224.5 320.707 221.3 318.373C218.1 316.038 213.1 314.617 206.3 314.008L197 313.094C186.8 312.181 178.6 308.933 172.5 303.35C166.4 297.767 163.4 290.357 163.4 281.221C163.4 274.319 165 268.33 168.2 263.356C171.4 258.383 175.9 254.525 181.7 251.785C187.5 249.044 194.3 247.725 202.1 247.725C210.2 247.725 217.2 249.146 223.1 251.988C229 254.83 233.5 258.89 236.7 264.067C239.9 269.244 241.4 275.334 241.4 282.338H221.1C221.1 279.496 220.4 276.755 219.1 274.218C217.7 271.68 215.6 269.65 212.8 268.026C210 266.402 206.4 265.691 202.1 265.691C198 265.691 194.6 266.402 192 267.823C189.3 269.244 187.3 271.172 185.9 273.406C184.5 275.74 183.9 278.278 183.9 281.018C183.9 284.368 185.1 287.312 187.6 289.849C190 292.387 193.9 293.808 199.1 294.214L208.3 295.128C216 295.737 222.7 297.361 228.4 300C234.1 302.639 238.5 306.293 241.8 310.861C245 315.429 246.6 320.91 246.6 327.305C246.6 334.106 244.8 340.095 241.3 345.272C237.8 350.448 232.8 354.509 226.3 357.351C219.6 360.497 211.9 361.918 203.1 361.918Z" fill="white"/>
<path d="M280.301 359.076L253.301 250.871H274.801L296.801 344.967L291.101 341.516H305.701L299.301 344.967L316.701 255.033H334.501L312.901 359.076H280.301ZM344.101 359.076L320.601 255.033H339.101L359.101 344.967L352.801 341.516H367.101L361.601 344.967L380.901 250.871H401.301L377.101 359.076H344.101Z" fill="white"/>
<path d="M418 359.076V250.871H438.3V359.076H418ZM435.4 268.736V250.973H482.6V268.736H435.4ZM435.4 312.993V295.229H479.9V312.993H435.4ZM435.4 359.076V341.313H483.7V359.076H435.4Z" fill="white"/>
<path d="M260.6 500.169L263.2 496.718C263.4 496.515 263.4 496.109 263.3 495.805C263.2 495.5 262.9 495.297 262.6 495.297H257.4C257.1 495.297 256.8 495.5 256.7 495.805C256.6 496.109 256.6 496.414 256.8 496.718L259.4 500.169L256.8 503.621C256.6 503.824 256.6 504.23 256.7 504.534C256.8 504.839 257.1 505.042 257.4 505.042H262.6C262.9 505.042 263.2 504.839 263.3 504.534C263.4 504.23 263.4 503.925 263.2 503.621L260.6 500.169ZM260.9 497.124L259.9 498.342L258.9 497.124H260.9ZM259 503.316L260 502.098L261 503.316H259Z" fill="white"/>
<path d="M301.288 524.998C304.069 524.269 305.742 521.391 305.024 518.568C304.306 515.745 301.47 514.047 298.689 514.776C295.909 515.504 294.236 518.383 294.954 521.206C295.671 524.029 298.508 525.726 301.288 524.998Z" fill="white"/>
<path d="M300.802 495.703L285.502 480.173C285.302 479.97 285.002 479.767 284.602 479.767H270.402C270.802 478.752 271.002 477.737 271.102 476.62H284.002C284.302 476.62 284.602 476.519 284.902 476.214L300.202 460.684C300.402 460.481 300.602 460.176 300.602 459.77V440.484C300.602 440.382 300.602 440.382 300.602 440.281C300.202 440.382 299.802 440.382 299.402 440.382C299.002 440.382 298.502 440.281 298.102 440.179C298.102 440.281 298.102 440.281 298.102 440.382V459.364L283.502 474.184H271.002C270.902 473.676 270.802 473.169 270.702 472.763L284.502 458.755C284.702 458.552 284.902 458.247 284.902 457.841V435.003C284.902 434.698 284.802 434.394 284.502 434.089L270.702 420.081C270.202 419.574 269.402 419.574 269.002 420.081C268.502 420.589 268.502 421.401 269.002 421.807L282.402 435.409V457.334L269.702 470.225C268.702 468.297 267.102 466.774 265.202 465.759L266.502 463.729C266.702 463.424 266.702 463.018 266.502 462.815L263.802 459.161C263.502 458.755 263.002 458.755 262.702 458.958C262.302 459.263 262.302 459.77 262.502 460.075L264.902 463.221L263.802 464.947C262.602 464.541 261.402 464.236 260.002 464.236C258.702 464.236 257.502 464.439 256.402 464.845L255.302 463.12L257.702 459.973C258.002 459.567 257.902 459.06 257.502 458.857C257.102 458.552 256.602 458.654 256.402 459.06L253.702 462.714C253.502 463.018 253.502 463.323 253.702 463.627L254.902 465.556C253.002 466.571 251.402 468.094 250.302 470.022L237.602 457.334V435.51L251.002 421.807C251.502 421.299 251.502 420.487 251.002 420.081C250.502 419.574 249.702 419.574 249.302 420.081L235.502 434.089C235.302 434.292 235.102 434.597 235.102 435.003V457.841C235.102 458.146 235.202 458.45 235.502 458.755L249.202 472.661C249.102 473.169 249.002 473.676 248.902 474.184H236.502L222.002 459.364V440.585V440.484C221.602 440.585 221.202 440.585 220.802 440.585C220.402 440.585 220.002 440.484 219.602 440.382V440.484V459.77C219.602 460.075 219.702 460.379 220.002 460.684L235.302 476.214C235.502 476.417 235.802 476.62 236.202 476.62H249.002C249.102 477.737 249.302 478.752 249.702 479.767H235.702C235.402 479.767 235.102 479.868 234.802 480.173L219.502 495.703C219.302 495.906 219.102 496.211 219.102 496.617V515.294C219.402 515.192 219.802 515.192 220.202 515.192C220.702 515.192 221.202 515.294 221.602 515.395V497.124L236.202 482.304H249.802C247.902 483.725 246.402 485.552 245.302 487.583C245.302 487.583 245.202 487.583 245.202 487.684L235.302 497.733C235.102 497.936 234.902 498.241 234.902 498.647V521.486C234.902 521.79 235.002 522.095 235.302 522.399L249.102 536.407C249.302 536.61 249.702 536.813 250.002 536.813C250.302 536.813 250.602 536.711 250.902 536.407C251.402 535.899 251.402 535.087 250.902 534.681L237.502 521.079V499.256L243.502 493.165C243.302 494.18 243.202 495.196 243.202 496.312C243.202 505.955 250.902 513.771 260.402 513.771C269.902 513.771 277.602 505.955 277.602 496.312C277.602 495.196 277.502 494.079 277.302 493.064L283.402 499.256V521.079L270.002 534.681C269.502 535.189 269.502 536.001 270.002 536.407C270.202 536.61 270.602 536.813 270.902 536.813C271.202 536.813 271.502 536.711 271.802 536.407L285.602 522.399C285.802 522.196 286.002 521.892 286.002 521.486V498.647C286.002 498.342 285.902 498.038 285.602 497.733L275.702 487.684C275.602 487.583 275.502 487.583 275.402 487.481C274.302 485.451 272.802 483.725 270.902 482.304H284.602L299.202 497.124V514.786C299.602 514.685 300.102 514.583 300.502 514.583C300.902 514.583 301.302 514.583 301.702 514.685V496.515C301.102 496.211 301.002 495.906 300.802 495.703ZM274.802 496.211C274.802 504.433 268.202 511.233 260.002 511.233C251.902 511.233 245.202 504.534 245.202 496.211C245.202 490.831 248.102 485.756 252.802 483.116C253.102 482.913 253.302 482.609 253.402 482.304C253.502 481.898 253.402 481.594 253.202 481.289C252.002 479.665 251.302 477.838 251.302 475.808C251.302 475.706 251.402 475.605 251.402 475.402C251.402 475.3 251.402 475.199 251.402 475.097C251.702 470.53 255.502 466.875 260.102 466.875C264.902 466.875 268.802 470.834 268.802 475.706C268.802 477.737 268.102 479.665 266.902 481.188C266.702 481.492 266.602 481.797 266.702 482.203C266.802 482.609 267.002 482.913 267.302 483.015C271.902 485.756 274.802 490.831 274.802 496.211Z" fill="white"/>
<path d="M299.401 440.484C296.501 440.484 294.201 438.149 294.201 435.206C294.201 432.262 296.501 429.927 299.401 429.927C302.301 429.927 304.601 432.262 304.601 435.206C304.601 438.149 302.301 440.484 299.401 440.484ZM299.401 432.465C297.901 432.465 296.701 433.683 296.701 435.206C296.701 436.728 297.901 437.946 299.401 437.946C300.901 437.946 302.101 436.728 302.101 435.206C302.201 433.785 300.901 432.465 299.401 432.465Z" fill="white"/>
<path d="M220.7 440.585C223.572 440.585 225.9 438.222 225.9 435.307C225.9 432.392 223.572 430.029 220.7 430.029C217.828 430.029 215.5 432.392 215.5 435.307C215.5 438.222 217.828 440.585 220.7 440.585Z" fill="white"/>
<path d="M220.001 525.647C217.101 525.647 214.801 523.313 214.801 520.369C214.801 517.425 217.101 515.091 220.001 515.091C222.901 515.091 225.201 517.425 225.201 520.369C225.201 523.313 222.901 525.647 220.001 525.647ZM220.001 517.628C218.501 517.628 217.301 518.847 217.301 520.369C217.301 521.892 218.501 523.11 220.001 523.11C221.501 523.11 222.701 521.892 222.701 520.369C222.701 518.847 221.501 517.628 220.001 517.628Z" fill="white"/>
<path fill-rule="evenodd" clip-rule="evenodd" d="M166.5 159.313C166.5 165.81 167 172.205 167.9 178.599L169.9 192.303C168.1 192.607 166.4 192.81 164.5 192.81C162.6 192.81 160.9 192.607 159.1 192.303L161.1 178.599C162 172.205 162.5 165.81 162.5 159.313V130.486C163.2 130.486 163.9 130.384 164.6 130.384C165.3 130.384 166 130.384 166.7 130.486V159.313H166.5ZM145.8 186.517L153.8 170.682C154.4 169.464 154.7 168.144 154.7 166.825V132.008C142.5 136.17 133.6 147.843 133.6 161.648C133.7 171.799 138.5 180.833 145.8 186.517ZM174.2 166.825C174.2 168.144 174.5 169.464 175.1 170.682L183.1 186.517C190.5 180.833 195.2 171.799 195.2 161.648C195.2 147.843 186.4 136.17 174.1 132.008V166.825H174.2Z" fill="white"/>
<path d="M385 151.498V150.787H388.4V151.498H385ZM386.3 155.253V151.295H387V155.253H386.3ZM389.1 155.253V150.889H389.8V155.253H389.1ZM391.2 155.253L389.3 150.889H390.1L391.4 154.137L392.7 150.889H393.5L391.6 155.253H391.2ZM392.9 155.253V150.889H393.6V155.253H392.9Z" fill="white"/>
<path d="M230.5 142.565C219 142.565 210.6 150.888 210.6 162.46V162.866C210.6 174.539 218.8 182.761 230.5 182.761C242.2 182.761 250.3 174.539 250.3 162.765V162.359C250.3 150.685 242.1 142.565 230.5 142.565ZM218.7 162.46C218.7 154.137 223.2 148.96 230.5 148.96C237.8 148.96 242.2 154.238 242.2 162.46V162.866C242.2 171.088 237.6 176.468 230.6 176.468C223.6 176.468 218.7 170.885 218.7 162.968V162.46Z" fill="white"/>
<path d="M286.399 141.042C285.099 140.636 284.099 140.535 282.499 140.535C276.299 140.535 272.699 144.087 272.699 150.381V153.527H261.899V150.076C261.899 146.93 263.799 146.219 265.299 146.219C266.499 146.219 267.499 146.524 268.099 146.727C268.199 146.727 268.299 146.727 268.399 146.727C268.499 146.625 268.499 146.625 268.499 146.524V141.448C268.499 141.347 268.399 141.245 268.299 141.144C266.999 140.738 265.999 140.636 264.499 140.636C258.199 140.636 254.699 144.087 254.699 150.482V182.05C254.699 182.254 254.799 182.355 254.999 182.355H261.499C261.699 182.355 261.799 182.254 261.799 182.05V158.907H272.599V181.847C272.599 182.051 272.699 182.152 272.899 182.152H279.399C279.599 182.152 279.699 182.051 279.699 181.847V158.907H285.799C285.999 158.907 286.099 158.806 286.099 158.603V153.73C286.099 153.527 285.999 153.426 285.799 153.426H279.699V150.076C279.699 146.93 281.599 146.219 283.099 146.219C284.399 146.219 285.399 146.524 285.999 146.727C286.099 146.727 286.199 146.727 286.299 146.727C286.399 146.727 286.399 146.625 286.399 146.524V141.448C286.599 141.245 286.599 141.144 286.399 141.042Z" fill="white"/>
<path d="M305.7 158.704C299.1 157.791 297.9 156.268 297.9 153.324C297.9 150.381 300.3 148.554 304.3 148.554C308.7 148.554 310.8 150.178 311.5 154.035C311.5 154.137 311.6 154.238 311.8 154.238H318.4C318.5 154.238 318.6 154.238 318.6 154.137C318.7 154.035 318.7 154.035 318.7 153.934C317.9 146.422 313 142.463 304.3 142.463C296.2 142.463 290.5 147.133 290.5 153.832C290.5 160.531 294.4 164.084 304.4 165.404C311.1 166.52 312.2 168.043 312.2 170.986C312.2 174.336 309.4 176.569 305.2 176.569C298.7 176.569 297.3 173.321 296.9 169.768C296.9 169.667 296.8 169.464 296.6 169.464H289.7C289.6 169.464 289.5 169.464 289.5 169.565C289.5 169.667 289.4 169.667 289.4 169.768C289.8 175.554 292.9 182.558 305.2 182.558C313.6 182.558 319.7 177.381 319.7 170.377C319.8 162.358 314.4 159.922 305.7 158.704Z" fill="white"/>
<path d="M347.599 156.268C345.199 154.035 341.899 152.817 338.099 152.817C329.599 152.817 323.699 158.907 323.699 167.637V168.043C323.699 176.772 329.599 182.66 338.299 182.66C345.799 182.66 350.699 179.208 351.599 173.22C351.599 173.118 351.599 173.017 351.499 173.017C351.399 172.915 351.399 172.915 351.299 172.915H344.999C344.899 172.915 344.699 173.017 344.699 173.118C344.199 175.859 342.099 177.178 338.499 177.178C333.999 177.178 331.299 174.438 330.999 169.464H351.399C351.599 169.464 351.699 169.362 351.699 169.159V167.231C351.699 162.561 350.299 158.806 347.599 156.268ZM331.199 164.592C331.899 160.531 334.399 158.197 338.099 158.197C342.099 158.197 344.299 160.328 344.599 164.592H331.199Z" fill="white"/>
<path d="M384.099 171.19C383.999 171.088 383.999 171.088 383.899 171.088H377.899C377.699 171.088 377.599 171.19 377.599 171.393C377.299 174.844 374.699 177.178 371.099 177.178C366.299 177.178 363.599 173.829 363.599 168.144V167.738C363.599 162.257 366.499 158.806 370.999 158.806C374.599 158.806 376.699 160.531 377.199 163.881C377.199 163.983 377.299 164.186 377.499 164.186H383.799C383.899 164.186 383.999 164.186 383.999 164.084C384.099 163.983 384.099 163.983 384.099 163.881C383.399 156.979 378.599 153.02 370.899 153.02C362.399 153.02 356.299 159.313 356.299 167.941V168.347C356.299 177.077 362.199 182.964 370.899 182.964C378.499 182.964 383.799 178.498 384.299 171.596C384.199 171.393 384.199 171.291 384.099 171.19Z" fill="white"/>
<defs>
<linearGradient id="paint0_linear_831_13126" x1="259.999" y1="597.252" x2="259.999" y2="84.2309" gradientUnits="userSpaceOnUse">
<stop stop-color="#398583"/>
<stop offset="1" stop-color="#00BBB4"/>
</linearGradient>
<linearGradient id="paint1_linear_831_13126" x1="259.999" y1="679.122" x2="259.999" y2="235.189" gradientUnits="userSpaceOnUse">
<stop stop-color="#00BBB4"/>
<stop offset="1" stop-color="#398583"/>
</linearGradient>
<linearGradient id="paint2_linear_831_13126" x1="260" y1="183.977" x2="260" y2="467.054" gradientUnits="userSpaceOnUse">
<stop stop-color="#00BBB4"/>
<stop offset="1" stop-color="#398583"/>
</linearGradient>
</defs>
</svg>
