<svg width="520" height="600" viewBox="0 0 520 600" fill="none" xmlns="http://www.w3.org/2000/svg">
<path d="M0 165.2V434.698C0 445.559 5.7 455.608 15 461.09L245 595.889C254.3 601.37 265.7 601.37 275 595.889L505 461.09C514.3 455.608 520 445.559 520 434.698V165.2C520 154.339 514.3 144.29 505 138.809L275 4.11098C265.7 -1.37033 254.3 -1.37033 245 4.11098L15 138.809C5.7 144.29 0 154.339 0 165.2Z" fill="url(#paint0_linear_831_12734)"/>
<path d="M31 183.37V416.63C31 427.491 36.7 437.54 46 443.021L245 559.651C254.3 565.133 265.7 565.133 275 559.651L474 443.021C483.3 437.54 489 427.491 489 416.63V183.37C489 172.509 483.3 162.46 474 156.978L275 40.4498C265.7 34.9685 254.3 34.9685 245 40.4498L46 156.978C36.7 162.46 31 172.509 31 183.37Z" fill="url(#paint1_linear_831_12734)"/>
<path d="M520 220.927H0V393.08H520V220.927Z" fill="url(#paint2_linear_831_12734)"/>
<path d="M93.5992 361.919C83.7992 361.919 75.1992 360.193 67.9992 356.742C60.7992 353.291 54.7992 348.621 50.0992 342.836C45.3992 337.05 41.8992 330.858 39.5992 324.26C37.2992 317.662 36.1992 311.267 36.1992 305.075V301.726C36.1992 294.925 37.3992 288.225 39.7992 281.526C42.1992 274.827 45.7992 268.736 50.5992 263.255C55.3992 257.774 61.3992 253.409 68.5992 250.161C75.7992 246.913 84.0992 245.289 93.6992 245.289C103.199 245.289 111.599 246.913 118.799 250.161C125.999 253.409 131.999 257.774 136.899 263.255C141.699 268.736 145.299 274.827 147.699 281.526C150.099 288.225 151.299 295.026 151.299 301.726V305.075C151.299 311.267 150.099 317.662 147.799 324.26C145.499 330.858 141.899 337.05 137.199 342.836C132.499 348.621 126.499 353.189 119.299 356.742C111.999 360.193 103.399 361.919 93.5992 361.919ZM93.5992 342.023C99.1992 342.023 104.199 341.008 108.699 338.978C113.199 336.948 116.999 334.208 120.099 330.553C123.199 327.001 125.599 322.839 127.299 318.271C128.899 313.703 129.799 308.831 129.799 303.654C129.799 298.173 128.999 293.199 127.299 288.53C125.599 283.861 123.199 279.801 120.099 276.349C116.999 272.898 113.199 270.157 108.799 268.229C104.399 266.3 99.3992 265.387 93.7992 265.387C88.2992 265.387 83.3992 266.3 78.8992 268.229C74.3992 270.157 70.5992 272.898 67.4992 276.349C64.3992 279.801 61.9992 283.861 60.2992 288.53C58.6992 293.199 57.7992 298.173 57.7992 303.654C57.7992 308.831 58.5992 313.703 60.2992 318.271C61.8992 322.839 64.2992 327.001 67.4992 330.553C70.5992 334.106 74.3992 336.948 78.8992 338.978C83.1992 341.008 88.0992 342.023 93.5992 342.023Z" fill="white"/>
<path d="M208.5 361.919C199 361.919 190.8 360.396 184.2 357.249C177.5 354.103 172.5 349.839 169.1 344.257C165.7 338.775 164 332.482 164 325.58H184.7C184.7 328.523 185.5 331.365 187.1 334.106C188.7 336.847 191.3 339.08 194.8 340.805C198.3 342.531 202.9 343.343 208.6 343.343C213.9 343.343 218.2 342.632 221.7 341.11C225.1 339.587 227.7 337.557 229.5 335.121C231.2 332.685 232.1 329.843 232.1 326.696C232.1 322.839 230.5 319.794 227.2 317.358C223.9 315.023 218.8 313.5 211.8 312.891L202.3 311.978C191.9 311.064 183.5 307.715 177.3 302.03C171.1 296.346 168 288.733 168 279.394C168 272.289 169.6 266.199 172.9 261.123C176.2 256.048 180.8 252.089 186.7 249.349C192.6 246.608 199.6 245.187 207.5 245.187C215.8 245.187 222.9 246.608 228.9 249.552C234.9 252.495 239.5 256.556 242.8 261.935C246 267.214 247.6 273.507 247.6 280.612H226.9C226.9 277.669 226.2 274.928 224.8 272.391C223.4 269.853 221.3 267.721 218.4 266.097C215.5 264.473 211.9 263.661 207.5 263.661C203.3 263.661 199.9 264.372 197.1 265.894C194.4 267.315 192.3 269.244 190.9 271.68C189.5 274.015 188.8 276.654 188.8 279.496C188.8 282.947 190 285.891 192.5 288.53C195 291.068 198.9 292.59 204.3 292.996L213.7 293.91C221.6 294.519 228.4 296.143 234.2 298.884C240 301.624 244.6 305.278 247.9 309.948C251.2 314.617 252.8 320.2 252.8 326.798C252.8 333.801 251 339.892 247.4 345.17C243.8 350.448 238.7 354.61 232.1 357.554C225.4 360.497 217.5 361.919 208.5 361.919Z" fill="white"/>
<path d="M272 359.685V247.826H293.2V359.685H272ZM290.2 359.685V339.689H312.7C318.3 339.689 323.3 338.775 327.7 337.05C332.1 335.324 335.9 332.786 339 329.538C342.1 326.29 344.5 322.534 346.2 318.068C347.8 313.703 348.7 308.831 348.7 303.451C348.7 297.97 347.9 293.098 346.2 288.733C344.6 284.368 342.2 280.612 339 277.466C335.9 274.319 332.1 271.984 327.7 270.259C323.3 268.635 318.3 267.721 312.7 267.721H290.2V247.725H311.4C321.2 247.725 329.8 249.146 337.1 252.089C344.4 255.033 350.5 258.992 355.4 264.169C360.3 269.244 364 275.03 366.4 281.627C368.8 288.124 370.1 294.925 370.1 301.827V305.177C370.1 311.876 368.9 318.474 366.4 324.97C364 331.467 360.3 337.354 355.4 342.531C350.5 347.708 344.4 351.869 337.1 355.016C329.8 358.163 321.2 359.685 311.4 359.685H290.2Z" fill="white"/>
<path d="M378.199 359.076L415.199 248.537H449.999L488.199 359.076H466.299L433.999 263.255L441.599 266.605H422.999L430.799 263.255L399.499 359.076H378.199ZM404.199 329.843L410.899 311.47H454.899L461.599 329.843H404.199Z" fill="white"/>
<path d="M298.4 454.593C297.6 454.593 296.8 454.39 296.1 453.984C293.9 452.664 293.2 449.822 294.4 447.589C295.7 445.356 298.5 444.645 300.7 445.863C302.9 447.183 303.6 450.025 302.4 452.258C301.5 453.781 300 454.593 298.4 454.593ZM298.4 447.69C297.6 447.69 296.9 448.097 296.5 448.807C295.9 449.924 296.3 451.243 297.3 451.954C298.4 452.563 299.7 452.157 300.4 451.142C301 450.025 300.6 448.706 299.6 447.995C299.2 447.792 298.8 447.69 298.4 447.69Z" fill="white"/>
<path d="M241.6 431.856C235.3 431.856 228.7 424.243 228.3 423.837C227.9 423.431 227.9 422.822 228.2 422.416C228.5 422.01 229.1 421.807 229.6 422.01C229.7 422.01 237.6 425.055 240.2 419.878C242.4 415.716 246.4 412.874 251.9 411.758C256 410.946 259.4 411.25 259.5 411.352C260.1 411.453 260.6 412.062 260.5 412.671C260.4 413.28 259.9 413.788 259.2 413.686C259.1 413.686 246.7 412.468 242.3 420.995C240.4 424.75 236.4 425.562 233 425.156C236.1 427.795 241 431.044 244.4 428.405C251.3 423.228 259.5 427.796 259.9 427.999C260.5 428.303 260.7 429.014 260.3 429.623C260 430.232 259.3 430.435 258.7 430.029C258.6 430.029 251.5 425.968 245.8 430.232C244.5 431.45 243.1 431.856 241.6 431.856Z" fill="white"/>
<path d="M236.499 525.444C236.299 525.444 236.099 525.342 235.899 525.241L231.199 522.196C230.899 521.993 230.699 521.587 230.699 521.181V518.44C230.699 517.932 230.999 517.526 231.399 517.323L236.099 515.293C236.499 515.09 236.899 515.192 237.199 515.395C237.499 515.598 237.699 516.004 237.699 516.41V524.226C237.699 524.632 237.499 525.038 237.099 525.241C236.899 525.342 236.699 525.444 236.499 525.444ZM232.899 520.572L235.299 522.094V518.237L232.899 519.252V520.572Z" fill="white"/>
<path d="M245.3 531.026C245.1 531.026 244.9 530.924 244.7 530.823L240 527.778C239.7 527.575 239.5 527.169 239.5 526.763V514.582C239.5 514.075 239.8 513.668 240.2 513.465L244.9 511.435C245.3 511.232 245.7 511.334 246 511.537C246.3 511.74 246.5 512.146 246.5 512.552V529.808C246.5 530.214 246.3 530.62 245.9 530.823C245.7 531.026 245.5 531.026 245.3 531.026ZM241.7 526.154L244.1 527.676V514.379L241.7 515.394V526.154Z" fill="white"/>
<path d="M254.099 536.508H253.899C253.699 536.508 253.499 536.406 253.299 536.305L248.799 533.361C248.499 533.158 248.299 532.752 248.299 532.346V510.725C248.299 510.218 248.599 509.812 248.999 509.609L253.699 507.578C254.099 507.375 254.499 507.477 254.799 507.68C255.099 507.883 255.299 508.289 255.299 508.695V535.289C255.299 536 254.699 536.508 254.099 536.508ZM250.499 531.737L252.899 533.259V510.522L250.499 511.537V531.737Z" fill="white"/>
<path d="M282.198 525.444C281.998 525.444 281.798 525.444 281.598 525.342C281.198 525.139 280.998 524.733 280.998 524.327V516.511C280.998 516.105 281.198 515.699 281.498 515.496C281.798 515.293 282.198 515.192 282.598 515.395L287.298 517.425C287.698 517.628 287.998 518.034 287.998 518.541V521.282C287.998 521.688 287.798 522.094 287.498 522.297L282.798 525.342C282.698 525.342 282.398 525.444 282.198 525.444ZM283.398 518.237V522.094L285.798 520.572V519.252L283.398 518.237Z" fill="white"/>
<path d="M273.399 531.026C273.199 531.026 272.999 531.027 272.799 530.925C272.399 530.722 272.199 530.316 272.199 529.91V512.654C272.199 512.248 272.399 511.842 272.699 511.639C272.999 511.436 273.399 511.334 273.799 511.537L278.499 513.568C278.899 513.771 279.199 514.177 279.199 514.684V526.865C279.199 527.271 278.999 527.677 278.699 527.88L273.999 530.925C273.899 531.027 273.699 531.026 273.399 531.026ZM274.599 514.38V527.677L276.999 526.154V515.496L274.599 514.38Z" fill="white"/>
<path d="M264.798 536.508H264.598C263.998 536.508 263.398 536 263.398 535.289V508.695C263.398 508.289 263.598 507.883 263.898 507.68C264.198 507.477 264.598 507.375 264.998 507.578L269.698 509.609C270.098 509.812 270.398 510.218 270.398 510.725V532.447C270.398 532.853 270.198 533.259 269.898 533.462L265.398 536.406C265.298 536.508 265.098 536.508 264.798 536.508ZM265.798 510.624V533.361L268.198 531.838V511.74L265.798 510.624Z" fill="white"/>
<path d="M262.698 543.41C262.398 543.41 262.198 543.309 261.998 543.004C261.798 542.598 261.898 542.091 262.298 541.888C262.898 541.583 263.498 541.177 264.198 540.771C268.398 538.234 272.498 535.493 276.098 532.854C276.398 532.549 276.898 532.651 277.198 533.057C277.498 533.361 277.398 533.869 276.998 534.173C273.298 536.914 269.298 539.655 264.998 542.192C264.298 542.598 263.598 543.004 262.998 543.309C262.998 543.309 262.798 543.41 262.698 543.41Z" fill="white"/>
<path d="M256.099 543.41C255.999 543.41 255.799 543.41 255.699 543.309C255.099 543.004 254.399 542.598 253.699 542.192C249.399 539.655 245.399 536.914 241.699 534.173C241.399 533.869 241.299 533.463 241.499 533.057C241.799 532.752 242.199 532.651 242.599 532.854C246.199 535.493 250.299 538.233 254.499 540.771C255.199 541.177 255.899 541.583 256.399 541.888C256.799 542.091 256.899 542.598 256.699 543.004C256.599 543.207 256.299 543.41 256.099 543.41Z" fill="white"/>
<path d="M227.998 480.375C227.798 480.375 227.498 480.274 227.398 480.172C227.098 479.969 226.898 479.563 226.898 479.157V463.525C226.898 463.018 227.198 462.612 227.598 462.409L248.898 453.273C249.298 453.07 249.698 453.172 249.998 453.375C250.298 453.578 250.498 453.984 250.498 454.39V470.022C250.498 470.529 250.198 470.935 249.798 471.138L228.498 480.274C228.298 480.274 228.198 480.375 227.998 480.375ZM229.198 464.337V477.33L248.098 469.21V456.217L229.198 464.337Z" fill="white"/>
<path d="M233.899 475.3L235.499 474.59V467.281L248.099 462.105V460.379L234.699 465.86L230.399 463.729L229.199 464.338V464.947L233.899 467.281V475.3Z" fill="white"/>
<path d="M291.799 480.375C291.599 480.375 291.499 480.375 291.299 480.274L269.999 471.138C269.599 470.935 269.299 470.529 269.299 470.022V454.288C269.299 453.882 269.499 453.476 269.799 453.273C270.099 453.07 270.499 452.969 270.899 453.172L292.199 462.307C292.599 462.51 292.899 462.916 292.899 463.424V479.056C292.899 479.462 292.699 479.868 292.399 480.071C292.299 480.274 291.999 480.375 291.799 480.375ZM271.699 469.21L290.599 477.33V464.337L271.699 456.217V469.21Z" fill="white"/>
<path d="M289.399 463.729L285.099 465.86L271.699 460.379V462.105L284.299 467.281V474.59L285.899 475.3V467.281L290.599 464.947V464.338L289.399 463.729Z" fill="white"/>
<path d="M298.4 454.593C298 454.593 297.7 454.593 297.3 454.491V487.379L272.5 476.62C272.1 476.417 271.6 476.62 271.5 477.026C271.3 477.432 271.5 477.939 271.9 478.041L276.7 480.071V480.172V490.83L260.6 483.725V434.596L276.8 441.702V451.852C276.8 452.36 277.1 452.766 277.5 452.969L285.3 456.318C285.7 456.521 286.1 456.42 286.4 456.217C286.7 456.014 286.9 455.608 286.9 455.202V446.066L293.9 449.112C294 448.604 294.2 448.097 294.4 447.589C294.5 447.386 294.7 447.183 294.8 446.98L286.1 443.224C285.7 443.021 285.3 443.123 285 443.326L279.1 446.168V440.89C279.1 440.382 278.8 439.976 278.4 439.773L260.5 431.957V410.641C260.5 410.032 260 409.423 259.3 409.423C258.6 409.423 258.1 409.93 258.1 410.641V431.957L240.2 439.773C239.8 439.976 239.5 440.382 239.5 440.89V446.168L233.6 443.326C233.3 443.123 232.9 443.021 232.5 443.224L224 446.98C224.5 447.589 224.9 448.3 225 449.112L231.8 446.168V455.303C231.8 455.709 232 456.115 232.3 456.318C232.6 456.521 233 456.623 233.4 456.42L241.2 453.07C241.6 452.867 241.9 452.461 241.9 451.954V441.803L258.1 434.698V439.266V471.443L221.3 487.481V462.104V454.593C221 454.694 220.7 454.694 220.5 454.694C220 454.694 219.5 454.593 219 454.39V487.887V510.421C219.1 511.436 219.2 512.451 219.4 513.466V513.568C223 528.591 245.7 543.106 254.9 548.486C255 548.08 255.2 547.674 255.4 547.268C255.6 546.963 255.8 546.659 256 546.456C248 541.786 229.4 529.91 223.3 517.526L258.5 502.199V541.482C258.5 541.888 258.9 542.294 259.3 542.294C259.7 542.294 260.1 541.888 260.1 541.482V502.199L295.3 517.526C289.2 529.91 270.8 541.685 262.7 546.456C263.3 547.065 263.7 547.775 263.9 548.587C273.9 542.801 298.8 526.763 299.7 510.624V487.785V462.003V454.39C299.3 454.491 298.8 454.593 298.4 454.593ZM279.4 448.604L284.5 446.168V453.375L279.1 451.04V448.706C279.2 448.706 279.3 448.706 279.4 448.604ZM234.2 453.476V446.168L239.3 448.604C239.4 448.604 239.5 448.706 239.6 448.706V451.04L234.2 453.476ZM293.7 500.067C293.8 500.067 293.9 500.169 294 500.169C294.3 500.169 294.6 499.966 294.7 499.661C294.9 499.255 294.7 498.748 294.3 498.646L292.5 497.834V487.075L297.3 489.105V510.218C297.3 510.624 297.2 511.03 297.2 511.436L284.8 506.056V496.109L293.7 500.067ZM278.2 491.236V480.781L291 486.364V497.124L278.2 491.541C278.2 491.439 278.2 491.338 278.2 491.236ZM283.2 495.398C283.2 495.5 283.2 495.5 283.2 495.601V505.346L260.5 495.5V485.451L283.2 495.398ZM258.2 495.5L249.2 499.458V489.409L252.5 487.988C252.9 487.785 253.1 487.379 252.9 486.973C252.7 486.567 252.3 486.364 251.9 486.567L239.4 492.048V481.695C239.4 481.593 239.4 481.492 239.4 481.492L258.3 473.27V495.5H258.2ZM221.4 499.763V489.105L237.7 481.999V492.658L221.4 499.763ZM221.4 510.218V501.387L232.3 496.616V506.665L221.5 511.335C221.5 511.03 221.4 510.624 221.4 510.218ZM233.7 496.109L247.6 490.018V499.661C247.6 499.763 247.6 499.864 247.7 500.067L233.9 506.056V496.515C233.9 496.413 233.8 496.21 233.7 496.109ZM259.7 499.966H259.6H259.5H259.4C259.4 499.966 259.4 499.966 259.3 499.966C259.3 499.966 259.3 499.966 259.2 499.966H259.1L222.8 515.801C222.5 515.09 222.3 514.481 222.1 513.771L259.4 497.53L296.7 513.771C296.5 514.481 296.3 515.09 296 515.801L259.7 499.966Z" fill="white"/>
<path d="M259.5 554.068C258.7 554.068 257.9 553.865 257.2 553.459C255 552.14 254.3 549.298 255.5 547.065C256.8 544.831 259.6 544.121 261.8 545.339C264 546.659 264.7 549.501 263.5 551.734C262.6 553.256 261.1 554.068 259.5 554.068ZM259.5 547.166C258.7 547.166 258 547.572 257.6 548.283C257 549.399 257.4 550.719 258.4 551.429C259.5 552.038 260.8 551.632 261.5 550.617C262.1 549.501 261.7 548.181 260.7 547.471C260.2 547.268 259.9 547.166 259.5 547.166Z" fill="white"/>
<path d="M220.599 454.593C219.799 454.593 218.999 454.39 218.299 453.984C216.099 452.664 215.399 449.822 216.599 447.589C217.899 445.356 220.699 444.645 222.899 445.863C225.099 447.183 225.799 450.025 224.599 452.258C223.999 453.375 222.999 454.085 221.799 454.39C221.399 454.491 220.999 454.593 220.599 454.593ZM219.499 451.852C219.999 452.157 220.599 452.258 221.199 452.055C221.799 451.852 222.299 451.548 222.599 451.04C223.199 449.924 222.799 448.604 221.799 447.894C220.699 447.284 219.399 447.69 218.699 448.706C217.999 449.924 218.399 451.243 219.499 451.852Z" fill="white"/>
<path fill-rule="evenodd" clip-rule="evenodd" d="M166.5 159.313C166.5 165.809 167 172.204 167.9 178.599L169.9 192.302C168.1 192.607 166.4 192.81 164.5 192.81C162.6 192.81 160.9 192.607 159.1 192.302L161.1 178.599C162 172.204 162.5 165.809 162.5 159.313V130.485C163.2 130.485 163.9 130.384 164.6 130.384C165.3 130.384 166 130.384 166.7 130.485V159.313H166.5ZM145.8 186.516L153.8 170.682C154.4 169.463 154.7 168.144 154.7 166.824V132.008C142.5 136.17 133.6 147.843 133.6 161.648C133.7 171.798 138.5 180.832 145.8 186.516ZM174.2 166.824C174.2 168.144 174.5 169.463 175.1 170.682L183.1 186.516C190.5 180.832 195.2 171.798 195.2 161.648C195.2 147.843 186.4 136.17 174.1 132.008V166.824H174.2Z" fill="white"/>
<path d="M385 151.497V150.786H388.4V151.497H385ZM386.3 155.252V151.294H387V155.252H386.3ZM389.1 155.252V150.888H389.8V155.252H389.1ZM391.2 155.252L389.3 150.888H390.1L391.4 154.136L392.7 150.888H393.5L391.6 155.252H391.2ZM392.9 155.252V150.888H393.6V155.252H392.9Z" fill="white"/>
<path d="M230.5 142.564C219 142.564 210.6 150.887 210.6 162.459V162.865C210.6 174.538 218.8 182.76 230.5 182.76C242.2 182.76 250.3 174.538 250.3 162.764V162.358C250.3 150.684 242.1 142.564 230.5 142.564ZM218.7 162.459C218.7 154.136 223.2 148.959 230.5 148.959C237.8 148.959 242.2 154.237 242.2 162.459V162.865C242.2 171.087 237.6 176.467 230.6 176.467C223.6 176.467 218.7 170.884 218.7 162.967V162.459Z" fill="white"/>
<path d="M286.399 141.042C285.099 140.636 284.099 140.534 282.499 140.534C276.299 140.534 272.699 144.087 272.699 150.38V153.527H261.899V150.076C261.899 146.929 263.799 146.219 265.299 146.219C266.499 146.219 267.499 146.523 268.099 146.726C268.199 146.726 268.299 146.726 268.399 146.726C268.499 146.625 268.499 146.625 268.499 146.523V141.448C268.499 141.346 268.399 141.245 268.299 141.143C266.999 140.737 265.999 140.636 264.499 140.636C258.199 140.636 254.699 144.087 254.699 150.482V182.05C254.699 182.253 254.799 182.355 254.999 182.355H261.499C261.699 182.355 261.799 182.253 261.799 182.05V158.907H272.599V181.847C272.599 182.05 272.699 182.152 272.899 182.152H279.399C279.599 182.152 279.699 182.05 279.699 181.847V158.907H285.799C285.999 158.907 286.099 158.805 286.099 158.602V153.73C286.099 153.527 285.999 153.425 285.799 153.425H279.699V150.076C279.699 146.929 281.599 146.219 283.099 146.219C284.399 146.219 285.399 146.523 285.999 146.726C286.099 146.726 286.199 146.726 286.299 146.726C286.399 146.726 286.399 146.625 286.399 146.523V141.448C286.599 141.245 286.599 141.143 286.399 141.042Z" fill="white"/>
<path d="M305.7 158.703C299.1 157.79 297.9 156.267 297.9 153.324C297.9 150.38 300.3 148.553 304.3 148.553C308.7 148.553 310.8 150.177 311.5 154.034C311.5 154.136 311.6 154.237 311.8 154.237H318.4C318.5 154.237 318.6 154.237 318.6 154.136C318.7 154.034 318.7 154.034 318.7 153.933C317.9 146.421 313 142.462 304.3 142.462C296.2 142.462 290.5 147.132 290.5 153.831C290.5 160.53 294.4 164.083 304.4 165.403C311.1 166.519 312.2 168.042 312.2 170.985C312.2 174.335 309.4 176.568 305.2 176.568C298.7 176.568 297.3 173.32 296.9 169.767C296.9 169.666 296.8 169.463 296.6 169.463H289.7C289.6 169.463 289.5 169.463 289.5 169.564C289.5 169.666 289.4 169.666 289.4 169.767C289.8 175.553 292.9 182.557 305.2 182.557C313.6 182.557 319.7 177.38 319.7 170.376C319.8 162.358 314.4 159.921 305.7 158.703Z" fill="white"/>
<path d="M347.599 156.268C345.199 154.034 341.899 152.816 338.099 152.816C329.599 152.816 323.699 158.907 323.699 167.636V168.042C323.699 176.772 329.599 182.659 338.299 182.659C345.799 182.659 350.699 179.208 351.599 173.219C351.599 173.118 351.599 173.016 351.499 173.016C351.399 172.915 351.399 172.915 351.299 172.915H344.999C344.899 172.915 344.699 173.016 344.699 173.118C344.199 175.858 342.099 177.178 338.499 177.178C333.999 177.178 331.299 174.437 330.999 169.463H351.399C351.599 169.463 351.699 169.362 351.699 169.159V167.23C351.699 162.561 350.299 158.805 347.599 156.268ZM331.199 164.591C331.899 160.531 334.399 158.196 338.099 158.196C342.099 158.196 344.299 160.328 344.599 164.591H331.199Z" fill="white"/>
<path d="M384.099 171.189C383.999 171.088 383.999 171.088 383.899 171.088H377.899C377.699 171.088 377.599 171.189 377.599 171.392C377.299 174.843 374.699 177.178 371.099 177.178C366.299 177.178 363.599 173.828 363.599 168.144V167.738C363.599 162.257 366.499 158.805 370.999 158.805C374.599 158.805 376.699 160.531 377.199 163.881C377.199 163.982 377.299 164.185 377.499 164.185H383.799C383.899 164.185 383.999 164.185 383.999 164.084C384.099 163.982 384.099 163.982 384.099 163.881C383.399 156.978 378.599 153.02 370.899 153.02C362.399 153.02 356.299 159.313 356.299 167.941V168.347C356.299 177.076 362.199 182.964 370.899 182.964C378.499 182.964 383.799 178.497 384.299 171.595C384.199 171.392 384.199 171.291 384.099 171.189Z" fill="white"/>
<defs>
<linearGradient id="paint0_linear_831_12734" x1="259.999" y1="597.252" x2="259.999" y2="84.2309" gradientUnits="userSpaceOnUse">
<stop stop-color="#417695"/>
<stop offset="1" stop-color="#5CD6ED"/>
</linearGradient>
<linearGradient id="paint1_linear_831_12734" x1="259.999" y1="679.122" x2="259.999" y2="235.189" gradientUnits="userSpaceOnUse">
<stop stop-color="#5CD6ED"/>
<stop offset="1" stop-color="#417695"/>
</linearGradient>
<linearGradient id="paint2_linear_831_12734" x1="260" y1="183.977" x2="260" y2="467.054" gradientUnits="userSpaceOnUse">
<stop stop-color="#5CD6ED"/>
<stop offset="1" stop-color="#417695"/>
</linearGradient>
</defs>
</svg>
